<svg width="23" height="23" viewBox="0 0 23 23" fill="none" xmlns="http://www.w3.org/2000/svg">
<g opacity="0.7">
<path d="M16.2168 7.45703C16.2168 4.84936 14.1003 2.69531 11.5 2.69531C8.90311 2.69531 6.7832 4.84635 6.7832 7.45703C6.7832 10.0579 8.89916 12.1738 11.5 12.1738C14.1008 12.1738 16.2168 10.0579 16.2168 7.45703ZM8.13086 7.45703C8.13086 5.57449 9.64226 4.04297 11.5 4.04297C13.3577 4.04297 14.8691 5.57449 14.8691 7.45703C14.8691 9.31478 13.3577 10.8262 11.5 10.8262C9.64226 10.8262 8.13086 9.31478 8.13086 7.45703Z" fill="white"/>
<path d="M18.9121 7.45703C18.9121 3.3686 15.5932 0 11.5 0C7.63604 0 4.08789 3.08694 4.08789 7.45703C4.08789 10.1817 6.75562 14.2991 8.33957 16.5616C6.57876 16.9155 4.08789 17.8293 4.08789 19.6309C4.08789 22.2071 8.88649 23 11.5 23C14.1137 23 18.9121 22.2071 18.9121 19.6309C18.9121 17.8292 16.421 16.9154 14.6604 16.5616C16.2362 14.3108 18.9121 10.1849 18.9121 7.45703ZM5.43555 7.45703C5.43555 3.68346 8.58345 1.34766 11.5 1.34766C14.8439 1.34766 17.5645 4.08829 17.5645 7.45703C17.5645 10.3106 13.5771 15.9357 11.5 18.5592C9.42263 15.9362 5.43555 10.3124 5.43555 7.45703ZM17.5645 19.6309C17.5645 20.7566 14.2644 21.6523 11.5 21.6523C8.73924 21.6523 5.43555 20.7559 5.43555 19.6309C5.43555 19.0945 6.63927 18.1648 9.21258 17.7764C10.1954 19.11 10.9351 20.0052 10.9812 20.0608C11.1092 20.2153 11.2994 20.3047 11.5 20.3047C11.7006 20.3047 11.8908 20.2153 12.0188 20.0608C12.0649 20.0052 12.8046 19.11 13.7874 17.7764C16.3607 18.1648 17.5645 19.0945 17.5645 19.6309Z" fill="white"/>
</g>
</svg>
