<svg width="30" height="30" viewBox="0 0 30 30" fill="none" xmlns="http://www.w3.org/2000/svg">
<path d="M20.625 0H9.375C4.19813 0 0 4.19813 0 9.375V20.625C0 25.8019 4.19813 30 9.375 30H20.625C25.8019 30 30 25.8019 30 20.625V9.375C30 4.19813 25.8019 0 20.625 0ZM27.1874 20.625C27.1874 24.2437 24.2437 27.1874 20.625 27.1874H9.375C5.75626 27.1874 2.8125 24.2437 2.8125 20.625V9.375C2.8125 5.75626 5.75626 2.8125 9.375 2.8125H20.625C24.2437 2.8125 27.1874 5.75626 27.1874 9.375V20.625Z" fill="white"/>
<path d="M15 9C11.6865 9 9 11.6865 9 15C9 18.3136 11.6865 21 15 21C18.3136 21 21 18.3136 21 15C21 11.6865 18.3136 9 15 9ZM15 18.75C12.933 18.75 11.25 17.067 11.25 15C11.25 12.9316 12.933 11.25 15 11.25C17.067 11.25 18.75 12.9316 18.75 15C18.75 17.067 17.067 18.75 15 18.75Z" fill="white"/>
<path d="M21.8687 9.52435C22.5309 9.52435 23.0678 8.98744 23.0678 8.32511C23.0678 7.66278 22.5309 7.12585 21.8687 7.12585C21.2063 7.12585 20.6694 7.66278 20.6694 8.32511C20.6694 8.98744 21.2063 9.52435 21.8687 9.52435Z" fill="white"/>
</svg>
