<svg width="312" height="176" viewBox="0 0 312 176" fill="none" xmlns="http://www.w3.org/2000/svg">
<path fill-rule="evenodd" clip-rule="evenodd" d="M20.6827 23.7742L0.0990906 23.7776L36.5716 87.0343L46.772 69.1508L20.6827 23.7743L20.6827 23.7742ZM93.8274 23.7794L24.1504 23.7776L42.3041 55.3613L57.8931 55.3451L38.3347 89.9621L47.0981 105.387L82.9043 42.9064H53.1013L49.7746 36.3524L86.6615 36.3422L93.8277 23.7795L93.8274 23.7794Z" fill="white"/>
<path d="M141.408 31.9101L127.855 94.0863C126.153 94.3224 124.159 94.4402 121.87 94.4402C119.935 94.4402 118.526 92.7303 117.647 89.3105L105.414 34.0328C105.297 33.443 105.237 33.0598 105.237 32.8829C105.237 32.2344 105.795 31.9101 106.91 31.9101H112.718L120.11 66.2263C120.873 70.1178 121.87 76.1912 123.103 84.4459C123.338 85.9788 123.513 87.0699 123.631 87.7183C124.687 79.1097 125.743 71.9458 126.799 66.2263L133.399 34.0327C133.517 33.5019 133.62 33.104 133.707 32.8388C133.796 32.5734 133.971 32.3524 134.236 32.1755C134.499 31.9985 134.837 31.91 135.247 31.91H141.408L141.408 31.9101ZM152.76 87.3647H167.897C167.897 90.4306 167.839 92.2732 167.721 92.8923C167.604 93.5114 167.193 93.821 166.489 93.821H145.72V33.3253C145.72 32.3819 146.189 31.9102 147.128 31.9102H168.249C168.249 34.9174 168.191 36.7451 168.073 37.3938C167.956 38.0424 167.575 38.3665 166.929 38.3665H152.76V56.8513H166.049C166.049 59.7405 165.991 61.5535 165.873 62.2907C165.756 63.0278 165.375 63.3964 164.729 63.3964H152.76V87.3649V87.3647ZM175.201 31.9101H183.914C189.488 31.9101 193.58 33.2956 196.191 36.0667C198.802 38.8381 200.107 43.2605 200.107 49.3336C200.107 58.0012 197.555 63.7795 192.451 66.6687C197.261 73.2136 200.019 81.7337 200.723 92.2289C200.723 92.9365 200.518 93.4082 200.107 93.6441C199.696 93.8799 198.699 93.998 197.115 93.998C196.47 93.998 195.091 93.9391 192.979 93.821C192.216 82.3232 189.781 73.9211 185.675 68.6145L184.002 68.703H180.834V92.406C180.834 93.1136 180.54 93.5261 179.954 93.6442C179.368 93.7623 177.314 93.8212 173.794 93.8212V33.3254C173.794 32.382 174.263 31.9103 175.201 31.9103L175.201 31.9101ZM180.834 62.0697H184.706C187.288 62.0697 189.194 61.0524 190.426 59.0182C191.658 56.984 192.275 53.6673 192.275 49.0682C192.275 45.4715 191.732 42.7593 190.646 40.9313C189.561 39.1036 187.757 38.1895 185.234 38.1895H180.834V62.0697V62.0697ZM204.859 31.9101H234.781V37.1282C234.781 38.1306 234.282 38.6319 233.285 38.6319H222.46V92.406C222.46 93.1136 222.153 93.5261 221.537 93.6442C220.921 93.7623 218.852 93.8212 215.332 93.8212V38.632H203.363V33.3253C203.363 32.3819 203.862 31.9102 204.859 31.9102L204.859 31.9101ZM246.486 87.3647H261.623C261.623 90.4306 261.564 92.2732 261.447 92.8923C261.329 93.5114 260.919 93.821 260.215 93.821H239.445V33.3253C239.445 32.3819 239.915 31.9102 240.854 31.9102H261.975C261.975 34.9174 261.916 36.7451 261.799 37.3938C261.681 38.0424 261.3 38.3665 260.655 38.3665H246.486V56.8513H259.774C259.774 59.7405 259.716 61.5535 259.599 62.2907C259.481 63.0278 259.1 63.3964 258.454 63.3964H246.486V87.3649V87.3647ZM287.232 61.2736L299.905 92.6712C299.964 92.789 299.993 92.966 299.993 93.2019C299.993 93.6147 299.699 93.821 299.113 93.821H291.368L286.616 81.881C284.856 77.2819 283.272 72.8891 281.864 68.7029C280.28 73.4786 278.637 77.8714 276.935 81.881L272.184 92.9364C271.831 93.5259 271.303 93.821 270.599 93.821H264.439L277.904 61.8041L266.815 33.1482C266.639 32.5587 266.844 32.2048 267.431 32.087C268.135 31.969 270.716 31.9101 275.175 31.9101L278.784 41.9927C279.84 44.8819 281.277 49.304 283.096 55.2594C284.621 50.1294 286.088 45.7073 287.496 41.9927L290.928 33.0598C291.104 32.4703 291.5 32.131 292.117 32.0428C292.733 31.9543 294.888 31.9101 298.585 31.9101L287.232 61.2736H287.232Z" fill="white"/>
<path fill-rule="evenodd" clip-rule="evenodd" d="M305.901 14.1017L305.459 14.1022C304.798 14.1242 304.14 14.2499 303.523 14.4716C302.916 14.6891 302.349 14.9991 301.858 15.3946C301.622 15.5844 301.435 15.749 301.26 15.9252C301.082 16.1048 300.918 16.2919 300.73 16.5231L300.567 16.7459C300.459 16.8993 300.362 17.0516 300.271 17.2074C300.175 17.3699 300.088 17.5335 300.005 17.7042C299.851 18.0183 299.692 18.4571 299.58 18.9298C299.485 19.3282 299.422 19.7518 299.422 20.146C299.422 20.7633 299.45 21.2093 299.534 21.6339C299.62 22.059 299.766 22.475 300.002 23.0302C300.059 23.1645 300.16 23.3525 300.27 23.5388C300.395 23.7485 300.528 23.9556 300.625 24.0839L300.799 24.309L301.059 24.6011L301.174 24.7228C301.311 24.8694 301.454 25.0218 301.624 25.1553L301.638 25.166C302.151 25.5684 302.374 25.744 303.006 26.0571C303.319 26.211 303.755 26.3707 304.226 26.4838C304.622 26.5793 305.043 26.6424 305.436 26.6424H305.47C305.818 26.6429 306.077 26.6414 306.331 26.6181C306.583 26.5953 306.838 26.5498 307.188 26.4618C307.403 26.4084 307.588 26.3482 307.763 26.2827C307.94 26.2168 308.115 26.1419 308.306 26.06C308.389 26.0241 308.472 25.9828 308.551 25.9396L308.795 25.8003C309.083 25.6296 309.413 25.3956 309.715 25.1398C309.988 24.9097 310.238 24.6624 310.42 24.4294L310.593 24.2202C310.643 24.1579 310.681 24.1043 310.721 24.0469L310.906 23.7731L311.053 23.5354C311.196 23.2962 311.326 23.0326 311.438 22.7603C311.55 22.4894 311.645 22.2056 311.716 21.9261C311.77 21.7112 311.812 21.4936 311.843 21.2766C311.874 21.0559 311.893 20.8345 311.9 20.6138L311.9 20.1693C311.878 19.5057 311.752 18.8447 311.533 18.2236C311.316 17.6131 311.007 17.0438 310.614 16.5498C310.456 16.3516 310.357 16.2328 310.26 16.1276C310.16 16.0207 310.054 15.9202 309.882 15.7605C309.695 15.5849 309.539 15.4519 309.375 15.3281C309.213 15.2064 309.038 15.0909 308.809 14.9535C308.571 14.8103 308.308 14.6784 308.038 14.5658C307.768 14.4533 307.485 14.3585 307.207 14.2876C306.993 14.2328 306.777 14.1902 306.56 14.1595C306.341 14.1284 306.12 14.109 305.901 14.1017V14.1017ZM303.387 23.4731H304.413V21.647L305.224 21.6392C305.511 21.6324 305.666 21.629 305.79 21.6635C305.969 21.713 306.03 21.8057 306.16 22.0004L306.262 22.1499L307.209 23.4731H308.505L308.483 23.4417C308.281 23.1582 307.976 22.7462 307.91 22.6551L307.025 21.4397L307.105 21.33C307.154 21.2641 307.212 21.2214 307.273 21.1787L307.328 21.1389C307.54 20.9735 307.731 20.7287 307.866 20.4531C307.996 20.1882 308.075 19.8932 308.075 19.6136C308.075 19.3693 308.075 19.1709 308.05 18.9908C308.024 18.8133 307.973 18.639 307.872 18.4304C307.703 18.0809 307.417 17.7945 307.072 17.5945C306.714 17.3875 306.289 17.2718 305.857 17.2718H303.387V23.4731V23.4731ZM305.661 20.6151H304.413V18.3032C304.72 18.3032 305.027 18.2958 305.334 18.2901C306.163 18.2901 307.049 18.4123 307.049 19.333V19.501C307.049 19.8767 306.904 20.1489 306.665 20.3332C306.411 20.5298 306.054 20.6151 305.661 20.6151V20.6151ZM300.359 20.5395C300.359 19.7945 300.453 19.1652 300.654 18.5885C300.855 18.0105 301.164 17.4869 301.593 16.9521C301.696 16.826 301.771 16.7501 301.87 16.6506L301.914 16.6074C302.385 16.1328 302.963 15.7333 303.593 15.4577C304.192 15.1962 304.84 15.0443 305.495 15.0443C306.119 15.0443 306.686 15.1142 307.216 15.27C307.748 15.4263 308.24 15.6702 308.713 16.0134L308.893 16.142C309.07 16.2749 309.275 16.4652 309.467 16.6671C309.667 16.8773 309.857 17.104 309.987 17.2922C310.531 18.0668 310.859 18.9914 310.945 19.9319C311.029 20.8525 310.881 21.7915 310.473 22.6234C310.401 22.77 310.331 22.9054 310.255 23.0399C310.179 23.1729 310.096 23.303 309.999 23.4394C309.769 23.7582 309.527 24.0373 309.258 24.2891C308.986 24.5409 308.688 24.7642 308.346 24.97C307.45 25.5097 306.358 25.7503 305.292 25.6843C304.246 25.6189 303.222 25.2574 302.424 24.5959L302.258 24.4613C302.138 24.3658 302.062 24.2891 301.97 24.1949L301.913 24.1381C301.801 24.026 301.703 23.9208 301.609 23.8111C301.515 23.7009 301.426 23.5868 301.333 23.4538L301.21 23.2695L301.086 23.0719C300.875 22.7195 300.685 22.2858 300.552 21.8242C300.432 21.4088 300.359 20.9685 300.359 20.5395V20.5395Z" fill="white"/>
<path d="M33.6587 135.433C33.6587 136.332 33.4914 137.134 33.1615 137.839C32.8261 138.54 32.3644 139.139 31.7759 139.632C31.1875 140.119 30.4921 140.49 29.6953 140.739C28.8933 140.987 28.0361 141.109 27.113 141.109C26.4679 141.109 25.869 141.053 25.3212 140.947C24.7681 140.835 24.2758 140.698 23.845 140.54C23.4138 140.383 23.0531 140.216 22.7587 140.048C22.4695 139.876 22.2612 139.733 22.1501 139.611C22.0331 139.494 21.9518 139.342 21.8956 139.159C21.8397 138.977 21.8147 138.733 21.8147 138.428C21.8147 138.21 21.8255 138.027 21.8456 137.885C21.8661 137.743 21.8956 137.626 21.9313 137.54C21.9723 137.449 22.023 137.387 22.0834 137.352C22.1453 137.317 22.2108 137.301 22.2921 137.301C22.4292 137.301 22.6275 137.387 22.8802 137.555C23.1287 137.722 23.4541 137.905 23.8543 138.103C24.2509 138.296 24.7279 138.484 25.291 138.656C25.8489 138.83 26.4985 138.916 27.2293 138.916C27.7872 138.916 28.2944 138.84 28.7565 138.692C29.2186 138.545 29.6144 138.337 29.9442 138.063C30.2796 137.794 30.5323 137.458 30.7105 137.062C30.8882 136.667 30.9795 136.215 30.9795 135.712C30.9795 135.169 30.8569 134.702 30.6087 134.316C30.3605 133.929 30.0348 133.59 29.6301 133.295C29.2186 133.006 28.7565 132.736 28.2392 132.493C27.7164 132.249 27.1842 132.005 26.6412 131.752C26.0982 131.498 25.5645 131.218 25.0529 130.909C24.5348 130.604 24.0727 130.244 23.6669 129.828C23.2614 129.411 22.9316 128.923 22.6827 128.36C22.4292 127.801 22.3018 127.131 22.3018 126.349C22.3018 125.542 22.4494 124.826 22.7386 124.196C23.0322 123.572 23.4388 123.044 23.9568 122.618C24.4789 122.191 25.098 121.866 25.8131 121.642C26.5339 121.42 27.3049 121.308 28.1379 121.308C28.5642 121.308 28.9898 121.343 29.4217 121.42C29.8533 121.496 30.2588 121.592 30.6396 121.719C31.0194 121.841 31.3593 121.983 31.6589 122.135C31.9537 122.287 32.152 122.414 32.2429 122.506C32.3394 122.602 32.4002 122.674 32.4311 122.73C32.4609 122.785 32.481 122.856 32.5019 122.938C32.522 123.023 32.5369 123.125 32.547 123.247C32.5578 123.364 32.5627 123.516 32.5627 123.709C32.5627 123.887 32.5578 124.044 32.5422 124.186C32.5269 124.323 32.5019 124.44 32.471 124.536C32.446 124.628 32.4002 124.699 32.3487 124.745C32.2936 124.791 32.2328 124.811 32.1613 124.811C32.0495 124.811 31.8821 124.739 31.6492 124.603C31.4156 124.46 31.1316 124.308 30.7913 124.131C30.4567 123.957 30.0564 123.8 29.5943 123.658C29.137 123.511 28.6201 123.44 28.0414 123.44C27.5081 123.44 27.0415 123.511 26.6461 123.653C26.2499 123.8 25.9205 123.988 25.6615 124.227C25.4077 124.466 25.2146 124.745 25.0827 125.07C24.956 125.4 24.8904 125.745 24.8904 126.111C24.8904 126.643 25.0119 127.106 25.2604 127.492C25.509 127.877 25.8392 128.217 26.2499 128.518C26.6662 128.817 27.1331 129.086 27.6605 129.335C28.1833 129.584 28.7215 129.832 29.2689 130.087C29.8116 130.34 30.3497 130.614 30.8722 130.919C31.401 131.218 31.868 131.579 32.2835 131.99C32.6942 132.401 33.0248 132.884 33.2778 133.447C33.5316 134.006 33.6587 134.666 33.6587 135.433ZM155.206 140.449C155.206 140.531 155.186 140.601 155.145 140.657C155.105 140.719 155.039 140.764 154.937 140.799C154.835 140.835 154.704 140.866 154.541 140.891C154.374 140.916 154.177 140.926 153.938 140.926C153.673 140.926 153.465 140.916 153.308 140.891C153.146 140.866 153.019 140.835 152.918 140.799C152.816 140.764 152.751 140.719 152.709 140.657C152.669 140.601 152.649 140.531 152.649 140.449V131.909H143.911V140.449C143.911 140.531 143.891 140.601 143.85 140.657C143.809 140.719 143.743 140.764 143.642 140.799C143.545 140.835 143.413 140.866 143.251 140.891C143.084 140.916 142.881 140.926 142.633 140.926C142.394 140.926 142.19 140.916 142.023 140.891C141.856 140.866 141.719 140.835 141.622 140.799C141.521 140.764 141.455 140.719 141.414 140.657C141.374 140.601 141.353 140.531 141.353 140.449V121.968C141.353 121.887 141.374 121.816 141.414 121.76C141.455 121.698 141.521 121.653 141.622 121.617C141.719 121.581 141.856 121.552 142.023 121.525C142.19 121.5 142.394 121.49 142.633 121.49C142.881 121.49 143.084 121.5 143.251 121.525C143.413 121.552 143.545 121.581 143.642 121.617C143.743 121.653 143.809 121.698 143.85 121.76C143.891 121.82 143.911 121.887 143.911 121.968V129.685H152.649V121.968C152.649 121.887 152.669 121.82 152.709 121.76C152.751 121.698 152.816 121.653 152.918 121.617C153.019 121.581 153.146 121.552 153.308 121.525C153.465 121.5 153.673 121.49 153.938 121.49C154.177 121.49 154.374 121.5 154.541 121.525C154.704 121.552 154.835 121.581 154.937 121.617C155.039 121.653 155.105 121.698 155.145 121.76C155.186 121.816 155.206 121.887 155.206 121.968V140.449ZM196.674 130.985C196.674 132.544 196.491 133.945 196.125 135.194C195.756 136.443 195.207 137.505 194.481 138.383C193.751 139.256 192.837 139.931 191.736 140.403C190.635 140.876 189.352 141.109 187.885 141.109C186.439 141.109 185.191 140.896 184.135 140.464C183.074 140.033 182.207 139.403 181.516 138.58C180.826 137.758 180.313 136.738 179.979 135.519C179.638 134.3 179.472 132.899 179.472 131.315C179.472 129.797 179.654 128.416 180.02 127.177C180.389 125.938 180.938 124.887 181.674 124.019C182.404 123.155 183.324 122.486 184.425 122.013C185.52 121.541 186.804 121.308 188.276 121.308C189.691 121.308 190.925 121.521 191.975 121.947C193.025 122.374 193.903 122.993 194.599 123.811C195.298 124.628 195.821 125.638 196.161 126.847C196.502 128.051 196.674 129.431 196.674 130.985V130.985ZM193.964 131.162C193.964 130.076 193.867 129.061 193.675 128.127C193.482 127.192 193.163 126.38 192.711 125.689C192.259 125.003 191.66 124.466 190.909 124.08C190.153 123.693 189.224 123.501 188.118 123.501C187.007 123.501 186.078 123.709 185.327 124.125C184.577 124.542 183.962 125.095 183.495 125.785C183.024 126.482 182.689 127.289 182.486 128.217C182.283 129.142 182.181 130.112 182.181 131.133C182.181 132.264 182.278 133.301 182.466 134.249C182.653 135.205 182.968 136.021 183.414 136.712C183.856 137.398 184.455 137.931 185.201 138.312C185.946 138.692 186.885 138.885 188.012 138.885C189.134 138.885 190.072 138.677 190.833 138.26C191.595 137.844 192.208 137.286 192.675 136.575C193.137 135.869 193.472 135.047 193.67 134.117C193.867 133.189 193.964 132.204 193.964 131.162ZM232.215 122.678C232.215 122.866 232.204 123.029 232.184 123.166C232.163 123.303 232.133 123.414 232.087 123.501C232.042 123.582 231.991 123.648 231.924 123.684C231.859 123.724 231.788 123.745 231.712 123.745H226.307V140.449C226.307 140.531 226.287 140.596 226.247 140.657C226.206 140.719 226.14 140.764 226.038 140.799C225.943 140.835 225.81 140.866 225.648 140.891C225.48 140.916 225.277 140.926 225.029 140.926C224.79 140.926 224.587 140.916 224.419 140.891C224.252 140.866 224.115 140.835 224.019 140.799C223.917 140.764 223.852 140.719 223.811 140.657C223.771 140.596 223.75 140.531 223.75 140.449V123.745H218.346C218.27 123.745 218.199 123.724 218.133 123.684C218.066 123.648 218.016 123.582 217.976 123.501C217.94 123.414 217.904 123.303 217.879 123.166C217.854 123.029 217.843 122.866 217.843 122.678C217.843 122.491 217.854 122.323 217.879 122.181C217.904 122.039 217.94 121.921 217.976 121.836C218.016 121.744 218.066 121.678 218.133 121.642C218.199 121.602 218.27 121.581 218.346 121.581H231.712C231.788 121.581 231.859 121.602 231.924 121.642C231.991 121.678 232.042 121.744 232.087 121.836C232.133 121.921 232.163 122.039 232.184 122.181C232.204 122.323 232.215 122.491 232.215 122.678H232.215ZM265.959 139.774C265.959 139.957 265.949 140.114 265.928 140.246C265.907 140.379 265.872 140.49 265.827 140.581C265.776 140.672 265.72 140.734 265.654 140.774C265.588 140.815 265.517 140.835 265.436 140.835H256.195C255.967 140.835 255.749 140.759 255.546 140.607C255.343 140.449 255.241 140.18 255.241 139.794V122.623C255.241 122.236 255.343 121.968 255.546 121.81C255.749 121.657 255.967 121.581 256.195 121.581H265.329C265.411 121.581 265.482 121.602 265.548 121.642C265.614 121.684 265.664 121.744 265.705 121.836C265.74 121.927 265.776 122.039 265.801 122.171C265.827 122.303 265.837 122.47 265.837 122.668C265.837 122.851 265.827 123.003 265.801 123.141C265.776 123.272 265.74 123.384 265.705 123.47C265.664 123.552 265.608 123.613 265.548 123.653C265.482 123.693 265.411 123.714 265.329 123.714H257.799V129.746H264.264C264.345 129.746 264.416 129.766 264.482 129.812C264.543 129.857 264.598 129.919 264.645 130C264.69 130.081 264.721 130.188 264.741 130.325C264.761 130.467 264.772 130.63 264.772 130.818C264.772 131 264.761 131.153 264.741 131.279C264.721 131.411 264.69 131.513 264.645 131.594C264.598 131.676 264.543 131.732 264.482 131.767C264.416 131.802 264.345 131.817 264.264 131.817H257.799V138.703H265.436C265.517 138.703 265.588 138.723 265.654 138.764C265.72 138.804 265.776 138.865 265.827 138.946C265.872 139.032 265.907 139.144 265.928 139.277C265.949 139.409 265.959 139.576 265.959 139.774ZM300.342 139.713C300.342 139.916 300.331 140.084 300.311 140.216C300.291 140.348 300.261 140.464 300.215 140.56C300.169 140.652 300.119 140.723 300.052 140.769C299.987 140.815 299.911 140.835 299.819 140.835H291.31C291.082 140.835 290.863 140.759 290.66 140.607C290.456 140.449 290.356 140.18 290.356 139.794V121.968C290.356 121.887 290.376 121.816 290.416 121.76C290.456 121.698 290.523 121.653 290.624 121.617C290.721 121.581 290.858 121.552 291.026 121.525C291.193 121.5 291.396 121.49 291.634 121.49C291.883 121.49 292.086 121.5 292.254 121.525C292.415 121.552 292.547 121.581 292.644 121.617C292.745 121.653 292.812 121.698 292.853 121.76C292.892 121.816 292.913 121.887 292.913 121.968V138.611H299.819C299.911 138.611 299.987 138.632 300.052 138.677C300.114 138.723 300.169 138.789 300.215 138.87C300.261 138.956 300.291 139.068 300.311 139.21C300.331 139.347 300.342 139.515 300.342 139.713ZM66.547 127.223C66.547 128.188 66.3893 129.055 66.0696 129.832C65.7547 130.604 65.3033 131.265 64.7097 131.812C64.1216 132.356 63.4005 132.777 62.5426 133.077C61.6854 133.377 60.6654 133.524 59.4728 133.524H57.2908V140.449C57.2908 140.531 57.2707 140.601 57.2249 140.657C57.1798 140.719 57.1082 140.764 57.0165 140.799C56.9208 140.835 56.7933 140.866 56.6319 140.891C56.4639 140.916 56.2611 140.926 56.0129 140.926C55.7632 140.926 55.5601 140.916 55.3932 140.891C55.231 140.866 55.0995 140.835 55.0019 140.799C54.9012 140.764 54.8345 140.719 54.7939 140.657C54.7537 140.601 54.7335 140.531 54.7335 140.449V122.683C54.7335 122.287 54.8405 122.003 55.0484 121.836C55.256 121.668 55.4841 121.581 55.7431 121.581H59.8589C60.2748 121.581 60.6755 121.597 61.0567 121.632C61.4365 121.668 61.8885 121.744 62.4062 121.856C62.9286 121.973 63.456 122.186 63.999 122.495C64.5371 122.81 64.9944 123.196 65.3749 123.653C65.7498 124.11 66.0397 124.638 66.2428 125.237C66.4452 125.836 66.5469 126.502 66.5469 127.223H66.547ZM63.8674 127.426C63.8674 126.639 63.7202 125.984 63.431 125.456C63.137 124.933 62.7766 124.536 62.3395 124.278C61.9086 124.024 61.4622 123.856 61.0053 123.79C60.5435 123.72 60.0922 123.684 59.6558 123.684H57.2908V131.422H59.6003C60.3714 131.422 61.0161 131.32 61.5237 131.122C62.0354 130.924 62.4617 130.65 62.8124 130.295C63.1571 129.944 63.421 129.522 63.5987 129.03C63.7757 128.538 63.8674 128.004 63.8674 127.426V127.426ZM100.06 139.931C100.136 140.149 100.181 140.323 100.187 140.459C100.192 140.591 100.151 140.692 100.075 140.764C99.9938 140.83 99.8615 140.876 99.6785 140.896C99.497 140.916 99.2529 140.926 98.9432 140.926C98.6391 140.926 98.3898 140.921 98.2079 140.906C98.0253 140.891 97.8878 140.866 97.7912 140.83C97.6947 140.795 97.6295 140.748 97.5829 140.688C97.5378 140.627 97.4965 140.556 97.4558 140.464L95.8075 135.778H87.8103L86.232 140.403C86.2007 140.495 86.1656 140.571 86.1149 140.637C86.0646 140.703 85.9931 140.754 85.8966 140.799C85.8056 140.845 85.6685 140.876 85.4967 140.896C85.3234 140.916 85.1002 140.926 84.821 140.926C84.5322 140.926 84.2982 140.916 84.1159 140.891C83.9329 140.866 83.8014 140.82 83.7302 140.748C83.6538 140.678 83.6184 140.576 83.6236 140.444C83.6288 140.307 83.6695 140.134 83.7503 139.916L90.2006 122.028C90.2408 121.917 90.2964 121.825 90.3571 121.76C90.4238 121.688 90.514 121.632 90.6411 121.597C90.7637 121.556 90.9202 121.525 91.1185 121.51C91.3115 121.496 91.5549 121.49 91.8538 121.49C92.1687 121.49 92.4325 121.496 92.6409 121.51C92.8484 121.525 93.0158 121.556 93.1429 121.597C93.2752 121.632 93.3713 121.693 93.4421 121.764C93.5137 121.841 93.5696 121.932 93.6046 122.039L100.06 139.931V139.931ZM91.7782 124.141H91.7629L88.4498 133.737H95.1371L91.7782 124.141H91.7782Z" fill="white"/>
<path fill-rule="evenodd" clip-rule="evenodd" d="M31.4764 150.129L35.7901 158.153L44.7487 159.778L38.4561 166.362L39.6796 175.39L31.4764 171.436L23.2742 175.39L24.4973 166.362L18.2047 159.778L27.1631 158.153L31.4764 150.129Z" fill="white"/>
<path fill-rule="evenodd" clip-rule="evenodd" d="M117.819 150.129C119.257 152.803 120.694 155.477 122.132 158.152C125.118 158.694 128.104 159.235 131.09 159.778C128.993 161.972 126.895 164.167 124.797 166.362C125.205 169.371 125.613 172.38 126.021 175.39C123.287 174.072 120.553 172.754 117.819 171.436C115.084 172.754 112.349 174.072 109.615 175.39C110.023 172.38 110.431 169.371 110.839 166.362C108.741 164.167 106.643 161.972 104.547 159.778C107.532 159.235 110.518 158.694 113.505 158.152C114.942 155.477 116.38 152.803 117.819 150.129Z" fill="white"/>
<path fill-rule="evenodd" clip-rule="evenodd" d="M204.158 150.129C205.596 152.803 207.034 155.477 208.472 158.152C211.458 158.694 214.444 159.235 217.43 159.778C215.333 161.972 213.235 164.167 211.137 166.362C211.545 169.371 211.952 172.38 212.361 175.39C209.627 174.072 206.893 172.754 204.158 171.436C201.424 172.754 198.689 174.072 195.955 175.39C196.363 172.38 196.77 169.371 197.179 166.362C195.081 164.167 192.984 161.972 190.886 159.778C193.872 159.235 196.858 158.694 199.844 158.152C201.283 155.477 202.721 152.803 204.158 150.129H204.158Z" fill="white"/>
<path fill-rule="evenodd" clip-rule="evenodd" d="M290.501 150.129L294.815 158.153L303.775 159.778L297.48 166.362L298.705 175.39L290.501 171.436L282.298 175.39L283.523 166.362L277.231 159.778L286.187 158.153L290.501 150.129Z" fill="white"/>
</svg>
