<svg width="19" height="17" viewBox="0 0 19 17" fill="none" xmlns="http://www.w3.org/2000/svg">
<path fill-rule="evenodd" clip-rule="evenodd" d="M14.8105 0.589355H4.59C2.38086 0.589355 0.589996 2.38022 0.589996 4.58936V12.8634C0.589996 15.0725 2.38086 16.8634 4.58999 16.8634H14.8105C17.0196 16.8634 18.8105 15.0725 18.8105 12.8634V4.58936C18.8105 2.38022 17.0196 0.589355 14.8105 0.589355ZM1.59 4.58936C1.59 2.9325 2.93314 1.58936 4.59 1.58936H14.8105C16.4673 1.58936 17.8105 2.9325 17.8105 4.58936V12.8634C17.8105 14.1495 17.0012 15.2466 15.864 15.6732V14.3225C15.864 12.2731 11.7574 11.2407 9.70024 11.2407C7.64308 11.2407 3.53646 12.2731 3.53646 14.3225V15.6732C2.39932 15.2466 1.59 14.1495 1.59 12.8634V4.58936ZM12.7821 6.61782C12.7821 8.32056 11.403 9.69971 9.70024 9.69971C7.99749 9.69971 6.61835 8.32056 6.61835 6.61782C6.61835 4.91507 7.99749 3.53592 9.70024 3.53592C11.403 3.53592 12.7821 4.91507 12.7821 6.61782Z" fill="black" fill-opacity="0.5"/>
</svg>
