<svg width="52" height="54" viewBox="0 0 52 54" fill="none" xmlns="http://www.w3.org/2000/svg">
<path d="M2.28995 26.4528L0 26.4609L0.0282399 25.1505L0.118881 23.8546L0.271085 22.5762L0.483127 21.3149L0.752931 20.0751L1.08129 18.8553L1.46436 17.6607L1.90087 16.4918L2.38912 15.3481L2.92957 14.2322L3.51827 13.1471L4.15617 12.0927L4.84069 11.0718L5.56922 10.0854L6.34182 9.13496L7.15715 8.22214L8.01266 7.3478L8.90665 6.51625L9.84087 5.72483L10.8084 4.98007L11.8119 4.27929L12.8487 3.6239L13.9188 3.01932L15.0172 2.46566L16.1463 1.96243L17.3033 1.51267L18.4859 1.11886L19.6924 0.781127L20.9216 0.500628L22.1735 0.281736L23.4441 0.124406L24.7332 0.0294773L24.8427 2.34895L23.6656 2.43574L22.5074 2.57982L21.3676 2.77988L20.2478 3.03342L19.1481 3.34172L18.0699 3.70084L17.0168 4.11043L15.989 4.56832L14.9868 5.07412L14.0125 5.62522L13.0663 6.22166L12.1509 6.86083L11.2659 7.54151L10.4142 8.26363L9.59758 9.02293L8.8169 9.81992L8.07338 10.6528L7.36751 11.5202L6.70266 12.4211L6.07931 13.3515L5.49741 14.3151L4.95957 15.3041L4.46703 16.3212L4.02107 17.3635L3.62217 18.4311L3.27375 19.5188L2.97487 20.6292L2.72946 21.7596L2.5358 22.9088L2.39681 24.0752L2.3139 25.2565L2.28867 26.4524L2.28995 26.4528V26.4528ZM0 26.4609L2.28995 26.4528L2.28867 26.5127L2.28482 26.5712L2.27669 26.6285L2.26728 26.6858L2.25402 26.7418L2.23948 26.7978L2.22198 26.8513L2.20059 26.9047L2.17792 26.9556L2.15268 27.0064L2.12621 27.0543L2.09669 27.1022L2.06465 27.1475L2.03 27.1916L1.99535 27.2343L1.95646 27.2745L1.91757 27.3134L1.87607 27.3506L1.83206 27.3853L1.788 27.4173L1.74141 27.4481L1.69351 27.4763L1.64437 27.5015L1.59345 27.5255L1.54131 27.5456L1.48916 27.5644L1.43444 27.5802L1.37969 27.5935L1.32241 27.6042L1.26638 27.611L1.20782 27.6161L1.14926 27.6174L1.09066 27.6161L1.0321 27.6123L0.974828 27.6042L0.91879 27.5947L0.864078 27.5815L0.809366 27.5657L0.755892 27.5482L0.703743 27.5268L0.652876 27.5041L0.603688 27.4789L0.555826 27.4507L0.509202 27.4212L0.463903 27.3891L0.421123 27.3545L0.378388 27.3186L0.339453 27.2796L0.300562 27.2395L0.264633 27.1967L0.230029 27.1539L0.197944 27.1086L0.168467 27.0607L0.140227 27.0129L0.114992 26.9637L0.0910835 26.9115L0.0709753 26.8594L0.0521488 26.8046L0.037609 26.7499L0.0243508 26.6939L0.0137001 26.6366L0.00685005 26.5793L0.00172356 26.5207L0.000441939 26.4609H0V26.4609ZM4.9711 38.065L2.72902 37.5951L2.83035 38.3582L2.66361 38.0217L2.50199 37.6815L2.34594 37.3398L2.19374 36.9969L2.04582 36.6498L1.90299 36.2988L1.76532 35.9477L1.63195 35.5941L1.5037 35.238L1.37969 34.8776L1.26213 34.5159L1.14754 34.1516L1.03935 33.7848L0.936733 33.4179L0.839286 33.0481L0.745639 32.6757L0.65756 32.3008L0.574609 31.9232L0.497225 31.5427L0.426692 31.1635L0.360003 30.7804L0.300121 30.3948L0.244127 30.0091L0.194939 29.6209L0.150922 29.234L0.111987 28.8415L0.0786651 28.4477L0.0521488 28.0526L0.0294773 27.6576L0.0149375 27.2587L0.0042868 26.8598L0.000397745 26.4609L2.29035 26.4528L2.29419 26.8196L2.30232 27.1839L2.31686 27.5456L2.33697 27.9086L2.36092 28.269L2.39168 28.6251L2.42761 28.983L2.46907 29.3408L2.51313 29.6944L2.564 30.0455L2.61871 30.3965L2.68027 30.7449L2.74572 31.0921L2.81497 31.4375L2.88979 31.7804L2.96974 32.1208L3.05525 32.4611L3.14461 32.7989L3.2395 33.1366L3.33699 33.4688L3.44089 33.801L3.54779 34.1307L3.66106 34.4565L3.77866 34.7835L3.89878 35.105L4.0258 35.4266L4.15533 35.7455L4.28999 36.0606L4.42893 36.377L4.57177 36.6866L4.71968 36.9948L4.87061 37.3018L4.97194 38.065H4.9711V38.065ZM2.83079 38.3587L4.87016 37.3018L4.8954 37.3552L4.91807 37.41L4.9369 37.466L4.9544 37.5207L4.96766 37.5767L4.97835 37.6327L4.98648 37.69L4.99161 37.746L4.99417 37.802V37.858L4.99161 37.914L4.98648 37.97L4.97835 38.026L4.96766 38.0808L4.9544 38.1342L4.93986 38.1877L4.92107 38.2411L4.89968 38.292L4.87701 38.3429L4.85178 38.3937L4.82358 38.4416L4.79406 38.4882L4.76074 38.5336L4.72609 38.5776L4.69016 38.6204L4.64999 38.6618L4.60854 38.7007L4.56576 38.7379L4.52046 38.7726L4.47255 38.8059L4.42341 38.8367L4.37121 38.8649L4.31778 38.8901L4.26435 38.9128L4.2096 38.9329L4.15489 38.9504L4.10017 38.9637L4.04546 38.9756L3.98942 38.9838L3.93343 38.9889L3.87872 38.9915H3.82268L3.76797 38.9889L3.71326 38.9838L3.6585 38.9756L3.60379 38.9649L3.55036 38.9517L3.49817 38.9359L3.44602 38.9171L3.39515 38.8957L3.34428 38.873L3.29638 38.8465L3.24851 38.8183L3.20189 38.7875L3.15659 38.7555L3.11381 38.7195L3.07108 38.6823L3.03086 38.6434L2.99197 38.6007L2.95604 38.5566L2.92144 38.51L2.88935 38.4621L2.85855 38.4113L2.83035 38.3591L2.83079 38.3587V38.3587ZM0.0906416 50.5917L2.72902 37.5955L4.9711 38.0654L2.33268 51.0615V51.0628L0.0906416 50.5917V50.5917ZM0.0906416 50.5917L2.33268 51.0615L2.31943 51.1201L2.30361 51.1761L2.28482 51.2321L2.26343 51.2856L2.23948 51.3377L2.21425 51.3886L2.18605 51.4378L2.15525 51.4857L2.12192 51.531L2.08728 51.575L2.05135 51.6165L2.01246 51.6567L1.97228 51.6956L1.9295 51.7302L1.88549 51.7648L1.84143 51.7969L1.79485 51.8264L1.74694 51.8529L1.6978 51.8782L1.64688 51.9008L1.59474 51.9209L1.54259 51.9384L1.48916 51.953L1.4344 51.965L1.37969 51.9757L1.32369 51.9825L1.26766 51.9863L1.21166 51.9876L1.15439 51.9863L1.09707 51.9825L1.03851 51.9744L0.981192 51.9637L0.923917 51.9504L0.867923 51.9346L0.813167 51.9145L0.761018 51.8931L0.70887 51.8692L0.658002 51.8427L0.610096 51.8144L0.563516 51.7837L0.518173 51.7503L0.475438 51.7144L0.43394 51.6772L0.393767 51.6383L0.356556 51.5968L0.321952 51.5541L0.288586 51.51L0.256501 51.4647L0.227024 51.4168L0.200508 51.369L0.176554 51.3198L0.153883 51.2676L0.133819 51.2155L0.116274 51.162L0.101734 51.1086L0.0897577 51.0526L0.0803886 50.9965L0.0735386 50.9405L0.0684121 50.8833L0.0671305 50.8259L0.0684121 50.7687L0.0735386 50.7101L0.0803886 50.6515L0.0910394 50.593L0.0906416 50.5917V50.5917ZM2.11808 50.8491L2.64651 53.1099L2.51569 53.1364L2.3729 53.1578L2.2275 53.1672H2.09284L1.95686 53.1578L1.83418 53.142L1.69651 53.1167L1.56309 53.0809L1.45239 53.0449L1.31897 52.9915L1.20269 52.9355L1.10136 52.8795L0.981192 52.8034L0.882463 52.7311L0.784971 52.6524L0.688761 52.5631L0.596838 52.4669L0.511323 52.3643L0.443353 52.2737L0.371096 52.1667L0.300562 52.0441L0.24585 51.932L0.193657 51.8132L0.147077 51.6785L0.111148 51.5545L0.0829519 51.425L0.061562 51.286L0.0508671 51.159L0.0457406 51.0213L0.0525907 50.8598L0.0684121 50.7251L0.0910394 50.5904L2.33313 51.0628L2.33441 51.059V51.0551L2.33569 51.0218V51.0098V51.0085L2.33313 50.9927L2.33184 50.9833L2.328 50.9739L2.32115 50.9538L2.31731 50.9444L2.31602 50.9418L2.30405 50.9204L2.29892 50.9123L2.30277 50.9175L2.29207 50.9055L2.28266 50.8948L2.27196 50.8854L2.26812 50.8815L2.26299 50.879L2.24421 50.867H2.24677L2.23736 50.8644L2.21341 50.8537L2.21725 50.855L2.19842 50.8512L2.18092 50.8473H2.17836L2.1651 50.8461H2.15569L2.13558 50.8473L2.12104 50.8499H2.11848L2.11808 50.8491V50.8491ZM2.64651 53.1099L2.11808 50.8491L2.17535 50.8371L2.23263 50.8277L2.28995 50.8208L2.34722 50.8183L2.4045 50.817L2.46054 50.8195L2.51653 50.8247L2.57252 50.8328L2.62728 50.8448L2.68071 50.858L2.73414 50.8739L2.78633 50.8914L2.8372 50.9127L2.88635 50.9367L2.93553 50.9619L2.98344 50.9901L3.02874 51.0209L3.07275 51.053L3.11682 51.0876L3.15827 51.1248L3.19849 51.1637L3.23565 51.2052L3.27158 51.248L3.30495 51.292L3.33699 51.3386L3.36779 51.3865L3.39431 51.4374L3.4195 51.4895L3.44217 51.543L3.46356 51.5977L3.48106 51.6537L3.4956 51.711L3.50758 51.7696L3.51699 51.8281L3.52212 51.8854L3.52596 51.944V52.0013L3.5234 52.0586L3.51827 52.1146L3.51014 52.1706L3.49945 52.2266L3.48623 52.2813L3.47169 52.3348L3.45287 52.3882L3.43148 52.4391L3.40885 52.49L3.38361 52.5391L3.35537 52.587L3.3259 52.6349L3.29381 52.679L3.25921 52.723L3.22328 52.7658L3.18434 52.8059L3.14417 52.8449L3.10144 52.8807L3.05738 52.9154L3.01208 52.9474L2.96417 52.9782L2.91503 53.0064L2.86412 53.0317L2.81197 53.0556L2.75725 53.0757L2.7025 53.0945L2.64522 53.109L2.64651 53.1099V53.1099ZM15.1997 50.0936L2.64651 53.1099L2.11808 50.8491L14.6713 47.8327L15.4469 47.9233L15.2001 50.0936H15.1997V50.0936ZM15.1997 50.0936L14.6713 47.8327L14.7286 47.8207L14.7859 47.8113L14.8431 47.8045L14.9004 47.8019L14.9577 47.8006L15.0137 47.8032L15.0698 47.8083L15.1257 47.8164L15.1805 47.8284L15.2339 47.8417L15.2874 47.8575L15.3395 47.875L15.3904 47.8964L15.4396 47.9203L15.4888 47.9456L15.5366 47.9738L15.582 48.0046L15.626 48.0367L15.67 48.0713L15.7115 48.1085L15.7517 48.1474L15.7889 48.1889L15.8248 48.2316L15.8581 48.2757L15.8902 48.3222L15.921 48.3701L15.9475 48.421L15.9727 48.4732L15.9954 48.5266L16.0167 48.5813L16.0343 48.6373L16.0488 48.6947L16.0608 48.7532L16.0702 48.8118L16.0753 48.8691L16.0792 48.9276V48.9849L16.0766 49.0422L16.0715 49.0982L16.0634 49.1542L16.0527 49.2103L16.0394 49.265L16.0249 49.3184L16.0061 49.3719L15.9847 49.4228L15.962 49.4736L15.9368 49.5228L15.9086 49.5707L15.8791 49.6186L15.847 49.6626L15.8124 49.7067L15.7765 49.7494L15.7376 49.7896L15.6974 49.8285L15.6546 49.8644L15.6106 49.899L15.5653 49.9311L15.5174 49.9619L15.4682 49.9901L15.4173 50.0153L15.3652 50.0393L15.3104 50.0594L15.2557 50.0782L15.1984 50.0927L15.1997 50.0936V50.0936ZM25.6331 50.4313L25.5985 52.7533L25.2236 52.7452L24.8486 52.7307L24.4775 52.7119L24.1051 52.6879L23.734 52.6572L23.3684 52.6225L23.0016 52.5823L22.6373 52.537L22.273 52.4861L21.9101 52.4314L21.5496 52.3715L21.1892 52.3049L20.8331 52.2343L20.4795 52.1595L20.1259 52.0795L19.7736 51.994L19.4251 51.9047L19.0754 51.8097L18.73 51.711L18.3858 51.6054L18.0442 51.4972L17.7038 51.3839L17.3661 51.2651L17.0326 51.1436L16.6961 51.0154L16.3652 50.8833L16.0368 50.7486L15.7111 50.6071L15.3853 50.4643L15.0608 50.3133L14.7405 50.1599L14.4241 50.0025L15.4464 47.9233L15.7358 48.0674L16.0266 48.2076L16.319 48.3423L16.6153 48.4744L16.9142 48.6027L17.2156 48.7267L17.517 48.8481L17.8184 48.9627L18.1254 49.0734L18.4337 49.1816L18.742 49.2842L19.0541 49.3843L19.3692 49.4792L19.683 49.5698L20.0006 49.6566L20.3196 49.7379L20.6398 49.8152L20.9613 49.8875L21.2884 49.9567L21.6129 50.0222L21.9387 50.0808L22.2671 50.1355L22.598 50.1876L22.9276 50.233L23.2624 50.2731L23.5972 50.3103L23.9337 50.3424L24.2701 50.3706L24.6079 50.392L24.9495 50.4108L25.2898 50.4228L25.6327 50.4309L25.6331 50.4313V50.4313ZM25.5985 52.7538L25.6331 50.4317L25.6917 50.4343L25.7503 50.4395L25.8063 50.4476L25.8623 50.4583L25.9183 50.4728L25.9718 50.4886L26.0252 50.5074L26.0774 50.5288L26.1266 50.5527L26.1757 50.5793L26.2236 50.6088L26.2689 50.6395L26.313 50.6729L26.3557 50.7075L26.3972 50.7447L26.4374 50.7836L26.4733 50.8251L26.5092 50.8678L26.5426 50.9119L26.5733 50.9585L26.6028 51.0051L26.6294 51.0543L26.6546 51.1052L26.6759 51.1573L26.6961 51.2095L26.7136 51.2642L26.7281 51.3189L26.7401 51.3762L26.7495 51.4322L26.7563 51.4908L26.7602 51.5494V51.6092L26.7576 51.6691L26.7525 51.7276L26.7444 51.785L26.7337 51.8422L26.7204 51.8983L26.7046 51.953L26.6845 52.0064L26.6631 52.0586L26.6405 52.1108L26.6139 52.1599L26.5857 52.2078L26.5549 52.2544L26.5229 52.2997L26.4883 52.3425L26.451 52.384L26.4122 52.4241L26.372 52.4613L26.3292 52.4972L26.2865 52.5319L26.2411 52.5627L26.1933 52.5934L26.1454 52.62L26.0962 52.6452L26.0453 52.6678L25.9919 52.6879L25.9384 52.7055L25.885 52.72L25.829 52.732L25.773 52.7414L25.7157 52.7482L25.6571 52.7521H25.5985V52.7538V52.7538ZM49.7054 27.148L51.9928 27.2202L51.9192 28.5563L51.7789 29.8736L51.5776 31.1708L51.3134 32.4478L50.9876 33.6997L50.6045 34.9276L50.1667 36.1273L49.6716 37.2992L49.1243 38.4391L48.5249 39.5507L47.875 40.6264L47.1785 41.6675L46.4325 42.6722L45.6449 43.6398L44.8108 44.5658L43.9365 45.4522L43.0224 46.2957L42.0694 47.0965L41.0792 47.8494L40.0543 48.5553L38.9949 49.2133L37.9034 49.8191L36.7823 50.3745L35.6318 50.8751L34.4547 51.3211L33.2525 51.708L32.0271 52.0389L30.7778 52.3087L29.5072 52.5169L28.2207 52.661L26.9167 52.7422L25.5981 52.7542L25.6327 50.4322L26.8367 50.4202L28.0257 50.3467L29.2002 50.2159L30.3558 50.0265L31.4931 49.7811L32.6116 49.4796L33.7074 49.1248L34.7805 48.719L35.8293 48.2641L36.8516 47.757L37.8473 47.2047L38.8136 46.6052L39.7478 45.9605L40.6525 45.2717L41.5225 44.5432L42.3567 43.7719L43.1562 42.963L43.9155 42.1168L44.6364 41.2348L45.3157 40.3182L45.9511 39.3677L46.5449 38.3856L47.0909 37.3753L47.5898 36.3343L48.0397 35.2667L48.4398 34.1734L48.7883 33.055L49.0846 31.9151L49.3249 30.7526L49.5104 29.57L49.6374 28.3678L49.7054 27.1493V27.148V27.148ZM51.9928 27.2202L49.7054 27.148L49.7079 27.0881L49.7148 27.0295L49.7241 26.9723L49.7361 26.9149L49.7494 26.8602L49.7669 26.8055L49.787 26.752L49.8097 26.6999L49.8336 26.649L49.8601 26.5998L49.8896 26.552L49.9204 26.5066L49.9538 26.4613L49.9897 26.4186L50.0269 26.3784L50.0658 26.3382L50.1073 26.301L50.15 26.2664L50.1941 26.233L50.2394 26.2022L50.2873 26.1727L50.3351 26.1475L50.386 26.1236L50.4369 26.1009L50.4903 26.0821L50.5438 26.0646L50.5985 26.0513L50.6545 26.0406L50.7105 26.0312L50.7678 26.0261L50.8264 26.0235H50.8849L50.9435 26.0261L51.0008 26.0329L51.0581 26.0423L51.1141 26.0543L51.1688 26.0689L51.2223 26.0864L51.2758 26.1065L51.3266 26.1291L51.3775 26.153L51.4254 26.1813L51.472 26.2108L51.5173 26.2416L51.5613 26.2762L51.6041 26.3121L51.6443 26.3493L51.6832 26.3895L51.7191 26.431L51.7538 26.4737L51.7858 26.5191L51.8166 26.5656L51.8448 26.6135L51.8713 26.6627L51.8953 26.7136L51.9166 26.7657L51.9354 26.8192L51.9513 26.8739L51.9645 26.9299L51.9765 26.9859L51.9846 27.0432L51.9897 27.1018L51.9923 27.1604V27.2202H51.9928V27.2202ZM24.8434 2.35023L24.734 0.0307589L26.1513 0L27.5498 0.0452987L28.9312 0.16418L30.29 0.354877L31.6287 0.617786L32.9391 0.947428L34.223 1.34376L35.4787 1.80554L36.7023 2.32884L37.8939 2.91202L39.0496 3.55376L40.1706 4.2545L41.2515 5.00743L42.2926 5.81507L43.2921 6.67314L44.2465 7.58084L45.1554 8.53512L46.0161 9.53474L46.8275 10.5771L47.5868 11.6622L48.2928 12.7871L48.9426 13.9496L49.5365 15.1467L50.0718 16.3785L50.5442 17.6436L50.9568 18.9369L51.3023 20.2594L51.581 21.6074L51.7918 22.9794L51.9307 24.3741L52 25.7888L51.9919 27.2207L49.7045 27.1484L49.7096 25.8393L49.648 24.5472L49.5198 23.2753L49.3278 22.0234L49.073 20.7955L48.7592 19.5902L48.3842 18.4119L47.952 17.2588L47.465 16.1365L46.9246 15.0432L46.3307 13.9851L45.686 12.959L44.9934 11.97L44.2541 11.0183L43.4679 10.1068L42.6393 9.23546L41.7679 8.40815L40.8564 7.6249L39.906 6.88951L38.9209 6.20071L37.8986 5.5641L36.8443 4.97835L35.7592 4.44608L34.642 3.96808L33.4983 3.54908L32.3294 3.18739L31.1336 2.88723L29.915 2.64823L28.6764 2.47335L27.4152 2.36521L26.1368 2.32243L24.8422 2.35067L24.8435 2.35023H24.8434ZM24.734 0.0307589L24.8434 2.35023L24.7849 2.35151L24.7263 2.35023L24.669 2.3451L24.613 2.33825L24.557 2.32756L24.501 2.3143L24.4476 2.29976L24.3941 2.28098L24.3419 2.25959L24.2928 2.23692L24.2436 2.21168L24.1957 2.18349L24.1491 2.15268L24.1038 2.12064L24.061 2.08599L24.0196 2.05006L23.9794 2.01117L23.9422 1.971L23.9063 1.92822L23.8717 1.88421L23.8396 1.83886L23.8101 1.79228L23.7819 1.74309L23.7566 1.69395L23.734 1.64176L23.7139 1.58833L23.6951 1.5349L23.6805 1.4789L23.6673 1.42287L23.6579 1.36431L23.6498 1.30699L23.6459 1.24715L23.6446 1.18731L23.6459 1.12871L23.6511 1.07015L23.6579 1.01283L23.6686 0.956841L23.6818 0.900848L23.6964 0.846092L23.7152 0.792661L23.7353 0.739231L23.7579 0.688364L23.7831 0.639176L23.8114 0.590032L23.8409 0.543408L23.8729 0.498109L23.9063 0.454048L23.9422 0.411312L23.9811 0.371096L24.0213 0.332205L24.0628 0.296276L24.1055 0.261672L24.1508 0.229587L24.1975 0.198784L24.2453 0.170588L24.2945 0.145354L24.3454 0.121401L24.3975 0.101337L24.451 0.0825099L24.5057 0.0666885L24.5617 0.0534304L24.619 0.0440171L24.6763 0.0359296L24.7349 0.0320406L24.734 0.0307589V0.0307589Z" fill="#403F41"/>
<path fill-rule="evenodd" clip-rule="evenodd" d="M38.0663 31.8472L33.2513 30.4444C32.6173 30.2601 31.9366 30.4419 31.4748 30.9194L30.2978 32.1354C29.8014 32.6493 29.0472 32.8135 28.3905 32.5437C26.1125 31.6095 21.321 27.2865 20.0974 25.1261C19.7451 24.5015 19.8024 23.7221 20.2363 23.1535L21.2642 21.8041C21.6673 21.2757 21.7524 20.5655 21.4856 19.9545L19.4599 15.3063C18.9755 14.1934 17.5727 13.8688 16.6574 14.6551C15.3136 15.8082 13.7184 17.5607 13.5251 19.5022C13.1835 22.9243 14.6303 27.2387 20.1008 32.4184C26.4212 38.4041 31.4834 39.1942 34.7785 38.384C36.6481 37.9248 38.1416 36.0834 39.0839 34.5762C39.7273 33.5471 39.2198 32.1833 38.0668 31.8472H38.0663V31.8472Z" fill="#403F41"/>
</svg>
