<svg width="26" height="26" viewBox="0 0 26 26" fill="none" xmlns="http://www.w3.org/2000/svg">
<g opacity="0.85">
<path d="M15.1668 1.29999H10.8335C10.5943 1.29999 10.4001 1.49412 10.4001 1.7333C10.4001 1.97248 10.5943 2.16662 10.8335 2.16662H15.1668C15.406 2.16662 15.6001 1.97248 15.6001 1.7333C15.6001 1.49412 15.406 1.29999 15.1668 1.29999Z" fill="white"/>
<path d="M18.2 1.29999H17.7667C17.5275 1.29999 17.3334 1.49412 17.3334 1.7333C17.3334 1.97248 17.5275 2.16662 17.7667 2.16662H18.2C18.4392 2.16662 18.6333 1.97248 18.6333 1.7333C18.6333 1.49412 18.4392 1.29999 18.2 1.29999Z" fill="white"/>
<path d="M13.538 22.1H12.4621C11.803 22.1 11.2665 22.6365 11.2665 23.2955V23.5049C11.2665 24.164 11.803 24.7 12.4617 24.7H13.5376C14.1967 24.7 14.7332 24.164 14.7332 23.5049V23.2955C14.7332 22.6365 14.1967 22.1 13.538 22.1ZM13.8665 23.5049C13.8665 23.686 13.7192 23.8333 13.5381 23.8333H12.4621C12.2805 23.8333 12.1332 23.686 12.1332 23.5049V23.2955C12.1332 23.114 12.2805 22.9666 12.4621 22.9666H13.5376C13.7192 22.9666 13.8665 23.114 13.8665 23.2955V23.5049Z" fill="white"/>
<path d="M18.8004 0H7.19962C6.33598 0 5.63312 0.702863 5.63312 1.5665V24.4335C5.63312 25.2971 6.33598 26 7.19962 26H18.7999C19.6636 26 20.3664 25.2971 20.3664 24.434V1.5665C20.3665 0.702863 19.6636 0 18.8004 0ZM19.4998 24.4335C19.4998 24.8192 19.1861 25.1333 18.8004 25.1333H7.19962C6.81353 25.1333 6.4998 24.8191 6.4998 24.4339V1.5665C6.4998 1.18082 6.81353 0.866684 7.19962 0.866684H18.7999C19.186 0.866684 19.4997 1.18087 19.4997 1.5665V24.4335H19.4998Z" fill="white"/>
<path d="M19.9336 2.60001H6.06692C5.82774 2.60001 5.63361 2.79414 5.63361 3.03332V21.2333C5.63361 21.4725 5.82774 21.6666 6.06692 21.6666H19.9336C20.1728 21.6666 20.3669 21.4725 20.3669 21.2333V3.03332C20.3669 2.79414 20.1728 2.60001 19.9336 2.60001ZM19.5002 20.8H6.50024V3.46669H19.5002V20.8Z" fill="white"/>
</g>
</svg>
