<svg width="66" height="66" viewBox="0 0 66 66" fill="none" xmlns="http://www.w3.org/2000/svg">
<path d="M33.5 15.75C32.9779 15.75 32.4771 15.5426 32.1079 15.1734C31.7387 14.8042 31.5312 14.3034 31.5312 13.7812V9.84375C31.5312 9.3216 31.7387 8.82085 32.1079 8.45163C32.4771 8.08242 32.9779 7.875 33.5 7.875C34.0221 7.875 34.5229 8.08242 34.8921 8.45163C35.2613 8.82085 35.4688 9.3216 35.4688 9.84375V13.7812C35.4688 14.3034 35.2613 14.8042 34.8921 15.1734C34.5229 15.5426 34.0221 15.75 33.5 15.75Z" fill="#996600"/>
<path d="M29.5625 55.125C27.9961 55.125 26.4938 54.5027 25.3861 53.3951C24.2785 52.2875 23.6562 50.7852 23.6562 49.2188V45.2812C23.6562 44.7591 23.8637 44.2583 24.2329 43.8891C24.6021 43.5199 25.1029 43.3125 25.625 43.3125C26.1471 43.3125 26.6479 43.5199 27.0171 43.8891C27.3863 44.2583 27.5938 44.7591 27.5938 45.2812V49.2188C27.5938 49.7409 27.8012 50.2417 28.1704 50.6109C28.5396 50.9801 29.0404 51.1875 29.5625 51.1875C30.0846 51.1875 30.5854 50.9801 30.9546 50.6109C31.3238 50.2417 31.5312 49.7409 31.5312 49.2188V31.5C31.5312 30.9779 31.7387 30.4771 32.1079 30.1079C32.4771 29.7387 32.9779 29.5312 33.5 29.5312C34.0221 29.5312 34.5229 29.7387 34.8921 30.1079C35.2613 30.4771 35.4688 30.9779 35.4688 31.5V49.2188C35.4688 50.7852 34.8465 52.2875 33.7389 53.3951C32.6312 54.5027 31.1289 55.125 29.5625 55.125Z" fill="#996600"/>
<path d="M33.5 11.8125C28.2786 11.8125 23.271 13.8867 19.5788 17.5788C15.8867 21.271 13.8125 26.2786 13.8125 31.5C13.8125 32.0221 14.0199 32.5229 14.3891 32.8921C14.7583 33.2613 15.2591 33.4688 15.7812 33.4688H51.2188C51.7409 33.4688 52.2417 33.2613 52.6109 32.8921C52.9801 32.5229 53.1875 32.0221 53.1875 31.5C53.1875 26.2786 51.1133 21.271 47.4212 17.5788C43.729 13.8867 38.7214 11.8125 33.5 11.8125Z" fill="#996600"/>
<path d="M16.5 30.5C13.5 29.5 22.5 13.9998 30 14C37.5 14.0002 26 29.5 24.5 30.5C23 31.5 19.5 31.5 16.5 30.5Z" fill="url(#paint0_linear_48_233)"/>
<path d="M35 22.9999C34.5 21 34 16.4999 36 13.5002C38 10.5004 52 28.5004 50.75 31.0002C49.5 33.5 43.8995 33.1136 40.5 31.0002C37.0137 28.8327 35.5 24.9999 35 22.9999Z" fill="url(#paint1_linear_48_233)"/>
<path d="M30 14.9998C34 11.9996 36.5 13.9996 37 16.4996C37.5 18.9996 42.5 30.4998 39 30.9998C35.5 31.4998 32.5 31.9998 29 30.9998C25.5 29.9998 26 18 30 14.9998Z" fill="url(#paint2_linear_48_233)"/>
<circle cx="33" cy="33" r="32" stroke="#996600" stroke-width="2"/>
<defs>
<linearGradient id="paint0_linear_48_233" x1="17.5" y1="17" x2="27" y2="20" gradientUnits="userSpaceOnUse">
<stop stop-color="white"/>
<stop offset="1" stop-color="white" stop-opacity="0"/>
</linearGradient>
<linearGradient id="paint1_linear_48_233" x1="31" y1="22.5" x2="37.5" y2="21.5" gradientUnits="userSpaceOnUse">
<stop stop-color="white"/>
<stop offset="1" stop-color="white" stop-opacity="0"/>
</linearGradient>
<linearGradient id="paint2_linear_48_233" x1="20" y1="14.5" x2="35.5" y2="21" gradientUnits="userSpaceOnUse">
<stop stop-color="white"/>
<stop offset="1" stop-color="white" stop-opacity="0"/>
</linearGradient>
</defs>
</svg>
