<svg width="71" height="79" viewBox="0 0 71 79" fill="none" xmlns="http://www.w3.org/2000/svg">
<path fill-rule="evenodd" clip-rule="evenodd" d="M63.6507 44.8593C65.1645 41.2061 66 37.2006 66 33C66 15.8792 52.1208 2 35 2C17.8792 2 4 15.8792 4 33C4 37.4506 4.93791 41.6822 6.62686 45.5079C5.99857 45.743 5.37235 45.9773 4.75024 46.21C2.98136 42.1651 2 37.6971 2 33C2 14.7746 16.7746 0 35 0C53.2254 0 68 14.7746 68 33C68 37.3818 67.146 41.5641 65.5953 45.3896L63.6507 44.8593Z" fill="#996600"/>
<path d="M63.3348 53.1933L63.3339 53.1927C63.1483 53.0513 62.965 52.9092 62.7817 52.7671C61.1674 51.5156 59.5466 50.2591 56.2668 49.4724C55.458 49.2784 54.7652 49.0254 54.3045 48.8049C54.1071 48.7104 53.8453 48.5728 53.6596 48.3983C53.6094 48.3511 53.5112 48.2527 53.4318 48.1057C53.357 47.9674 53.2106 47.6119 53.3914 47.1994C53.5654 46.802 53.9079 46.6666 54.0394 46.6262C54.1891 46.5802 54.3206 46.5757 54.3902 46.5757L54.4621 46.5757L54.5332 46.586C60.4252 47.4372 63.925 48.8855 65.9767 50.3927C68.0379 51.907 68.6717 53.5165 68.6717 54.5936C68.6717 56.9235 66.8798 58.9874 64.0535 60.5242L64.0534 60.5243C58.4882 63.5496 47.5256 65.578 35.076 65.578C22.6286 65.578 11.666 63.5495 6.10077 60.5243L6.10068 60.5242C5.34777 60.1148 4.20804 59.3359 3.21385 58.3579C2.25035 57.4102 1.25495 56.1119 1.10216 54.6555C1.02195 53.891 1.17832 53.1109 1.64766 52.3798C2.10645 51.6651 2.82914 51.0506 3.79951 50.5266C5.72104 49.4888 8.81634 48.698 13.5072 48.2574L13.5539 48.2531H13.6007C13.7658 48.2531 13.9624 48.2601 14.1417 48.2994C14.222 48.317 14.3953 48.3603 14.5693 48.4795C14.7742 48.6198 15.06 48.9364 15.0239 49.4178C14.996 49.7901 14.7821 50.021 14.713 50.0914C14.62 50.1864 14.5236 50.2528 14.461 50.2927C14.3309 50.3756 14.1812 50.4473 14.0471 50.5064C13.5144 50.7412 12.5776 51.0537 11.5986 51.3804L11.5324 51.4025C10.5414 51.7331 9.46343 52.0927 8.53398 52.447C8.05937 52.628 7.63778 52.8022 7.29537 52.9648C6.93761 53.1347 6.72507 53.2648 6.62717 53.3452L6.6268 53.3455C5.87228 53.9644 5.70131 54.3543 5.70131 54.5936C5.70131 54.7346 5.76913 54.9661 6.09168 55.3337L63.3348 53.1933ZM63.3348 53.1933C63.7026 53.4727 63.8381 53.6754 63.9012 53.8183C63.9676 53.9687 64 54.1549 64 54.5C64 54.6765 64.0181 54.8486 64.0305 54.9669L64.0319 54.9799C64.0462 55.117 64.0541 55.1979 64.0548 55.2702C64.0552 55.3083 64.0531 55.3315 64.0515 55.3438C63.635 55.8169 62.9711 56.3103 62.0384 56.8165L62.0375 56.8169M63.3348 53.1933L62.0375 56.8169M62.0375 56.8169C59.6059 58.1392 55.8515 59.2817 51.1714 60.0903C46.5088 60.8958 40.9917 61.3592 35.076 61.3592C29.1603 61.3592 23.6438 60.8958 18.9814 60.0903C14.3018 59.2817 10.5473 58.1393 8.11446 56.8169L62.0375 56.8169ZM35.076 64.578C22.6798 64.578 11.9211 62.55 6.57837 59.6457L67.6717 54.5936C67.6717 56.3686 66.2894 58.1702 63.5758 59.6457C58.2331 62.55 47.4744 64.578 35.076 64.578ZM8.11429 56.8168C7.17833 56.3078 6.51098 55.8111 6.09197 55.3341L8.11429 56.8168Z" fill="#996600" stroke="#996600" stroke-width="2"/>
<path d="M25.2625 34.8391L25.2624 34.8393L25.2224 34.8945C24.196 36.3134 23.3987 37.4155 23.27 38.6355L25.2625 34.8391ZM25.2625 34.8391C26.451 33.1952 27.8094 31.3025 28.1451 29.1226C28.2848 28.2156 28.1656 27.2233 27.9972 26.4299C27.8298 25.6414 27.5854 24.921 27.3878 24.5398C27.375 24.515 27.3574 24.481 27.3356 24.4387C27.1252 24.0301 26.5164 22.8483 25.8787 21.7504C25.5298 21.1495 25.1536 20.5411 24.817 20.0915C24.6541 19.8739 24.4649 19.6447 24.2641 19.4722C24.1667 19.3884 24.015 19.2724 23.8185 19.1955C23.6154 19.1159 23.2518 19.0392 22.8714 19.2364C22.6535 19.3494 22.4652 19.5327 22.3517 19.7784C22.2461 20.0069 22.2345 20.2252 22.2453 20.3803C22.2651 20.6655 22.3746 20.9197 22.4513 21.079C22.6126 21.4145 22.8796 21.821 23.1272 22.1979L23.1396 22.2168C23.6862 23.0489 24.2697 23.9421 24.5387 24.7769M25.2625 34.8391L24.5387 24.7769M24.5387 24.7769L24.5577 24.8519C24.5743 24.9184 24.5981 25.0155 24.6264 25.1356C24.6832 25.3764 24.7569 25.7061 24.8257 26.0639C24.8949 26.4238 24.9568 26.7999 24.9924 27.1364C25.03 27.4925 25.0297 27.7305 25.0116 27.8478C24.9353 28.3437 24.5165 29.0468 23.8259 29.9278C23.54 30.2925 23.2364 30.6532 22.9326 31.0144C22.8887 31.0665 22.8448 31.1186 22.801 31.1708C22.4622 31.574 22.1199 31.9858 21.8446 32.367C20.6351 34.0381 19.3091 35.9657 19.0755 38.1959L24.5387 24.7769ZM24.6332 51.909L24.6301 51.9103C23.5513 52.3444 22.3202 51.8231 21.8849 50.7415L24.6332 51.909ZM24.6332 51.909C25.7089 51.4721 26.2353 50.2461 25.7963 49.1632C25.7737 49.1072 25.7512 49.0512 25.7286 48.9952M24.6332 51.909L25.7286 48.9952M25.7286 48.9952C24.3009 45.4514 22.9164 42.0151 23.27 38.6358L25.7286 48.9952ZM19.0755 38.1961C18.6171 42.5672 20.3429 46.9163 21.8847 50.7412L19.0755 38.1961Z" fill="#996600" stroke="#996600" stroke-width="2"/>
<path d="M37.4585 56.231L37.4586 56.2313C37.7751 57.354 37.1207 58.5175 36.0008 58.8338C34.8807 59.1508 33.7139 58.4972 33.3973 57.3785L33.397 57.3774C31.8788 51.9911 30.2232 46.0705 30.6575 40.1508L37.4585 56.231ZM37.4585 56.231L37.4335 56.1422C35.971 50.9615 34.4801 45.6801 34.8642 40.459L34.8642 40.4584M37.4585 56.231L34.8642 40.4584M34.8642 40.4584C35.018 38.3491 35.9623 36.4714 37.0224 34.3737L34.8642 40.4584ZM39.4942 27.6071C39.7985 24.783 39.2707 21.8381 37.9404 18.16L37.0225 34.3735C37.1624 34.0969 37.3006 33.829 37.4359 33.5667C38.4036 31.6906 39.2262 30.0959 39.4942 27.6071ZM37.9404 18.1599C37.9223 18.1098 37.8925 18.0234 37.8533 17.9092C37.7011 17.467 37.4057 16.6085 37.0885 15.834C36.8895 15.3481 36.6597 14.8382 36.4243 14.45C36.3115 14.264 36.1598 14.0419 35.9679 13.8659C35.8194 13.7296 35.341 13.3475 34.7127 13.5742C34.5674 13.6265 34.3811 13.7228 34.2211 13.9029C34.0522 14.0932 33.969 14.3137 33.9425 14.518C33.8983 14.8577 34.0127 15.1527 34.0619 15.2757C34.1341 15.4564 34.2654 15.7115 34.4 15.9732C34.4637 16.097 34.5282 16.2223 34.5875 16.3419C35.0062 17.186 35.5997 18.5379 36.0137 20.6667C36.1392 21.5375 36.2469 22.205 36.3345 22.7481C36.6064 24.4339 36.685 24.9213 36.5059 26.5678C36.4057 27.4887 35.9474 28.3629 35.2911 29.3446C35.122 29.5977 34.9333 29.8656 34.737 30.1444C34.2257 30.8705 33.6627 31.67 33.2584 32.4706C32.0894 34.78 30.867 37.2827 30.6575 40.1505L37.9404 18.1599ZM35.9076 14.5004C35.908 14.5007 35.9106 14.5076 35.9139 14.5201C35.9088 14.5064 35.9071 14.5001 35.9076 14.5004Z" fill="#996600" stroke="#996600" stroke-width="2"/>
<path d="M48.3841 49.4781C48.3441 49.3885 48.304 49.2989 48.2638 49.2091C46.7212 45.7592 45.0944 42.121 45.5174 38.4933M48.3841 49.4781L42.0841 38.1478C41.5738 42.5412 43.4947 46.9046 45.1953 50.7139L45.1965 50.7165C45.6903 51.8142 46.9836 52.2455 48.0463 51.8595L48.0492 51.8584C49.1448 51.4565 49.8173 50.2376 49.2975 49.0711L49.2971 49.0702L49.2352 48.9317C47.6462 45.3754 46.12 41.9599 46.5107 38.6092L45.5174 38.4933M48.3841 49.4781C48.6367 50.0449 48.3326 50.6893 47.7048 50.9195C47.077 51.1476 46.3634 50.8731 46.1084 50.3062L48.3841 49.4781ZM45.5174 38.4933C45.6915 37.0022 46.7343 35.7027 47.7865 34.3914C47.8312 34.3357 47.8759 34.28 47.9206 34.2242L46.5107 38.6091M45.5174 38.4933L46.5107 38.6091M46.5107 38.6091C46.5777 38.0358 46.8241 37.4553 47.2227 36.8211C47.5956 36.2277 48.0614 35.647 48.5739 35.0081C48.616 34.9556 48.6584 34.9027 48.7011 34.8494L48.7244 34.8203M46.5107 38.6091L48.7244 34.8203M48.7244 34.8203L48.7456 34.7895M48.7244 34.8203L48.7456 34.7895M48.7456 34.7895C50.7812 31.8184 50.5421 27.8634 49.8426 24.8812C49.4859 23.3607 48.9915 22.0128 48.5373 21.048C48.3126 20.5706 48.0838 20.1571 47.8703 19.8562C47.7687 19.713 47.6366 19.5464 47.4774 19.4127C47.3993 19.3471 47.268 19.2494 47.0896 19.1847C46.9016 19.1166 46.5898 19.0632 46.2583 19.2183C45.7551 19.4538 45.6436 19.9284 45.6236 20.1473C45.6041 20.3613 45.6407 20.5604 45.6668 20.6815C45.7193 20.9248 45.8199 21.233 45.917 21.5303C45.9223 21.5466 45.9277 21.5629 45.933 21.5792C46.1513 22.2482 46.4373 23.1307 46.6221 24.2031C46.9858 26.3135 46.9591 29.169 45.1078 32.359M48.7456 34.7895L45.1078 32.359M45.1078 32.359C43.7898 34.0054 42.3424 35.9214 42.0841 38.1476L45.1078 32.359ZM47.6153 20.2239C47.6153 20.2239 47.6156 20.2259 47.616 20.2296C47.6154 20.2257 47.6152 20.2238 47.6153 20.2239Z" fill="#996600" stroke="#996600" stroke-width="2"/>
<path d="M39.0328 61.6921C38.0454 61.6109 20.953 61.5851 10.2359 57.6935C8.74477 56.9242 8.07869 59.5227 14.8912 62.0896C15.7839 62.426 24.5473 65.0641 31.7111 64.9779C49.6712 64.7618 47.5687 61.2653 39.0328 61.6921Z" fill="url(#paint0_linear_48_202)"/>
<path d="M22 33C28 24.4998 25.5 18.5 27.5 24.4999C29.5 30.4997 24 34.5003 23.3194 37.6633C20.5 44.5003 26.5 48.5003 24.4028 50.1251C23 53.0003 16 41.5002 22 33Z" fill="url(#paint1_linear_48_202)"/>
<path d="M36.5 27.5C37.3192 23.4822 36.5 17 36.5 17C36.5 17 39.2466 25.344 38 30.5C37.1791 33.8951 34.5 34 34 38.5C33.5 43 35 50 36 55.5C37 61 33.5 56 33.5 56C33.5 56 29.6983 45.5829 31 39C31.9657 34.1163 35.5055 32.3779 36.5 27.5Z" fill="url(#paint2_linear_48_202)"/>
<path d="M48.8382 28.1789C49.8088 25.0492 48.8382 20 48.8382 20C48.8382 20 52.0925 26.4996 50.6155 30.5158C49.6429 33.1604 46.4686 33.2421 45.8762 36.7473C45.2837 40.2526 47.061 45.7052 48.2458 49.9894C49.4306 54.2736 45.2837 50.3789 45.2837 50.3789C45.2837 50.3789 40.7794 42.2645 42.3217 37.1368C43.4658 33.3327 47.6599 31.9785 48.8382 28.1789Z" fill="url(#paint3_linear_48_202)"/>
<defs>
<linearGradient id="paint0_linear_48_202" x1="24.2232" y1="52.3216" x2="26.7689" y2="64.0698" gradientUnits="userSpaceOnUse">
<stop stop-color="white"/>
<stop offset="1" stop-color="white" stop-opacity="0"/>
</linearGradient>
<linearGradient id="paint1_linear_48_202" x1="20.5" y1="10.5" x2="24" y2="43.5" gradientUnits="userSpaceOnUse">
<stop stop-color="white"/>
<stop offset="1" stop-color="white" stop-opacity="0"/>
</linearGradient>
<linearGradient id="paint2_linear_48_202" x1="34.5265" y1="17" x2="34.5265" y2="58.0812" gradientUnits="userSpaceOnUse">
<stop stop-color="white"/>
<stop offset="1" stop-color="white" stop-opacity="0"/>
</linearGradient>
<linearGradient id="paint3_linear_48_202" x1="44" y1="8" x2="48.5" y2="45.5" gradientUnits="userSpaceOnUse">
<stop stop-color="white"/>
<stop offset="1" stop-color="white" stop-opacity="0"/>
</linearGradient>
</defs>
</svg>
