<svg width="66" height="75" viewBox="0 0 66 75" fill="none" xmlns="http://www.w3.org/2000/svg">
<path d="M58.9 47.4998C58.1 47.4998 57.3 47.4998 56.5 47.4998C57.6 35.6998 58.7 23.8998 59.9 12.0998C60 10.9998 58.9 10.0998 57.9 10.0998C54.9 10.0998 51.9 10.0998 48.9 10.0998C48.9 9.89981 48.9 9.6998 48.9 9.4998C48.9 8.8998 48.9 8.2998 48.9 7.7998C50 7.7998 51.1 7.7998 52.2 7.7998C54.8 7.7998 54.8 3.7998 52.2 3.7998C50.4 3.7998 48.6 3.7998 46.9 3.7998C45.8 3.7998 44.9 4.6998 44.9 5.7998C44.9 7.1998 44.9 8.6998 44.9 10.0998C42.8 10.0998 40.7 10.0998 38.6 10.0998C37.7 10.0998 36.7 10.0998 35.8 10.0998C34.8 10.0998 33.7 10.9998 33.8 12.0998C34.9 23.8998 36 35.6998 37.2 47.4998C31.6 47.4998 26 47.4998 20.4 47.4998C20.4 43.8998 20.4 40.1998 20.4 36.5998C20.4 36.1998 20.4 35.7998 20.4 35.4998C25.3 34.6998 29.5 31.0998 30.7 26.0998C31.5 22.8998 31.1 19.3998 31.1 16.0998C31.1 14.7998 31.1 13.4998 31.1 12.1998C31.1 11.0998 30.2 10.1998 29.1 10.1998C22.9 10.1998 16.6 10.1998 10.4 10.1998C9.49999 10.1998 8.59999 10.1998 7.69999 10.1998C6.59999 10.1998 5.69999 11.0998 5.69999 12.1998C5.69999 15.0998 5.69999 18.0998 5.69999 20.9998C5.69999 22.3998 5.69999 23.7998 5.89999 25.1998C6.39999 27.8998 7.79999 30.3998 9.79999 32.2998C11.6 33.9998 13.9 35.0998 16.4 35.4998C16.4 39.4998 16.4 43.4998 16.4 47.5998C15.4 47.5998 14.4 47.5998 13.5 47.5998C11.4 47.5998 9.19999 47.5998 7.09999 47.5998C4.49999 47.5998 4.49999 51.5998 7.09999 51.5998C13 51.5998 18.8 51.5998 24.7 51.5998C29.6 51.5998 34.4 51.5998 39.3 51.5998H39.4C39.9 51.5998 40.3 51.5998 40.8 51.5998C44.7 51.5998 48.7 51.5998 52.6 51.5998C54.7 51.5998 56.9 51.5998 59 51.5998C61.5 51.4998 61.5 47.4998 58.9 47.4998ZM26.5 14.1998C26.7 14.1998 26.9 14.1998 27.2 14.1998C27.2 15.8998 27.2 17.5998 27.2 19.2998H9.59999C9.59999 18.0998 9.69999 16.7998 9.69999 15.5998C9.69999 15.0998 9.69999 14.5998 9.69999 14.0998C15.3 14.1998 20.9 14.1998 26.5 14.1998ZM9.79999 23.9998C9.79999 23.7998 9.79999 23.5998 9.79999 23.3998H27C26.8 25.2998 26.4 27.0998 24.9 28.6998C23.2 30.5998 20.9 31.5998 18.4 31.6998C14.1 31.5998 10.2 28.2998 9.79999 23.9998ZM48.9 36.0998C48.9 31.8998 48.9 27.5998 48.9 23.3998H54.9C54.1 31.3998 53.4 39.3998 52.6 47.3998C48.8 47.3998 45 47.4998 41.2 47.4998C40.4 39.4998 39.7 31.3998 38.9 23.3998H44.9C44.9 26.3998 44.9 29.3998 44.9 32.3998C44.9 33.5998 44.9 34.8998 44.9 36.0998C44.9 38.5998 48.9 38.5998 48.9 36.0998ZM55.1 14.0998C55.3 14.0998 55.5 14.0998 55.7 14.0998C55.5 15.7998 55.4 17.5998 55.2 19.2998H48.8C48.8 17.5998 48.8 15.7998 48.8 14.0998C51 14.0998 53 14.0998 55.1 14.0998ZM44.9 14.0998C44.9 15.7998 44.9 17.5998 44.9 19.2998H38.5C38.3 17.5998 38.2 15.7998 38 14.0998C40.3 14.0998 42.6 14.0998 44.9 14.0998Z" fill="#996600"/>
<path d="M51.1 55.7996C49.3 55.3996 47.5 54.8996 45.7 54.4996C44.4 54.1996 43.6 53.9996 42.4 54.5996C41.4 55.0996 40.4 55.5996 39.4 56.0996C38.1 55.5996 36.8 55.0996 35.5 54.5996C34.5 54.1996 34 53.9996 32.9 54.2996C31.2 54.7996 29.5 55.4996 27.8 56.0996C27 55.6996 26.2 55.3996 25.4 54.9996C24.4 54.4996 23.3 53.7996 22.2 54.0996C19.8 54.4996 17.4 55.2996 15 55.8996C12.5 56.4996 13.6 60.3996 16.1 59.7996C18.3 59.2996 20.4 58.6996 22.6 58.1996C23.3 58.4996 24 58.7996 24.7 59.0996C25.7 59.4996 27 60.3996 28.1 60.2996C29.1 60.1996 30.2 59.5996 31.2 59.2996C32.1 58.9996 33 58.6996 33.9 58.3996C35.5 59.0996 37.2 59.8996 38.9 60.2996C40 60.5996 41 59.7996 42 59.3996C42.7 59.0996 43.3 58.6996 44 58.3996C46 58.8996 48 59.3996 50 59.8996C52.5 60.2996 53.6 56.3996 51.1 55.7996Z" fill="#996600"/>
<path d="M22.5 54.9998C22.5 54.9998 16.5 55.9998 15.5 56.4998C14.5 56.9998 14.1625 57.0837 14.5 57.9998C14.9279 59.1613 22.5 56.9998 22.5 56.9998L28 59.4998L33.5 57.4998L39.5 59.4998C40.5 58.8332 42.6422 57.6787 43 57.4998C45 56.5001 46.5 54.4998 43.5 54.9998L39.5 56.9998L33.5 54.9998L27.5 57.4998L22.5 54.9998Z" fill="url(#paint0_linear_48_223)"/>
<path d="M9 11H28C30 11 31.5 13 27 13H12.5C12.5 13 9 13 8 15C7 17 7 15 7 15V12.5C7 12.5 7 11 9 11Z" fill="url(#paint1_linear_48_223)"/>
<path d="M37 11H56C58 11 59.5 13 55 13H40.5C40.5 13 37 13 36 15C35 17 35 15 35 15V12.5C35 12.5 35 11 37 11Z" fill="url(#paint2_linear_48_223)"/>
<path d="M10.6205 48H58C59.5 48 61 51 56.5 51H18.5C18.5 51 6 51.5 6 49.5341C6 49.5341 6 48 10.6205 48Z" fill="url(#paint3_linear_48_223)"/>
<path fill-rule="evenodd" clip-rule="evenodd" d="M61.4825 29.7425C63.1025 33.502 64 37.6461 64 41.9998C64 59.1206 50.1208 72.9998 33 72.9998C15.8792 72.9998 2 59.1206 2 41.9998C2 37.6605 2.89155 33.5294 4.50147 29.7798C4.05421 29.098 3.61622 28.4233 3.2093 27.7864C1.15194 32.0908 0 36.9107 0 41.9998C0 60.2252 14.7746 74.9998 33 74.9998C51.2254 74.9998 66 60.2252 66 41.9998C66 36.3457 64.5781 31.0238 62.0723 26.3721L61.4825 29.7425Z" fill="#996600"/>
<defs>
<linearGradient id="paint0_linear_48_223" x1="28.5" y1="51.5" x2="29.7848" y2="59.4998" gradientUnits="userSpaceOnUse">
<stop stop-color="white"/>
<stop offset="1" stop-color="white" stop-opacity="0"/>
</linearGradient>
<linearGradient id="paint1_linear_48_223" x1="17.5" y1="9" x2="18" y2="14.5" gradientUnits="userSpaceOnUse">
<stop stop-color="white"/>
<stop offset="1" stop-color="white" stop-opacity="0"/>
</linearGradient>
<linearGradient id="paint2_linear_48_223" x1="45.5" y1="9" x2="46" y2="14.5" gradientUnits="userSpaceOnUse">
<stop stop-color="white"/>
<stop offset="1" stop-color="white" stop-opacity="0"/>
</linearGradient>
<linearGradient id="paint3_linear_48_223" x1="30.2578" y1="45.9545" x2="30.3354" y2="50.0127" gradientUnits="userSpaceOnUse">
<stop stop-color="white"/>
<stop offset="1" stop-color="white" stop-opacity="0"/>
</linearGradient>
</defs>
</svg>
