<svg width="74" height="68" viewBox="0 0 74 68" fill="none" xmlns="http://www.w3.org/2000/svg">
<g clip-path="url(#clip0_48_210)">
<path d="M52.356 41.3333C52.356 41.3333 55.5 41 58.7813 37.5C62.0627 34 72.3 23.612 72.3 23.612C73.4133 22.5053 74 21.2547 74 20C74 17.7947 72.2053 16 70 16C68.1667 16 66.5667 17.5467 66.3907 17.724L58.7813 25.3333C58.7813 25.3333 60.0627 25.3333 50.7813 25.3333C41.5 25.3333 41 26 36.84 29.3333C32.68 32.6667 32.1733 33.3333 32.1733 33.3333H14C11.7947 33.3333 10 35.128 10 37.3333C10 39.2107 11.3053 40.7813 13.0533 41.208L10.5787 45.3333C10.5787 45.3333 14.1883 44.5 10 45.3333C5.81172 46.1667 3.91066 50 10 50C16.0893 50 73.5 50 73.5 50C73.5 50 72.3 45.3333 66 45.3333C59.7 45.3333 54.7547 45.3333 54.7547 45.3333L52.356 41.3333ZM48.5 28C52.5 28 56.1147 28 56.1147 28L53.448 30.6667C53.448 30.6667 49.2453 33.3333 44.5 33.3333C39.7547 33.3333 36.2707 33.3333 36.2707 33.3333C36.2707 33.3333 36.264 33.3333 39.382 30.6667C42.5 28 44.5 28 48.5 28ZM12.6667 37.3333C12.6667 36.5987 13.2653 36 14 36H51.8853L68.272 19.6147C68.66 19.232 69.4773 18.6667 70 18.6667C70.736 18.6667 71.3333 19.2653 71.3333 20C71.3333 20.524 71.0093 21.136 70.416 21.724L53.448 38.6667H14C13.2653 38.6667 12.6667 38.0707 12.6667 37.3333ZM13.688 45.3333C13.688 45.3333 13 41.208 22 41.208C31 41.208 35 41.3333 43.5 41.3333C52 41.3333 51.6453 45.3333 51.6453 45.3333H13.688Z" fill="#996600"/>
<path d="M51 35H13L11 37L13 40.5H54L72.5 21.5V18L69 17L51 35Z" fill="#996600"/>
<path d="M14 35C11.2475 35.034 10.5 37 12 38C13.5 39 17 39 17 39H47C53.5 39 55 37.5 57 36C59 34.5 70.5535 22.5002 71.5 21.5C72.4466 20.4998 72.5 19.5 71.5 18.4999C70.5 17.4999 69.0001 17.4999 66 20.5L55.5 31C55.5 31 51.5 35 47 35C42.5 35 16.7525 34.966 14 35Z" fill="url(#paint0_linear_48_210)"/>
</g>
<path fill-rule="evenodd" clip-rule="evenodd" d="M57.8771 53.5C52.2262 61.0864 43.1869 66 33 66C15.8792 66 2 52.1208 2 35C2 17.8792 15.8792 4 33 4C44.4851 4 54.5114 10.2457 59.8678 19.526L61.309 18.0314C55.5394 8.42669 45.0202 2 33 2C14.7746 2 0 16.7746 0 35C0 53.2254 14.7746 68 33 68C44.3695 68 54.3961 62.2503 60.3307 53.5H57.8771Z" fill="#996600"/>
<defs>
<linearGradient id="paint0_linear_48_210" x1="35.5" y1="18" x2="39" y2="38" gradientUnits="userSpaceOnUse">
<stop stop-color="white"/>
<stop offset="1" stop-color="white" stop-opacity="0"/>
</linearGradient>
<clipPath id="clip0_48_210">
<rect width="64" height="64" fill="white" transform="translate(10)"/>
</clipPath>
</defs>
</svg>
