<svg width="118" height="132" viewBox="0 0 118 132" fill="none" xmlns="http://www.w3.org/2000/svg">
<path fill-rule="evenodd" clip-rule="evenodd" d="M71.2956 2.0258C71.1663 2.00879 71.0355 2.00014 70.9041 2.00014H4C2.34314 2.00014 1 3.34329 1 5.00014V128C1 129.657 2.34315 131 4 131H113.911C115.568 131 116.911 129.657 116.911 128V37.7872C116.852 37.375 116.761 37.0462 116.624 36.775C116.454 36.4375 116.197 36.1618 115.772 35.9297C114.874 35.439 113.275 35.1631 110.348 35.0322C107.425 34.9014 103.299 34.9153 97.4509 34.9352H97.4507C91.6568 34.9548 84.1719 34.9802 74.4889 34.8762L73.986 34.8708L73.9943 34.3679L74.4943 34.3762C73.9943 34.3679 73.9943 34.3678 73.9943 34.3676L73.9944 34.3667L73.9944 34.3629L73.9947 34.348L73.9956 34.289L73.9994 34.0584C74.0026 33.8562 74.0073 33.5593 74.0131 33.1805C74.0247 32.423 74.0407 31.3379 74.0586 30.028C74.0943 27.408 74.1371 23.8889 74.1657 20.2918C74.1942 16.6943 74.2085 13.0208 74.1871 10.0912C74.1764 8.62605 74.1568 7.34972 74.1257 6.36313C74.0941 5.3596 74.0514 4.69641 74.0024 4.42781C73.8146 3.39922 73.064 2.77234 72.2759 2.38867C71.919 2.21489 71.5701 2.0996 71.2956 2.0258ZM117.911 38.0893L117.952 38.0855C117.941 37.9609 117.927 37.8382 117.911 37.7178V36.4079C117.911 35.1309 117.301 33.9307 116.27 33.1776L73.2631 1.76985C72.7383 1.38656 72.1305 1.13871 71.4935 1.04381C71.4851 1.04163 71.4768 1.0395 71.4686 1.0374C71.3029 0.99519 71.1651 0.966793 71.0671 0.948732C71.0181 0.939692 70.979 0.933216 70.9511 0.928878L70.9179 0.923912L70.908 0.922528L70.9048 0.922093L70.9036 0.921938L70.9032 0.921875C70.9031 0.921861 70.9029 0.921847 70.8927 1.00014H4C1.79086 1.00014 0 2.791 0 5.00014V128C0 130.209 1.79086 132 4 132H113.911C116.12 132 117.911 130.209 117.911 128V38.0893ZM74.9899 4.26913L115.68 33.9851C116.161 34.336 116.519 34.8161 116.722 35.3591C116.58 35.2483 116.423 35.1461 116.251 35.0522C115.121 34.4347 113.293 34.163 110.393 34.0332C107.456 33.9017 103.293 33.9156 97.4096 33.9353H97.4087C91.7066 33.9543 84.3883 33.9788 75.0023 33.8816L75.013 33.1958C75.0246 32.4378 75.0406 31.3522 75.0585 30.0416C75.0942 27.4205 75.1371 23.8994 75.1656 20.2998C75.1942 16.7006 75.2085 13.0211 75.1871 10.0839C75.1763 8.61554 75.1567 7.33002 75.1252 6.33167C75.0949 5.36903 75.053 4.63399 74.9899 4.26913Z" fill="white"/>
</svg>
