<svg width="52" height="54" viewBox="0 0 52 54" fill="none" xmlns="http://www.w3.org/2000/svg">
<g clip-path="url(#clip0_421_18)">
<path d="M26.0033 47.288V44.966L26.4625 44.9592L26.9204 44.9433L27.3727 44.9151L27.8251 44.8749L28.2761 44.824L28.7221 44.7642L29.1663 44.6906L29.6079 44.6077L30.0458 44.5141L30.481 44.4102L30.9132 44.2939L31.3416 44.1686L31.7662 44.0326L32.1878 43.8847L32.6042 43.7287L33.0168 43.5606L33.4276 43.3819L33.8321 43.1951L34.231 42.9976L34.626 42.7893L35.0173 42.5704L35.4042 42.3421L35.7834 42.1031L36.1597 41.8547L36.5295 41.5956L36.8938 41.3288L37.2529 41.0514L37.6065 40.7644L37.9519 40.4695L38.2923 40.1625L38.627 39.8461L38.9554 39.5216L40.5758 41.1629L40.2073 41.5272L39.8323 41.8808L39.4492 42.225L39.058 42.5597L38.6617 42.8812L38.2598 43.1933L37.8472 43.4948L37.432 43.7829L37.0105 44.0634L36.5808 44.3315L36.1456 44.5889L35.7065 44.8343L35.2605 45.069L34.8082 45.293L34.3533 45.5038L33.8941 45.7039L33.4285 45.8933L32.9586 46.0708L32.4836 46.2349L32.0056 46.3897L31.5212 46.5312L31.0355 46.6608L30.5473 46.7783L30.0534 46.8853L29.5558 46.9789L29.0551 47.0601L28.5532 47.1281L28.0487 47.1841L27.5403 47.2294L27.029 47.2602L26.5176 47.279L26.0024 47.2858L26.0033 47.288ZM26.0033 44.9656V47.2875L25.9447 47.2863L25.8861 47.2824L25.8301 47.2743L25.7728 47.2636L25.7181 47.2516L25.6634 47.2358L25.61 47.217L25.5578 47.1969L25.5069 47.173L25.4577 47.1478L25.4099 47.1195L25.3645 47.0888L25.3192 47.0567L25.2765 47.022L25.2337 46.9861L25.1948 46.9472L25.1559 46.907L25.12 46.8643L25.0866 46.8202L25.0546 46.7749L25.0238 46.7283L24.9973 46.6792L24.972 46.63L24.9494 46.5778L24.928 46.5256L24.9105 46.4722L24.8946 46.4162L24.8814 46.3602L24.872 46.3029L24.8639 46.2456L24.86 46.187L24.8588 46.1272L24.86 46.0673L24.8639 46.0088L24.872 45.9515L24.8814 45.8942L24.8946 45.8382L24.9105 45.7822L24.928 45.7287L24.9494 45.6765L24.972 45.6244L24.9973 45.5752L25.0238 45.5261L25.0546 45.4794L25.0866 45.4341L25.12 45.3901L25.1559 45.3474L25.1948 45.3071L25.2337 45.2682L25.2765 45.2323L25.3192 45.1977L25.3645 45.1656L25.4099 45.1349L25.4577 45.1066L25.5069 45.0814L25.5578 45.0575L25.61 45.0374L25.6634 45.0185L25.7181 45.0027L25.7728 44.9907L25.8301 44.9801L25.8861 44.972L25.9447 44.9681L26.0033 44.9668V44.9656ZM16.8294 45.1071L17.8517 43.0279H17.8504L18.0894 43.1455L18.3309 43.2618L18.5725 43.3725L18.8167 43.482L19.0582 43.5846L19.3024 43.6833L19.552 43.7808L19.7949 43.8727L20.0433 43.9608L20.2942 44.0476L20.5439 44.1288L20.7949 44.2062L21.0433 44.2798L21.2969 44.3477L21.5529 44.4157L21.8065 44.4786L22.0626 44.5371L22.3187 44.5919L22.5761 44.644L22.8309 44.6906L23.0913 44.7334L23.3542 44.7749L23.6159 44.8108L23.8762 44.8428L24.1379 44.8724L24.4021 44.8963L24.6689 44.9177L24.9319 44.9352L25.1987 44.9472L25.4655 44.9579L25.7335 44.963L26.0033 44.9656V47.2875L25.7018 47.285L25.4017 47.2799L25.1029 47.2692L24.804 47.2546L24.5039 47.2346L24.2102 47.2106L23.9139 47.1841L23.615 47.152L23.32 47.1148L23.0263 47.0733L22.7368 47.0293L22.4444 46.9814L22.1494 46.9267L21.8599 46.8694L21.5718 46.8065L21.2836 46.7399L20.9954 46.6693L20.7124 46.5958L20.4268 46.5171L20.1412 46.4329L19.8581 46.3448L19.5764 46.2529L19.2989 46.158L19.0185 46.0592L18.738 45.9536L18.4644 45.8455L18.1881 45.7334L17.912 45.6145L17.6409 45.4944L17.3698 45.3704L17.0988 45.2409L16.8307 45.1075H16.8294V45.1071ZM17.8504 43.0279L16.8307 45.1071L16.7785 45.0788L16.7277 45.0481L16.681 45.016L16.6345 44.9814L16.5904 44.9454L16.5489 44.9066L16.5087 44.8651L16.4716 44.8236L16.4369 44.7795L16.4035 44.7342L16.3728 44.6876L16.3446 44.6398L16.3194 44.5906L16.2954 44.5397L16.274 44.4888L16.2552 44.4354L16.2394 44.3832L16.2262 44.3285L16.2142 44.2738L16.206 44.219L16.2009 44.163L16.1971 44.107V44.051L16.1984 43.995L16.2035 43.9377L16.2103 43.8817L16.221 43.8257L16.2342 43.7697L16.2501 43.7137L16.2689 43.659L16.2903 43.6043L16.3155 43.5495L16.3437 43.4961L16.3732 43.4452L16.4053 43.3973L16.4386 43.3507L16.4745 43.3067L16.5135 43.2639L16.5536 43.2237L16.5951 43.1848L16.6379 43.1502L16.6819 43.1168L16.7285 43.0848L16.7751 43.0566L16.8243 43.03L16.8735 43.0061L16.9243 42.9847L16.9765 42.9659L17.0286 42.9501L17.0821 42.9356L17.1355 42.9249L17.1902 42.9155L17.245 42.9103L17.301 42.9065H17.3557L17.4117 42.9078L17.4677 42.9129L17.5224 42.921L17.5785 42.9317L17.6332 42.945L17.6892 42.9608L17.7439 42.9796L17.7974 43.0022L17.8508 43.0275L17.8504 43.0279ZM16.1034 42.1429L17.8516 43.0279L16.8294 45.1071L15.0812 44.222L15.3279 42.0518L16.1034 42.1425V42.1429ZM16.1034 42.1429L15.0812 44.222L15.029 44.1938L14.9781 44.163L14.9315 44.131L14.8849 44.0964L14.8409 44.0604L14.7994 44.0215L14.7592 43.98L14.722 43.9386L14.6874 43.8945L14.654 43.8492L14.6232 43.8026L14.595 43.7547L14.5698 43.7055L14.5459 43.6547L14.5245 43.6025L14.5057 43.5504L14.4899 43.4969L14.4766 43.4435L14.4659 43.3888L14.4565 43.3327L14.4514 43.2767L14.4475 43.2207V43.1647L14.4501 43.1087L14.4539 43.0514L14.4621 42.9954L14.4728 42.9394L14.486 42.8834L14.5018 42.8274L14.5206 42.7727L14.542 42.7179L14.5673 42.6632L14.5955 42.6098L14.625 42.5589L14.6571 42.511L14.6917 42.4644L14.7276 42.4203L14.7648 42.3776L14.805 42.3374L14.8464 42.3002L14.8905 42.2643L14.9345 42.2309L14.9811 42.2002L15.0277 42.1707L15.0769 42.1455L15.126 42.1215L15.1769 42.1001L15.2291 42.08L15.2812 42.0642L15.3347 42.051L15.3882 42.039L15.4429 42.0309L15.4976 42.024L15.5536 42.0215H15.6083L15.6643 42.0227L15.7204 42.0279L15.7751 42.036L15.8311 42.0467L15.8858 42.0599L15.9418 42.0758L15.9965 42.0945L16.05 42.1172L16.1034 42.1425V42.1429ZM7.63288 43.9018L15.3283 42.0523L15.8567 44.3131L8.16131 46.1627L6.77605 44.7988L7.63288 43.9018ZM7.63288 43.9018L8.16131 46.1627L8.10403 46.1747L8.04676 46.1841L7.98944 46.1909L7.93216 46.1935L7.87484 46.1948L7.81885 46.1922L7.76285 46.187L7.70682 46.1789L7.6521 46.167L7.59867 46.1537L7.54524 46.1379L7.49305 46.1203L7.44218 46.099L7.393 46.075L7.34385 46.0498L7.29723 46.0216L7.25065 45.9908L7.20659 45.9587L7.16257 45.9241L7.12112 45.8869L7.0809 45.848L7.04373 45.8065L7.0078 45.7638L6.97444 45.7197L6.9424 45.6731L6.91159 45.6252L6.88508 45.5744L6.85989 45.5222L6.83721 45.4688L6.81582 45.414L6.79828 45.358L6.78374 45.3007L6.77181 45.2422L6.76239 45.1836L6.75727 45.1263L6.75342 45.0677V45.0105L6.75599 44.9531L6.76111 44.8971L6.76924 44.8412L6.77989 44.7851L6.79315 44.7304L6.80769 44.677L6.82652 44.6235L6.84791 44.5726L6.87054 44.5218L6.89577 44.4726L6.92401 44.4234L6.95349 44.3768L6.98557 44.3328L7.02018 44.2887L7.05611 44.246L7.095 44.2058L7.13521 44.1669L7.17795 44.131L7.22201 44.0964L7.26731 44.0643L7.31522 44.0335L7.36436 44.0053L7.41527 43.98L7.46742 43.9561L7.52213 43.936L7.57684 43.9172L7.63416 43.9027L7.63288 43.9018ZM10.6368 37.2877L9.01814 45.2657L6.77605 44.7984L8.39478 36.8204L10.5355 36.5253L10.6368 37.2872V37.2877ZM10.6368 37.2877L8.39478 36.8204L8.408 36.7618L8.42382 36.7058L8.44264 36.6498L8.46403 36.5963L8.48799 36.5442L8.51318 36.4933L8.54142 36.4441L8.57218 36.3962L8.60554 36.3509L8.64019 36.3069L8.67608 36.2654L8.71501 36.2252L8.75518 36.1863L8.79792 36.1504L8.84198 36.117L8.88728 36.085L8.93262 36.0555L8.98048 36.0289L9.02967 36.0037L9.08054 35.9811L9.13269 35.961L9.18488 35.9435L9.23831 35.9289L9.29302 35.9157L9.34778 35.9063L9.40377 35.8994L9.45977 35.8943L9.5158 35.893L9.57308 35.8943L9.63035 35.8994L9.68896 35.9063L9.74623 35.917L9.80355 35.9302L9.85954 35.946L9.91426 35.9648L9.9664 35.9862L10.0186 36.0102L10.0695 36.0367L10.1174 36.0662L10.164 36.097L10.2093 36.1303L10.252 36.1649L10.2935 36.2021L10.3337 36.241L10.3709 36.2825L10.4055 36.3253L10.4389 36.3693L10.4709 36.4146L10.5004 36.4625L10.527 36.5104L10.5509 36.5613L10.5735 36.6121L10.5936 36.6643L10.6111 36.7177L10.6257 36.7712L10.6377 36.8272L10.6471 36.8832L10.6539 36.9392L10.6591 36.9965L10.6603 37.0538L10.6591 37.1111L10.6539 37.1697L10.6471 37.2282L10.6364 37.2868L10.6368 37.2877ZM9.67486 34.816L10.5355 36.5258L8.49607 37.5827L7.63544 35.8729L9.67486 34.816ZM9.67486 34.816L7.63544 35.8729L7.61021 35.8195L7.58754 35.7647L7.56876 35.7087L7.55121 35.654L7.53795 35.598L7.52726 35.542L7.51913 35.4847L7.514 35.4287L7.51144 35.3727V35.3167L7.514 35.2607L7.51913 35.2046L7.52726 35.1486L7.53795 35.0939L7.55121 35.0405L7.56703 34.987L7.58458 34.9336L7.60592 34.8827L7.62859 34.8318L7.65383 34.781L7.68202 34.733L7.71155 34.6865L7.74491 34.6411L7.77952 34.5971L7.81545 34.5544L7.85562 34.5129L7.89712 34.474L7.93985 34.4368L7.98515 34.4021L8.03306 34.3688L8.08224 34.338L8.13439 34.3098L8.18782 34.2846L8.24125 34.2619L8.29601 34.2418L8.35072 34.2243L8.40543 34.211L8.46019 34.199L8.51618 34.1909L8.57218 34.1858L8.62693 34.1832H8.68293L8.73764 34.1858L8.79239 34.1909L8.84711 34.199L8.90182 34.2097L8.95529 34.223L9.00744 34.2388L9.05959 34.2577L9.11046 34.279L9.16137 34.3017L9.20923 34.3282L9.25714 34.3564L9.30372 34.3872L9.34906 34.4192L9.3918 34.4552L9.43458 34.4924L9.47475 34.5313L9.51364 34.574L9.54957 34.6181L9.58422 34.6647L9.61626 34.7125L9.64706 34.7634L9.67526 34.8156L9.67486 34.816ZM5.39468 26.3801H7.68463L7.68719 26.6605L7.69232 26.9393L7.70169 27.2142L7.71495 27.4904L7.73378 27.7666L7.75517 28.0415L7.77912 28.3126L7.80988 28.5862L7.84324 28.8585L7.88041 29.1296L7.92063 29.3994L7.96593 29.6662L8.01383 29.9343L8.06726 30.2011L8.12326 30.4666L8.18314 30.7308L8.24855 30.995L8.31523 31.2567L8.38749 31.5171L8.46359 31.7774L8.54354 32.0378L8.62649 32.2969L8.71457 32.5517L8.80649 32.8108L8.90014 33.0656L8.99891 33.3166L9.10149 33.5688L9.20967 33.8211L9.31914 34.0734L9.43369 34.3217L9.55257 34.5714L9.67397 34.8168L7.6346 35.8737L7.49694 35.5963L7.3648 35.3175L7.23655 35.0371L7.11126 34.7553L6.99242 34.4735L6.8761 34.1892L6.76412 33.9011L6.65721 33.6141L6.55459 33.3286L6.45582 33.0361L6.36222 32.7454L6.27158 32.4529L6.18734 32.1605L6.10439 31.8655L6.02701 31.5666L5.95648 31.2704L5.8885 30.974L5.82434 30.6739L5.76578 30.375L5.70978 30.0719L5.65887 29.7675L5.61357 29.4661L5.5708 29.1604L5.53491 28.856L5.50154 28.5503L5.47207 28.242L5.44811 27.9325L5.42929 27.6242L5.41347 27.3159L5.40149 27.0038L5.39636 26.693L5.3938 26.3809L5.39468 26.3801ZM7.68463 26.3801H5.39468L5.39596 26.3202L5.39981 26.2616L5.40794 26.2043L5.41731 26.1471L5.43057 26.091L5.44639 26.035L5.46393 25.9816L5.48532 25.9294L5.50795 25.8773L5.53319 25.8281L5.5597 25.7789L5.59046 25.7323L5.62255 25.687L5.65591 25.643L5.6918 25.6002L5.73073 25.56L5.76962 25.5211L5.81236 25.4852L5.85514 25.4506L5.90044 25.4185L5.94578 25.3877L5.99364 25.3595L6.04283 25.3343L6.0937 25.3103L6.14585 25.2902L6.19932 25.2714L6.25403 25.2556L6.30874 25.2436L6.36606 25.233L6.42206 25.2248L6.48066 25.221L6.53922 25.2197L6.59777 25.221L6.65637 25.2248L6.71237 25.233L6.76964 25.2436L6.8244 25.2556L6.87911 25.2714L6.93254 25.2902L6.98473 25.3103L7.0356 25.3343L7.08474 25.3595L7.13265 25.3877L7.17795 25.4185L7.22329 25.4506L7.26603 25.4852L7.30881 25.5211L7.3477 25.56L7.38659 25.6002L7.42252 25.643L7.45588 25.687L7.48792 25.7323L7.51873 25.7789L7.54524 25.8281L7.57043 25.8773L7.59311 25.9294L7.6145 25.9816L7.63204 26.035L7.64786 26.091L7.66108 26.1471L7.67049 26.2043L7.67862 26.2616L7.68247 26.3202L7.68375 26.3801H7.68463ZM11.4312 11.598L13.0516 13.2394L12.7301 13.5742L12.4206 13.9119L12.1174 14.2591L11.8237 14.6114L11.542 14.9676L11.2696 15.3305L11.0054 15.7029L10.7493 16.0779L10.5051 16.4584L10.2717 16.8441L10.0477 17.2353L9.83135 17.6316L9.62567 18.0335L9.43073 18.438L9.24644 18.8476L9.069 19.2653L8.90354 19.683L8.75006 20.1062L8.60342 20.5334L8.47 20.9644L8.34604 21.3979L8.23272 21.8357L8.13011 22.2786L8.0365 22.7246L7.95523 23.1705L7.8847 23.6216L7.82486 24.0739L7.77567 24.5305L7.73678 24.991L7.70854 25.4527L7.69104 25.9157L7.68591 26.3801H5.39596L5.40109 25.8568L5.4212 25.3377L5.45196 24.82L5.49602 24.306L5.55073 23.7934L5.6187 23.2821L5.69993 22.775L5.79185 22.2705L5.89575 21.7716L6.01207 21.2752L6.13904 20.7814L6.27927 20.2914L6.43147 19.8044L6.59437 19.3238L6.76924 18.8476L6.9561 18.3738L7.15232 17.9082L7.36051 17.4452L7.58201 16.9873L7.81416 16.5349L8.05445 16.0907L8.30799 15.6491L8.5735 15.2155L8.84967 14.7846L9.13529 14.3643L9.43157 13.9492L9.73854 13.5383L10.0575 13.1364L10.3858 12.7413L10.7236 12.3518L11.0734 11.9713L11.4325 11.5989L11.4312 11.598ZM13.0512 13.2398L11.4308 11.5985L11.4735 11.557L11.5176 11.5181L11.5629 11.4834L11.6108 11.4501L11.6587 11.4193L11.7078 11.3911L11.757 11.3659L11.8092 11.3432L11.8613 11.3232L11.9148 11.3073L11.9682 11.2928L12.0216 11.2808L12.0764 11.2714L12.1311 11.2646L12.1858 11.2607L12.2406 11.2594L12.2953 11.2607L12.35 11.2646L12.4048 11.2714L12.4595 11.2808L12.5129 11.2928L12.5664 11.3073L12.6198 11.3232L12.672 11.3432L12.7241 11.3659L12.7733 11.3911L12.8224 11.4193L12.8703 11.4501L12.9182 11.4834L12.9635 11.5181L13.0076 11.557L13.0503 11.5985L13.0905 11.6412L13.1294 11.6866L13.1641 11.7331L13.1974 11.7798L13.2269 11.8289L13.2551 11.8781L13.2804 11.9302L13.3017 11.9824L13.3218 12.0346L13.3394 12.088L13.3539 12.1427L13.3659 12.1975L13.374 12.2522L13.3808 12.3082L13.3847 12.3629L13.3859 12.4189L13.3847 12.4749L13.3808 12.5297L13.374 12.5857L13.3659 12.6404L13.3539 12.6952L13.3394 12.7499L13.3218 12.8033L13.3017 12.8555L13.2804 12.9076L13.2551 12.9598L13.2269 13.009L13.1974 13.0581L13.1641 13.1047L13.1294 13.1513L13.0905 13.1967L13.0503 13.2394L13.0512 13.2398ZM26.0033 5.47388V7.79587L25.5497 7.80272L25.0961 7.81854L24.6476 7.84806L24.1965 7.88823L23.748 7.9391L23.3038 8.00194L22.8596 8.0742L22.4166 8.15843L21.9775 8.25336L21.544 8.35894L21.1105 8.47526L20.6795 8.60351L20.2537 8.73949L19.8321 8.88741L19.4118 9.04602L18.9967 9.21405L18.5858 9.39405L18.1775 9.58218L17.7756 9.78097L17.378 9.98921L16.9855 10.2081L16.5998 10.4364L16.2167 10.6754L15.8405 10.9221L15.4694 11.1795L15.1051 11.4463L14.746 11.7225L14.395 12.0068L14.0478 12.3018L13.7087 12.6062L13.3765 12.9183L13.0521 13.2398L11.4317 11.5985L11.7985 11.2368L12.1709 10.8845L12.5527 10.5429L12.9422 10.2107L13.3385 9.88915L13.7429 9.57834L14.1525 9.27945L14.569 8.99003L14.9935 8.71125L15.422 8.44317L15.8585 8.18579L16.3014 7.94038L16.7473 7.70567L17.1997 7.48293L17.6563 7.27084L18.118 7.0695L18.5866 6.88008L19.0578 6.70264L19.5328 6.5359L20.0147 6.38113L20.4965 6.23962L20.9835 6.10748L21.476 5.98865L21.9685 5.88302L22.4649 5.7881L22.9626 5.70519L23.4658 5.63461L23.9703 5.57862L24.4748 5.53332L24.9844 5.50123L25.4941 5.48241L26.0037 5.47556L26.0033 5.47388H26.0033ZM26.0033 7.79587V5.47388L26.0619 5.47516L26.1205 5.479L26.1765 5.48714L26.2338 5.49783L26.2885 5.50976L26.3432 5.52558L26.3967 5.54441L26.4488 5.56452L26.4997 5.58847L26.5489 5.61366L26.5968 5.6419L26.6421 5.67266L26.6874 5.70475L26.7302 5.73939L26.7729 5.77528L26.8118 5.81421L26.8507 5.85439L26.8866 5.89712L26.92 5.94118L26.952 5.98648L26.9829 6.03311L27.0093 6.08225L27.0346 6.13144L27.0572 6.18359L27.0786 6.23578L27.0961 6.28921L27.1119 6.3452L27.1252 6.40124L27.1346 6.45852L27.1427 6.51579L27.1466 6.57439L27.1479 6.63423L27.1466 6.69407L27.1427 6.75267L27.1346 6.80995L27.1252 6.86727L27.1119 6.92326L27.0961 6.97925L27.0786 7.03273L27.0572 7.08488L27.0346 7.13702L27.0093 7.18621L26.9829 7.23536L26.952 7.28198L26.92 7.32728L26.8866 7.37134L26.8507 7.41408L26.8118 7.45429L26.7729 7.49318L26.7302 7.52911L26.6874 7.56372L26.6421 7.5958L26.5968 7.62656L26.5489 7.6548L26.4997 7.68003L26.4488 7.70394L26.3967 7.72405L26.3432 7.74288L26.2885 7.7587L26.2338 7.77068L26.1765 7.78133L26.1205 7.78946L26.0619 7.7933L26.0033 7.79459V7.79587ZM40.5745 11.5968L38.9571 13.2411L38.9559 13.2398L38.6275 12.9153L38.2927 12.5989L37.9524 12.292L37.6069 11.997L37.2534 11.7101L36.8942 11.4326L36.5287 11.1645L36.1601 10.9054L35.7852 10.6587L35.4047 10.4197L35.0177 10.1914L34.6265 9.97255L34.2314 9.76431L33.8313 9.5668L33.4268 9.37739L33.0185 9.19995L32.6059 9.03321L32.1882 8.87716L31.7667 8.72924L31.3421 8.59326L30.9137 8.46801L30.4815 8.35169L30.0462 8.24779L29.6084 8.15419L29.1667 8.07124L28.7225 7.9977L28.2766 7.93782L27.8255 7.88695L27.3732 7.84678L26.9196 7.81854L26.4629 7.80104L26.0037 7.79591V5.47388L26.5189 5.479L27.0316 5.49911L27.5412 5.52987L28.0496 5.57521L28.5541 5.63121L29.056 5.69918L29.5567 5.78045L30.0543 5.87405L30.5481 5.98096L31.0364 6.09851L31.5221 6.22809L32.0065 6.3696L32.4845 6.52437L32.9595 6.68855L33.4281 6.86598L33.8937 7.05412L34.3554 7.25546L34.8104 7.46627L35.2614 7.69029L35.7073 7.925L36.1464 8.17041L36.5817 8.42779L37.0101 8.69587L37.4334 8.97465L37.8498 9.26536L38.2607 9.56552L38.6626 9.87762L39.0589 10.1991L39.4501 10.5339L39.8332 10.8781L40.2081 11.2317L40.5767 11.5959L40.5754 11.5946L40.5745 11.5968ZM38.9554 13.2398L40.5758 11.5985L40.616 11.6413L40.6549 11.6866L40.6896 11.7332L40.7229 11.781L40.7524 11.829L40.7806 11.8798L40.8046 11.9307L40.8272 11.9829L40.8473 12.0363L40.8631 12.0897L40.8777 12.1445L40.8896 12.1992L40.8991 12.2539L40.9059 12.3086L40.9085 12.3647L40.9098 12.4207L40.9085 12.4767L40.9046 12.5314L40.8978 12.5874L40.8896 12.6421L40.8777 12.6969L40.8631 12.7516L40.8456 12.805L40.8255 12.8572L40.8041 12.9094L40.7789 12.9615L40.7507 13.0107L40.7212 13.0598L40.6879 13.1065L40.6532 13.153L40.6143 13.1984L40.5741 13.2411L40.5314 13.2826L40.4873 13.3215L40.442 13.3562L40.3941 13.3895L40.3462 13.4203L40.2971 13.4485L40.2479 13.4737L40.1958 13.4964L40.1436 13.5165L40.0901 13.5323L40.0367 13.5468L39.9833 13.5588L39.9285 13.5682L39.8738 13.5751L39.8191 13.5789L39.7643 13.5802L39.7096 13.5789L39.6549 13.5751L39.6002 13.5682L39.5454 13.5588L39.492 13.5468L39.4385 13.5323L39.3851 13.5148L39.333 13.4947L39.2821 13.472L39.2312 13.4468L39.182 13.4186L39.1341 13.3891L39.0875 13.3557L39.0422 13.3198L38.9982 13.2809L38.9554 13.2394V13.2398ZM46.6119 26.3801H44.322L44.3169 25.9158L44.2993 25.4527L44.2711 24.991L44.2322 24.5305L44.1831 24.0739L44.1232 23.6216L44.0526 23.1705L43.9714 22.7246L43.8778 22.2786L43.7751 21.8357L43.6619 21.3979L43.5379 20.9644L43.4032 20.5321L43.2591 20.1062L43.1043 19.683L42.9389 19.264L42.764 18.8488L42.5785 18.4393L42.3822 18.0322L42.1778 17.6321L41.9615 17.237L41.7358 16.8445L41.5023 16.4589L41.2569 16.077L41.0034 15.7021L40.7392 15.3323L40.4668 14.9693L40.1838 14.6114L39.8901 14.2591L39.5869 13.9119L39.2774 13.5742L38.9571 13.2407L40.5745 11.5964L40.935 11.9701L41.2847 12.3506L41.6225 12.7401L41.9508 13.1351L42.2685 13.5353L42.578 13.9461L42.8743 14.3639L43.1599 14.7842L43.4349 15.2139L43.7003 15.6474L43.9526 16.0877L44.1954 16.5337L44.4263 16.9873L44.6465 17.4422L44.856 17.9053L45.0548 18.3738L45.2391 18.8463L45.4152 19.3226L45.5781 19.8044L45.729 20.2901L45.8693 20.7801L45.9963 21.2739L46.1126 21.7703L46.2165 22.2692L46.3084 22.7737L46.3896 23.2808L46.4576 23.7921L46.5123 24.3048L46.5564 24.8187L46.5872 25.3365L46.6072 25.8555L46.6124 26.3788L46.6119 26.3801ZM44.322 26.3801H46.6119L46.6107 26.44L46.6068 26.4985L46.5987 26.5558L46.5893 26.6131L46.576 26.6691L46.5602 26.7251L46.5427 26.7786L46.5213 26.8307L46.4986 26.8829L46.4734 26.9321L46.4469 26.9812L46.4161 27.0278L46.384 27.0731L46.3507 27.1172L46.3148 27.1599L46.2759 27.2002L46.237 27.239L46.1942 27.275L46.1515 27.3096L46.1062 27.3417L46.0609 27.3724L46.0129 27.4007L45.9638 27.4259L45.9129 27.4498L45.8607 27.4699L45.8073 27.4887L45.7526 27.5046L45.6978 27.5165L45.6406 27.5272L45.5845 27.5353L45.526 27.5392L45.4674 27.5404L45.4088 27.5392L45.3503 27.5353L45.2942 27.5272L45.2369 27.5165L45.1822 27.5046L45.1275 27.4887L45.0741 27.4699L45.0219 27.4498L44.971 27.4259L44.9218 27.4007L44.874 27.3724L44.8286 27.3417L44.7833 27.3096L44.7406 27.275L44.6978 27.239L44.6589 27.2002L44.62 27.1599L44.5841 27.1172L44.5508 27.0731L44.5187 27.0278L44.4879 26.9812L44.4614 26.9321L44.4362 26.8829L44.4135 26.8307L44.3921 26.7786L44.3746 26.7251L44.3588 26.6691L44.3455 26.6131L44.3361 26.5558L44.328 26.4985L44.3241 26.44L44.3228 26.3801H44.322ZM40.5758 41.1634L38.9554 39.5221L39.2718 39.1911L39.5814 38.8547L39.8802 38.5105L40.171 38.1595L40.4514 37.8033L40.7238 37.4403L40.9867 37.0692L41.2415 36.693L41.4856 36.3112L41.7191 35.9242L41.9449 35.5318L42.1599 35.1329L42.3668 34.7284L42.5618 34.3214L42.7486 33.9075L42.9261 33.4898L43.0902 33.0708L43.2463 32.645L43.393 32.2153L43.5276 31.7817L43.6529 31.3465L43.7675 30.9074L43.8714 30.4657L43.965 30.0198L44.048 29.5701L44.1215 29.1202L44.1813 28.6692L44.2305 28.2126L44.272 27.7577L44.2985 27.3011L44.3143 26.8405L44.3212 26.3801H46.6111L46.6043 26.8992L46.5854 27.413L46.5534 27.9308L46.5093 28.4447L46.4521 28.9543L46.384 29.464L46.3028 29.9723L46.2092 30.473L46.1053 30.975L45.9877 31.4726L45.8595 31.9677L45.718 32.459L45.5645 32.9459L45.4016 33.4265L45.2267 33.9058L45.0386 34.3808L44.8398 34.8494L44.6315 35.3137L44.4101 35.7716L44.1792 36.224L43.9376 36.6712L43.6854 37.1141L43.4199 37.5519L43.1437 37.9816L42.8594 38.4032L42.5644 38.8196L42.2574 39.2305L41.9397 39.6324L41.6139 40.0261L41.2774 40.4131L40.9303 40.7923L40.5741 41.1634H40.5758ZM38.9554 39.5221L40.5758 41.1634L40.5331 41.2049L40.489 41.2438L40.4437 41.2784L40.3958 41.3118L40.348 41.3425L40.2988 41.3708L40.2496 41.396L40.1974 41.4186L40.1453 41.4388L40.0919 41.4546L40.0384 41.4691L39.985 41.4811L39.9302 41.4905L39.8755 41.4973L39.8208 41.5012L39.7661 41.5024L39.7113 41.5012L39.6566 41.4973L39.6019 41.4905L39.5472 41.4811L39.4937 41.4691L39.4403 41.4546L39.3868 41.4388L39.3347 41.4186L39.2825 41.396L39.2333 41.3708L39.1842 41.3425L39.1363 41.3118L39.0884 41.2784L39.0431 41.2438L38.999 41.2049L38.9563 41.1634L38.9161 41.1206L38.8772 41.0753L38.8425 41.0287L38.8092 40.9821L38.7797 40.933L38.7515 40.8838L38.7263 40.8316L38.7049 40.7795L38.6848 40.7273L38.6673 40.6738L38.6527 40.6191L38.6408 40.5644L38.6326 40.5097L38.6258 40.4537L38.6219 40.399L38.6206 40.343L38.6219 40.2869L38.6258 40.2322L38.6326 40.1762L38.6408 40.1215L38.6527 40.0668L38.6673 40.012L38.6848 39.9586L38.7049 39.9064L38.7263 39.8543L38.7515 39.8021L38.7797 39.7529L38.8092 39.7037L38.8425 39.6572L38.8772 39.6105L38.9161 39.5652L38.9563 39.5225L38.9554 39.5221Z" fill="#32836E"/>
<path d="M2.28995 26.4528L0 26.4609L0.0282399 25.1505L0.118881 23.8546L0.271085 22.5762L0.483127 21.3149L0.752931 20.0751L1.08129 18.8553L1.46436 17.6607L1.90087 16.4918L2.38912 15.3481L2.92957 14.2322L3.51827 13.1471L4.15617 12.0927L4.84069 11.0718L5.56922 10.0854L6.34182 9.13496L7.15715 8.22214L8.01266 7.3478L8.90665 6.51625L9.84087 5.72483L10.8084 4.98007L11.8119 4.27929L12.8487 3.6239L13.9188 3.01932L15.0172 2.46566L16.1463 1.96243L17.3033 1.51267L18.4858 1.11886L19.6924 0.781127L20.9216 0.500628L22.1735 0.281736L23.4441 0.124406L24.7332 0.0294773L24.8427 2.34895L23.6656 2.43574L22.5074 2.57982L21.3676 2.77988L20.2478 3.03342L19.1481 3.34172L18.0699 3.70084L17.0168 4.11043L15.989 4.56832L14.9868 5.07412L14.0125 5.62522L13.0663 6.22166L12.1509 6.86083L11.2659 7.54151L10.4142 8.26363L9.59758 9.02293L8.8169 9.81992L8.07338 10.6528L7.36751 11.5202L6.70266 12.4211L6.07931 13.3515L5.49741 14.3151L4.95957 15.3041L4.46703 16.3212L4.02107 17.3635L3.62217 18.4311L3.27375 19.5188L2.97487 20.6292L2.72946 21.7596L2.5358 22.9088L2.39681 24.0752L2.3139 25.2565L2.28867 26.4524L2.28995 26.4528ZM0 26.4609L2.28995 26.4528L2.28867 26.5127L2.28482 26.5712L2.27669 26.6285L2.26728 26.6858L2.25402 26.7418L2.23948 26.7978L2.22198 26.8513L2.20059 26.9047L2.17792 26.9556L2.15268 27.0064L2.12621 27.0543L2.09669 27.1022L2.06465 27.1475L2.03 27.1916L1.99535 27.2343L1.95646 27.2745L1.91757 27.3134L1.87607 27.3506L1.83206 27.3853L1.788 27.4173L1.74141 27.4481L1.69351 27.4763L1.64437 27.5015L1.59345 27.5255L1.54131 27.5456L1.48916 27.5644L1.43444 27.5802L1.37969 27.5935L1.32241 27.6042L1.26638 27.611L1.20782 27.6161L1.14926 27.6174L1.09066 27.6161L1.0321 27.6123L0.974828 27.6042L0.91879 27.5947L0.864078 27.5815L0.809366 27.5657L0.755892 27.5482L0.703743 27.5268L0.652876 27.5041L0.603688 27.4789L0.555826 27.4507L0.509202 27.4212L0.463903 27.3891L0.421123 27.3545L0.378388 27.3186L0.339453 27.2796L0.300562 27.2395L0.264633 27.1967L0.230029 27.1539L0.197944 27.1086L0.168467 27.0607L0.140227 27.0129L0.114992 26.9637L0.0910835 26.9115L0.0709753 26.8594L0.0521488 26.8046L0.037609 26.7499L0.0243508 26.6939L0.0137001 26.6366L0.00685005 26.5793L0.00172356 26.5207L0.000441939 26.4609H0ZM4.9711 38.065L2.72902 37.5951L2.83035 38.3582L2.66361 38.0217L2.50199 37.6815L2.34594 37.3398L2.19374 36.9969L2.04582 36.6497L1.90299 36.2988L1.76532 35.9477L1.63195 35.5941L1.5037 35.238L1.37969 34.8776L1.26213 34.5159L1.14754 34.1516L1.03935 33.7848L0.936733 33.4179L0.839286 33.0481L0.745639 32.6757L0.65756 32.3008L0.574609 31.9232L0.497225 31.5427L0.426692 31.1635L0.360003 30.7804L0.300121 30.3948L0.244127 30.0091L0.194939 29.6209L0.150922 29.234L0.111987 28.8415L0.0786651 28.4477L0.0521488 28.0526L0.0294773 27.6576L0.0149375 27.2587L0.0042868 26.8598L0.000397745 26.4609L2.29035 26.4528L2.29419 26.8196L2.30232 27.1839L2.31686 27.5456L2.33697 27.9086L2.36092 28.269L2.39168 28.6251L2.42761 28.983L2.46907 29.3408L2.51313 29.6944L2.564 30.0455L2.61871 30.3965L2.68027 30.7449L2.74572 31.0921L2.81497 31.4375L2.88979 31.7804L2.96974 32.1208L3.05525 32.4611L3.14461 32.7989L3.2395 33.1366L3.33699 33.4688L3.44089 33.801L3.54779 34.1307L3.66106 34.4565L3.77866 34.7835L3.89878 35.105L4.0258 35.4266L4.15533 35.7455L4.28999 36.0606L4.42893 36.377L4.57177 36.6866L4.71968 36.9948L4.87061 37.3018L4.97194 38.065H4.9711ZM2.83079 38.3587L4.87016 37.3018L4.8954 37.3552L4.91807 37.41L4.9369 37.466L4.9544 37.5207L4.96766 37.5767L4.97835 37.6327L4.98648 37.69L4.99161 37.746L4.99417 37.802V37.858L4.99161 37.914L4.98648 37.97L4.97835 38.026L4.96766 38.0808L4.9544 38.1342L4.93986 38.1877L4.92107 38.2411L4.89968 38.292L4.87701 38.3429L4.85178 38.3937L4.82358 38.4416L4.79406 38.4882L4.76074 38.5336L4.72609 38.5776L4.69016 38.6204L4.64999 38.6618L4.60854 38.7007L4.56576 38.7379L4.52046 38.7726L4.47255 38.8059L4.42341 38.8367L4.37121 38.8649L4.31778 38.8901L4.26435 38.9128L4.2096 38.9329L4.15489 38.9504L4.10017 38.9637L4.04546 38.9756L3.98942 38.9838L3.93343 38.9889L3.87872 38.9915H3.82268L3.76797 38.9889L3.71326 38.9838L3.6585 38.9756L3.60379 38.9649L3.55036 38.9517L3.49817 38.9359L3.44602 38.9171L3.39515 38.8957L3.34428 38.873L3.29638 38.8465L3.24851 38.8183L3.20189 38.7875L3.15659 38.7555L3.11381 38.7195L3.07108 38.6823L3.03086 38.6434L2.99197 38.6007L2.95604 38.5566L2.92144 38.51L2.88935 38.4621L2.85855 38.4113L2.83035 38.3591L2.83079 38.3587ZM0.0906416 50.5917L2.72902 37.5955L4.9711 38.0654L2.33268 51.0615V51.0628L0.0906416 50.5917ZM0.0906416 50.5917L2.33268 51.0615L2.31943 51.1201L2.30361 51.1761L2.28482 51.2321L2.26343 51.2856L2.23948 51.3377L2.21425 51.3886L2.18605 51.4378L2.15525 51.4857L2.12192 51.531L2.08728 51.575L2.05135 51.6165L2.01246 51.6567L1.97228 51.6956L1.9295 51.7302L1.88549 51.7648L1.84143 51.7969L1.79485 51.8264L1.74694 51.8529L1.6978 51.8782L1.64688 51.9008L1.59474 51.9209L1.54259 51.9384L1.48916 51.953L1.4344 51.965L1.37969 51.9757L1.32369 51.9825L1.26766 51.9863L1.21166 51.9876L1.15439 51.9863L1.09707 51.9825L1.03851 51.9744L0.981192 51.9637L0.923917 51.9504L0.867923 51.9346L0.813167 51.9145L0.761018 51.8931L0.70887 51.8692L0.658002 51.8427L0.610096 51.8144L0.563516 51.7837L0.518173 51.7503L0.475438 51.7144L0.43394 51.6772L0.393767 51.6383L0.356556 51.5968L0.321952 51.5541L0.288586 51.51L0.256501 51.4647L0.227024 51.4168L0.200508 51.369L0.176554 51.3198L0.153883 51.2676L0.133819 51.2155L0.116274 51.162L0.101734 51.1086L0.0897577 51.0526L0.0803886 50.9965L0.0735386 50.9405L0.0684121 50.8833L0.0671305 50.826L0.0684121 50.7687L0.0735386 50.7101L0.0803886 50.6515L0.0910394 50.593L0.0906416 50.5917ZM2.11808 50.8491L2.64651 53.1099L2.51569 53.1364L2.3729 53.1578L2.2275 53.1672H2.09284L1.95686 53.1578L1.83418 53.142L1.69651 53.1167L1.56309 53.0809L1.45239 53.0449L1.31897 52.9915L1.20269 52.9355L1.10136 52.8795L0.981192 52.8034L0.882463 52.7311L0.784971 52.6524L0.688761 52.5631L0.596838 52.4669L0.511323 52.3643L0.443353 52.2737L0.371096 52.1667L0.300562 52.0441L0.24585 51.932L0.193658 51.8132L0.147077 51.6785L0.111148 51.5545L0.0829519 51.425L0.0615621 51.286L0.0508671 51.159L0.0457406 51.0213L0.0525907 50.8598L0.0684121 50.7251L0.0910394 50.5904L2.33313 51.0628L2.33441 51.059V51.0551L2.33569 51.0218V51.0098V51.0085L2.33313 50.9927L2.33184 50.9833L2.328 50.9739L2.32115 50.9538L2.31731 50.9444L2.31602 50.9418L2.30405 50.9204L2.29892 50.9123L2.30277 50.9175L2.29207 50.9055L2.28266 50.8948L2.27196 50.8854L2.26812 50.8815L2.26299 50.879L2.24421 50.867H2.24677L2.23736 50.8644L2.21341 50.8537L2.21725 50.855L2.19842 50.8512L2.18092 50.8473H2.17836L2.1651 50.8461H2.15569L2.13558 50.8473L2.12104 50.8499H2.11848L2.11808 50.8491ZM2.64651 53.1099L2.11808 50.8491L2.17535 50.8371L2.23263 50.8277L2.28995 50.8208L2.34722 50.8183L2.4045 50.817L2.46054 50.8195L2.51653 50.8247L2.57252 50.8328L2.62728 50.8448L2.68071 50.858L2.73414 50.8739L2.78633 50.8914L2.8372 50.9127L2.88635 50.9367L2.93553 50.9619L2.98344 50.9901L3.02874 51.0209L3.07275 51.053L3.11682 51.0876L3.15827 51.1248L3.19849 51.1637L3.23565 51.2052L3.27158 51.248L3.30495 51.292L3.33699 51.3386L3.36779 51.3865L3.39431 51.4374L3.4195 51.4895L3.44217 51.5429L3.46356 51.5977L3.48106 51.6537L3.4956 51.711L3.50758 51.7696L3.51699 51.8281L3.52212 51.8854L3.52596 51.944V52.0013L3.5234 52.0586L3.51827 52.1146L3.51014 52.1706L3.49945 52.2266L3.48623 52.2813L3.47169 52.3348L3.45287 52.3882L3.43148 52.4391L3.40885 52.49L3.38361 52.5391L3.35537 52.587L3.3259 52.6349L3.29381 52.679L3.25921 52.723L3.22328 52.7658L3.18434 52.8059L3.14417 52.8449L3.10144 52.8807L3.05738 52.9154L3.01208 52.9474L2.96417 52.9782L2.91503 53.0064L2.86412 53.0317L2.81197 53.0556L2.75726 53.0757L2.7025 53.0945L2.64522 53.109L2.64651 53.1099ZM15.1997 50.0936L2.64651 53.1099L2.11808 50.8491L14.6713 47.8327L15.4469 47.9233L15.2001 50.0936H15.1997ZM15.1997 50.0936L14.6713 47.8327L14.7286 47.8207L14.7859 47.8113L14.8431 47.8045L14.9004 47.8019L14.9577 47.8006L15.0137 47.8032L15.0698 47.8083L15.1257 47.8164L15.1805 47.8284L15.2339 47.8417L15.2874 47.8575L15.3395 47.875L15.3904 47.8964L15.4396 47.9203L15.4888 47.9456L15.5366 47.9738L15.582 48.0046L15.626 48.0367L15.67 48.0713L15.7115 48.1085L15.7517 48.1474L15.7889 48.1889L15.8248 48.2316L15.8581 48.2757L15.8902 48.3222L15.921 48.3701L15.9475 48.421L15.9727 48.4732L15.9954 48.5266L16.0167 48.5813L16.0343 48.6373L16.0488 48.6947L16.0608 48.7532L16.0702 48.8118L16.0753 48.8691L16.0792 48.9276V48.9849L16.0766 49.0422L16.0715 49.0982L16.0634 49.1542L16.0527 49.2103L16.0394 49.265L16.0249 49.3184L16.0061 49.3719L15.9847 49.4227L15.962 49.4736L15.9368 49.5228L15.9086 49.5707L15.8791 49.6186L15.847 49.6626L15.8124 49.7066L15.7765 49.7494L15.7376 49.7896L15.6974 49.8285L15.6546 49.8644L15.6106 49.899L15.5653 49.9311L15.5174 49.9619L15.4682 49.9901L15.4173 50.0153L15.3652 50.0393L15.3104 50.0594L15.2557 50.0782L15.1984 50.0927L15.1997 50.0936ZM25.6331 50.4313L25.5985 52.7533L25.2236 52.7452L24.8486 52.7307L24.4775 52.7119L24.1051 52.6879L23.734 52.6572L23.3684 52.6225L23.0016 52.5823L22.6373 52.537L22.273 52.4861L21.9101 52.4314L21.5496 52.3715L21.1892 52.3049L20.8331 52.2343L20.4795 52.1595L20.1259 52.0795L19.7736 51.994L19.4251 51.9047L19.0754 51.8097L18.73 51.711L18.3858 51.6054L18.0442 51.4972L17.7038 51.3839L17.3661 51.2651L17.0326 51.1436L16.6961 51.0154L16.3652 50.8833L16.0368 50.7486L15.7111 50.6071L15.3853 50.4643L15.0608 50.3133L14.7405 50.1599L14.4241 50.0025L15.4464 47.9233L15.7358 48.0674L16.0266 48.2076L16.319 48.3423L16.6153 48.4744L16.9142 48.6027L17.2156 48.7267L17.517 48.8481L17.8184 48.9627L18.1254 49.0734L18.4337 49.1816L18.742 49.2842L19.0541 49.3843L19.3692 49.4792L19.683 49.5698L20.0006 49.6566L20.3196 49.7379L20.6398 49.8152L20.9613 49.8875L21.2884 49.9567L21.6129 50.0222L21.9387 50.0808L22.2671 50.1355L22.598 50.1876L22.9276 50.233L23.2624 50.2731L23.5972 50.3103L23.9337 50.3424L24.2701 50.3706L24.6079 50.392L24.9495 50.4108L25.2898 50.4228L25.6327 50.4309L25.6331 50.4313ZM25.5985 52.7538L25.6331 50.4317L25.6917 50.4343L25.7503 50.4395L25.8063 50.4476L25.8623 50.4583L25.9183 50.4728L25.9718 50.4886L26.0252 50.5074L26.0774 50.5288L26.1266 50.5527L26.1757 50.5793L26.2236 50.6088L26.2689 50.6395L26.313 50.6729L26.3557 50.7075L26.3972 50.7447L26.4374 50.7836L26.4733 50.8251L26.5092 50.8678L26.5426 50.9119L26.5733 50.9585L26.6028 51.0051L26.6294 51.0543L26.6546 51.1052L26.6759 51.1573L26.6961 51.2095L26.7136 51.2642L26.7281 51.3189L26.7401 51.3762L26.7495 51.4322L26.7563 51.4908L26.7602 51.5494V51.6092L26.7576 51.6691L26.7525 51.7276L26.7444 51.785L26.7337 51.8422L26.7204 51.8983L26.7046 51.953L26.6845 52.0064L26.6631 52.0586L26.6405 52.1108L26.6139 52.1599L26.5857 52.2078L26.5549 52.2544L26.5229 52.2997L26.4883 52.3425L26.451 52.384L26.4122 52.4241L26.372 52.4613L26.3292 52.4972L26.2865 52.5319L26.2411 52.5627L26.1933 52.5934L26.1454 52.62L26.0962 52.6452L26.0453 52.6678L25.9919 52.6879L25.9384 52.7055L25.885 52.72L25.829 52.732L25.773 52.7414L25.7157 52.7482L25.6571 52.7521H25.5985V52.7538ZM49.7054 27.148L51.9928 27.2202L51.9192 28.5563L51.7789 29.8736L51.5776 31.1708L51.3134 32.4478L50.9876 33.6997L50.6045 34.9276L50.1667 36.1273L49.6716 37.2992L49.1243 38.4391L48.5249 39.5507L47.875 40.6264L47.1785 41.6675L46.4325 42.6722L45.6449 43.6398L44.8108 44.5658L43.9365 45.4522L43.0224 46.2957L42.0694 47.0965L41.0792 47.8494L40.0543 48.5553L38.9949 49.2133L37.9034 49.8191L36.7823 50.3745L35.6318 50.8751L34.4547 51.3211L33.2525 51.708L32.0271 52.0389L30.7778 52.3087L29.5072 52.5169L28.2207 52.661L26.9167 52.7422L25.5981 52.7542L25.6327 50.4322L26.8367 50.4202L28.0257 50.3467L29.2002 50.2159L30.3558 50.0265L31.4931 49.7811L32.6116 49.4796L33.7074 49.1248L34.7805 48.719L35.8293 48.2641L36.8516 47.757L37.8473 47.2047L38.8136 46.6052L39.7478 45.9605L40.6525 45.2717L41.5225 44.5432L42.3567 43.7719L43.1562 42.963L43.9155 42.1168L44.6364 41.2348L45.3157 40.3181L45.9511 39.3677L46.5449 38.3856L47.0909 37.3753L47.5899 36.3343L48.0397 35.2667L48.4398 34.1734L48.7883 33.055L49.0846 31.9151L49.3249 30.7526L49.5104 29.57L49.6374 28.3678L49.7054 27.1493V27.148ZM51.9928 27.2202L49.7054 27.148L49.7079 27.0881L49.7148 27.0295L49.7241 26.9723L49.7361 26.9149L49.7494 26.8602L49.7669 26.8055L49.787 26.752L49.8097 26.6999L49.8336 26.649L49.8601 26.5998L49.8896 26.552L49.9204 26.5066L49.9538 26.4613L49.9897 26.4186L50.0269 26.3784L50.0658 26.3382L50.1073 26.301L50.15 26.2664L50.1941 26.233L50.2394 26.2022L50.2873 26.1727L50.3351 26.1475L50.386 26.1236L50.4369 26.1009L50.4903 26.0821L50.5438 26.0646L50.5985 26.0513L50.6545 26.0406L50.7105 26.0312L50.7678 26.0261L50.8264 26.0235H50.8849L50.9435 26.0261L51.0008 26.0329L51.0581 26.0423L51.1141 26.0543L51.1688 26.0689L51.2223 26.0864L51.2757 26.1065L51.3266 26.1291L51.3775 26.153L51.4254 26.1813L51.472 26.2108L51.5173 26.2416L51.5613 26.2762L51.6041 26.3121L51.6443 26.3493L51.6832 26.3895L51.7191 26.431L51.7537 26.4737L51.7858 26.5191L51.8166 26.5656L51.8448 26.6135L51.8713 26.6627L51.8953 26.7136L51.9166 26.7657L51.9354 26.8192L51.9513 26.8739L51.9645 26.9299L51.9765 26.9859L51.9846 27.0432L51.9897 27.1018L51.9923 27.1604V27.2202H51.9928ZM24.8434 2.35023L24.734 0.0307589L26.1513 0L27.5498 0.0452987L28.9312 0.16418L30.29 0.354877L31.6287 0.617786L32.9391 0.947428L34.223 1.34376L35.4787 1.80554L36.7023 2.32884L37.8939 2.91202L39.0496 3.55376L40.1706 4.2545L41.2515 5.00743L42.2926 5.81507L43.2921 6.67314L44.2465 7.58084L45.1554 8.53512L46.0161 9.53474L46.8275 10.5771L47.5868 11.6622L48.2928 12.7871L48.9426 13.9496L49.5365 15.1467L50.0718 16.3785L50.5442 17.6436L50.9568 18.9369L51.3023 20.2594L51.581 21.6074L51.7918 22.9794L51.9307 24.3741L52 25.7888L51.9919 27.2207L49.7045 27.1484L49.7096 25.8393L49.648 24.5472L49.5198 23.2753L49.3278 22.0234L49.073 20.7955L48.7592 19.5902L48.3842 18.4119L47.952 17.2588L47.465 16.1365L46.9246 15.0432L46.3307 13.9851L45.686 12.959L44.9934 11.97L44.2541 11.0183L43.4679 10.1068L42.6393 9.23546L41.7679 8.40815L40.8564 7.6249L39.906 6.88951L38.9209 6.20071L37.8986 5.5641L36.8443 4.97835L35.7592 4.44608L34.642 3.96808L33.4983 3.54908L32.3294 3.18739L31.1336 2.88723L29.915 2.64823L28.6764 2.47335L27.4152 2.36521L26.1368 2.32243L24.8422 2.35067L24.8435 2.35023H24.8434ZM24.734 0.0307589L24.8434 2.35023L24.7849 2.35151L24.7263 2.35023L24.669 2.3451L24.613 2.33825L24.557 2.32756L24.501 2.3143L24.4476 2.29976L24.3941 2.28098L24.3419 2.25959L24.2928 2.23692L24.2436 2.21168L24.1957 2.18349L24.1491 2.15268L24.1038 2.12064L24.061 2.08599L24.0196 2.05007L23.9794 2.01117L23.9422 1.971L23.9063 1.92822L23.8717 1.88421L23.8396 1.83886L23.8101 1.79228L23.7819 1.74309L23.7566 1.69395L23.734 1.64176L23.7139 1.58833L23.6951 1.5349L23.6805 1.4789L23.6673 1.42287L23.6579 1.36431L23.6498 1.30699L23.6459 1.24715L23.6446 1.18731L23.6459 1.12871L23.6511 1.07015L23.6579 1.01284L23.6686 0.956841L23.6818 0.900848L23.6964 0.846092L23.7152 0.792661L23.7353 0.739231L23.7579 0.688364L23.7831 0.639176L23.8114 0.590032L23.8409 0.543408L23.8729 0.498109L23.9063 0.454048L23.9422 0.411312L23.9811 0.371096L24.0213 0.332205L24.0628 0.296276L24.1055 0.261672L24.1508 0.229587L24.1975 0.198784L24.2453 0.170588L24.2945 0.145354L24.3454 0.121401L24.3975 0.101337L24.451 0.0825099L24.5057 0.0666885L24.5617 0.0534304L24.619 0.0440171L24.6763 0.0359296L24.7349 0.0320406L24.734 0.0307589Z" fill="#32836E"/>
<path fill-rule="evenodd" clip-rule="evenodd" d="M38.0663 31.8472L33.2513 30.4444C32.6173 30.2601 31.9366 30.4419 31.4748 30.9194L30.2978 32.1354C29.8014 32.6493 29.0472 32.8135 28.3905 32.5437C26.1125 31.6095 21.321 27.2865 20.0974 25.1261C19.7451 24.5015 19.8024 23.7221 20.2363 23.1535L21.2642 21.8041C21.6673 21.2757 21.7524 20.5655 21.4856 19.9545L19.4599 15.3063C18.9755 14.1934 17.5727 13.8688 16.6574 14.6551C15.3136 15.8082 13.7184 17.5607 13.5251 19.5022C13.1835 22.9243 14.6303 27.2387 20.1008 32.4184C26.4212 38.4041 31.4834 39.1942 34.7785 38.384C36.6481 37.9248 38.1416 36.0834 39.0839 34.5762C39.7273 33.5471 39.2199 32.1833 38.0668 31.8472H38.0663V31.8472Z" fill="#32836E"/>
</g>
<defs>
<clipPath id="clip0_421_18">
<rect width="52" height="53.3" fill="white"/>
</clipPath>
</defs>
</svg>
