<svg width="52" height="52" viewBox="0 0 52 52" fill="none" xmlns="http://www.w3.org/2000/svg">
<path d="M0 24.96C0 13.1937 0 7.31062 3.65531 3.65531C7.31062 0 13.1937 0 24.96 0H27.04C38.8063 0 44.6893 0 48.3447 3.65531C52 7.31062 52 13.1937 52 24.96V27.04C52 38.8063 52 44.6893 48.3447 48.3447C44.6893 52 38.8063 52 27.04 52H24.96C13.1937 52 7.31062 52 3.65531 48.3447C0 44.6893 0 38.8063 0 27.04V24.96Z" fill="#0077FF"/>
<path d="M27.6683 37.4619C15.8166 37.4619 9.05675 29.3369 8.77509 15.8169H14.7118C14.9068 25.7402 19.2833 29.9436 22.75 30.8102V15.8169H28.3402V24.3752C31.7635 24.0069 35.3598 20.1069 36.5731 15.8169H42.1632C41.2315 21.1036 37.3315 25.0036 34.5582 26.6069C37.3315 27.9069 41.7734 31.3086 43.4634 37.4619H37.3099C35.9882 33.3452 32.6952 30.1602 28.3402 29.7269V37.4619H27.6683Z" fill="white"/>
</svg>
