<svg width="66" height="60" viewBox="0 0 66 60" fill="none" xmlns="http://www.w3.org/2000/svg">
<path fill-rule="evenodd" clip-rule="evenodd" d="M7 6.6753C2.61428 12.2777 0 19.3336 0 27.0001C0 45.2255 14.7746 60.0001 33 60.0001C51.2254 60.0001 66 45.2255 66 27.0001C66 19.3336 63.3857 12.2777 59 6.6753V10.1115C62.1625 14.9702 64 20.7706 64 27.0001C64 44.1209 50.1208 58.0001 33 58.0001C15.8792 58.0001 2 44.1209 2 27.0001C2 20.7706 3.83747 14.9702 7 10.1115V6.6753Z" fill="#996600"/>
<path fill-rule="evenodd" clip-rule="evenodd" d="M36.25 0.5H50.875C52.1679 0.5 53.5 1 55 2.5C55.8051 3.30513 55.7738 5.6828 55.7549 7.12193C55.7523 7.31696 55.75 7.49475 55.75 7.64906V38.5241C55.75 39.817 55.2364 41.057 54.3222 41.9712C53.4079 42.8855 52.2929 43 51 43H36C34.7974 42.9928 33.8899 42.9405 33 42.1316C32.1101 42.9405 30.9526 42.9928 29.75 43H15C13.7071 43 12.5921 42.8855 11.6779 41.9712C10.7636 41.057 10.25 39.817 10.25 38.5241V7.64906C10.25 7.45098 10.2396 7.21904 10.2281 6.96217C10.1646 5.54234 10.0669 3.36092 11.5 1.92785C12.4142 1.01361 13.8321 0.5 15.125 0.5H29.75C30.9526 0.507167 32.1101 0.958593 33 1.7675C33.8899 0.958593 35.0474 0.507167 36.25 0.5ZM15.125 37.1247H29.75C30.181 37.1247 30.5943 36.9535 30.8991 36.6487C31.2038 36.344 31.375 35.9306 31.375 35.4997V7.64906C31.375 7.21808 31.2038 6.80476 30.8991 6.50001C30.5943 6.19526 30.181 6.02406 29.75 6.02406H15.125C14.694 6.02406 14.2807 6.19526 13.976 6.50001C13.6712 6.80476 13.5 7.21808 13.5 7.64906V35.4997C13.5 35.9306 13.6712 36.344 13.976 36.6487C14.2807 36.9535 14.694 37.1247 15.125 37.1247ZM52.0241 36.6487C52.3288 36.344 52.5 35.9306 52.5 35.4997V7.64906C52.5 7.21808 52.3288 6.80476 52.0241 6.50001C51.7193 6.19526 51.306 6.02406 50.875 6.02406H36.25C35.819 6.02406 35.4057 6.19526 35.101 6.50001C34.7962 6.80476 34.625 7.21808 34.625 7.64906V35.4997C34.625 35.9306 34.7962 36.344 35.101 36.6487C35.4057 36.9535 35.819 37.1247 36.25 37.1247H50.875C51.306 37.1247 51.7193 36.9535 52.0241 36.6487Z" fill="#996600"/>
<path d="M26.5 9.75H18.375C17.944 9.75 17.5307 9.92121 17.226 10.226C16.9212 10.5307 16.75 10.944 16.75 11.375C16.75 11.806 16.9212 12.2193 17.226 12.524C17.5307 12.8288 17.944 13 18.375 13H26.5C26.931 13 27.3443 12.8288 27.649 12.524C27.9538 12.2193 28.125 11.806 28.125 11.375C28.125 10.944 27.9538 10.5307 27.649 10.226C27.3443 9.92121 26.931 9.75 26.5 9.75Z" fill="#996600"/>
<path d="M26.5 16.25H18.375C17.944 16.25 17.5307 16.4212 17.226 16.726C16.9212 17.0307 16.75 17.444 16.75 17.875C16.75 18.306 16.9212 18.7193 17.226 19.024C17.5307 19.3288 17.944 19.5 18.375 19.5H26.5C26.931 19.5 27.3443 19.3288 27.649 19.024C27.9538 18.7193 28.125 18.306 28.125 17.875C28.125 17.444 27.9538 17.0307 27.649 16.726C27.3443 16.4212 26.931 16.25 26.5 16.25Z" fill="#996600"/>
<path d="M47.625 9.75H39.5C39.069 9.75 38.6557 9.92121 38.351 10.226C38.0462 10.5307 37.875 10.944 37.875 11.375C37.875 11.806 38.0462 12.2193 38.351 12.524C38.6557 12.8288 39.069 13 39.5 13H47.625C48.056 13 48.4693 12.8288 48.774 12.524C49.0788 12.2193 49.25 11.806 49.25 11.375C49.25 10.944 49.0788 10.5307 48.774 10.226C48.4693 9.92121 48.056 9.75 47.625 9.75Z" fill="#996600"/>
<path d="M47.625 16.25H39.5C39.069 16.25 38.6557 16.4212 38.351 16.726C38.0462 17.0307 37.875 17.444 37.875 17.875C37.875 18.306 38.0462 18.7193 38.351 19.024C38.6557 19.3288 39.069 19.5 39.5 19.5H47.625C48.056 19.5 48.4693 19.3288 48.774 19.024C49.0788 18.7193 49.25 18.306 49.25 17.875C49.25 17.444 49.0788 17.0307 48.774 16.726C48.4693 16.4212 48.056 16.25 47.625 16.25Z" fill="#996600"/>
<path d="M11.4202 4.43992C11 5.70877 11.0169 17.4033 11 17.61C11.1838 17.9016 12.4743 18.9612 12.6666 15.6047V13.4734C12.6666 11.9754 12.7307 10.4871 12.7307 9.0027C12.7307 8.26486 12.7504 7.5619 12.9087 6.86178C12.9833 6.53226 12.9087 5.01128 14.5896 4.57554C15.1759 4.57554 16.3107 4.43992 16.8971 4.43992C17.2679 4.43992 28.1848 4.52184 28.5489 4.42054C28.7602 4.36177 28.9519 4.31398 29.1685 4.31398C29.2845 4.31398 29.2825 4.16443 29.4 4.14445C29.7331 4.08782 30.0323 3.79803 30.3437 3.61649C30.4556 3.55127 30.8145 3.17886 30.8707 3.04493C31.0762 2.5559 31.0197 2.1582 30.8209 1.69838C30.4956 0.946204 29.9323 1.00088 29.3608 1.00088C28.5301 1.00088 27.6904 1.08807 26.8823 1.08807H20.4012H16.5339C16.155 1.08807 15.6911 1.00066 15.316 1.10744C15.0092 1.1948 12.282 1.10744 11.4202 4.43992Z" fill="url(#paint0_linear_45_121)"/>
<path d="M32.4202 4.43992C32 5.70877 32.0169 17.4033 32 17.61C32.1838 17.9016 33.4743 18.9612 33.6666 15.6047V13.4734C33.6666 11.9754 33.7307 10.4871 33.7307 9.0027C33.7307 8.26486 33.7504 7.5619 33.9087 6.86178C33.9833 6.53226 33.9087 5.01128 35.5896 4.57554C36.1759 4.57554 37.3107 4.43992 37.8971 4.43992C38.2679 4.43992 49.1848 4.52184 49.5489 4.42054C49.7602 4.36177 49.9519 4.31398 50.1685 4.31398C50.2845 4.31398 50.2825 4.16443 50.4 4.14445C50.7331 4.08782 51.0323 3.79803 51.3437 3.61649C51.4556 3.55127 51.8145 3.17886 51.8707 3.04493C52.0762 2.5559 52.0197 2.1582 51.8209 1.69838C51.4956 0.946204 50.9323 1.00088 50.3608 1.00088C49.5301 1.00088 48.6904 1.08807 47.8823 1.08807H41.4012H37.5339C37.155 1.08807 36.6911 1.00066 36.316 1.10744C36.0092 1.1948 33.282 1.10744 32.4202 4.43992Z" fill="url(#paint1_linear_45_121)"/>
<defs>
<linearGradient id="paint0_linear_45_121" x1="13" y1="-1.5" x2="21.5" y2="14.5" gradientUnits="userSpaceOnUse">
<stop stop-color="white"/>
<stop offset="1" stop-color="#C4C4C4" stop-opacity="0"/>
</linearGradient>
<linearGradient id="paint1_linear_45_121" x1="34" y1="-1.5" x2="42.5" y2="14.5" gradientUnits="userSpaceOnUse">
<stop stop-color="white"/>
<stop offset="1" stop-color="#C4C4C4" stop-opacity="0"/>
</linearGradient>
</defs>
</svg>
