<svg width="67" height="71" viewBox="0 0 67 71" fill="none" xmlns="http://www.w3.org/2000/svg">
<path d="M46.4408 38.8056C46.4408 38.8056 48.0195 40.2503 47 41.5C45.9805 42.7497 45.5 43.029 44 44.5145C42.5 46 40.9887 44.5145 40.9887 44.5145C38.9228 42.6776 36.261 41.6628 33.4986 41.6628C30.7377 41.6628 28.0814 42.6776 26.0156 44.5145C26.0156 44.5145 25.0639 45.8015 23.5 44.5145C21.9361 43.2276 21.4475 43 20 41.5C18.5525 40 20.5564 38.8084 20.5564 38.8084C24.0935 35.5854 28.6886 33.8113 33.4986 33.8113C38.3142 33.8113 42.9079 35.5854 46.4408 38.8056ZM33.5 46.5287C30.1165 46.5287 27.3625 49.238 27.3625 52.5727C27.3625 55.9101 30.1151 58.625 33.5 58.625C36.8863 58.625 39.6403 55.9101 39.6403 52.5727C39.6389 49.238 36.8863 46.5287 33.5 46.5287ZM33.5 21.0896C25.2465 21.0896 17.4074 24.173 11.4291 29.7647C11.4291 29.7647 9.76031 31.2039 11.4291 33C13.0979 34.7961 12.5118 34.0737 14 35.4235C15.4882 36.7732 16.9412 35.4235 16.9412 35.4235C21.4274 31.2471 27.3081 28.9454 33.5014 28.9454C39.6961 28.9454 45.5795 31.2457 50.0699 35.4263C50.0699 35.4263 51.5 37.0412 53 35.4263C54.5 33.8113 54.0327 34.2961 55.5807 32.5C57.1287 30.7039 55.5807 29.7675 55.5807 29.7675C49.5954 24.173 41.755 21.0896 33.5 21.0896ZM64.6885 20.7253C56.2591 12.7593 45.1817 8.375 33.5 8.375C21.8183 8.375 10.7409 12.7621 2.3157 20.7253C2.3157 20.7253 1 22.5 2.5 24C3.99999 25.5 4.5 26 4.5 26C4.5 26 6.1864 28.1883 7.8432 26.3687C9.5 24.5491 21 16.2266 33.4986 16.2266C43.1061 16.2266 52.2209 19.8278 59.1582 26.3687C59.1582 26.3687 61 27.5 62 26.3687C63 25.2374 63.377 25 64.6885 23.5C66 22 64.6885 20.7253 64.6885 20.7253Z" fill="#996600"/>
<ellipse cx="33.5" cy="50.6486" rx="4.78571" ry="2.79167" fill="url(#paint0_linear_45_67)"/>
<path d="M50.9978 16.6501C58.625 17.2484 48.256 9.77051 33.5 9.77051C16.3512 9.77051 10.3554 16.9773 10.4909 17.2484C37.0893 9.91726 50.4612 16.6501 50.9978 16.6501Z" fill="url(#paint1_linear_45_67)"/>
<path d="M48.1543 28.9378C54.3676 29.5121 45.9208 22.3335 33.9003 22.3335C19.9305 22.3335 15.0462 29.2518 15.1566 29.5121C36.8242 22.4744 47.7172 28.9378 48.1543 28.9378Z" fill="url(#paint2_linear_45_67)"/>
<path d="M43.9878 40.1683C48.3653 40.6788 42.4141 34.2979 33.9452 34.2979C24.1028 34.2979 20.6616 40.4475 20.7394 40.6788C36.0052 34.4231 43.6798 40.1683 43.9878 40.1683Z" fill="url(#paint3_linear_45_67)"/>
<path fill-rule="evenodd" clip-rule="evenodd" d="M6.61631 31.0151C6.06387 30.57 5.51528 30.1277 4.97146 29.689C3.69742 33.0492 3 36.6931 3 40.4999C3 57.3446 16.6553 70.9999 33.5 70.9999C50.3447 70.9999 64 57.3446 64 40.4999C64 36.7903 63.3377 33.2353 62.125 29.9469L60.4666 31.2535C61.4605 34.1529 62 37.2634 62 40.4999C62 56.24 49.2401 68.9999 33.5 68.9999C17.7599 68.9999 5 56.24 5 40.4999C5 37.1745 5.56951 33.9822 6.61631 31.0151Z" fill="#996600"/>
<defs>
<linearGradient id="paint0_linear_45_67" x1="33.5" y1="47.8569" x2="33.5" y2="53.4403" gradientUnits="userSpaceOnUse">
<stop stop-color="white"/>
<stop offset="1" stop-color="white" stop-opacity="0"/>
</linearGradient>
<linearGradient id="paint1_linear_45_67" x1="31.9048" y1="7.97586" x2="31.9048" y2="19.1425" gradientUnits="userSpaceOnUse">
<stop stop-color="white"/>
<stop offset="1" stop-color="white" stop-opacity="0"/>
</linearGradient>
<linearGradient id="paint2_linear_45_67" x1="32.6007" y1="20.6107" x2="32.6007" y2="31.3304" gradientUnits="userSpaceOnUse">
<stop stop-color="white"/>
<stop offset="1" stop-color="white" stop-opacity="0"/>
</linearGradient>
<linearGradient id="paint3_linear_45_67" x1="33.0296" y1="32.7665" x2="33.0296" y2="42.2951" gradientUnits="userSpaceOnUse">
<stop stop-color="white"/>
<stop offset="1" stop-color="white" stop-opacity="0"/>
</linearGradient>
</defs>
</svg>
