<svg width="69" height="68" viewBox="0 0 69 68" fill="none" xmlns="http://www.w3.org/2000/svg">
<path fill-rule="evenodd" clip-rule="evenodd" d="M55.5256 23.8516C57.7408 27.9048 59 32.5553 59 37.4999C59 53.2401 46.2401 65.9999 30.5 65.9999C14.7599 65.9999 2 53.2401 2 37.4999C2 32.5363 3.26889 27.8691 5.5 23.8049V20.024C2.03387 24.9732 0 30.999 0 37.4999C0 54.3446 13.6553 67.9999 30.5 67.9999C47.3447 67.9999 61 54.3446 61 37.4999C61 32.032 59.5611 26.9 57.0413 22.4622L55.5256 23.8516Z" fill="#996600"/>
<path d="M26.7927 35C24.8406 35 23.8051 36.0657 23.327 37.3131L20.7893 43.8657C19.7833 43.9947 18 45.1756 18 47.4126V55.7453H20.4701V58.4102C20.4701 61.6887 25.1099 61.6501 25.1099 58.4102V55.7453H33.4562H33.4589H41.8052V58.4102C41.8052 61.6501 46.445 61.6887 46.445 58.4102V55.7453H48.9151V47.4126C48.9151 45.1756 47.1317 43.9947 46.1257 43.8657L43.5853 37.3131C43.1073 36.0657 42.0718 35 40.1197 35H36.5323H30.4234H26.7927ZM26.7629 37.3862H33.4508H33.4562H33.4589H40.1494C40.986 37.394 41.3443 37.9172 41.5833 38.6415L43.496 43.7981H33.4589H33.4562H33.4508H23.4163L25.329 38.6415C25.5681 37.9172 25.9263 37.394 26.7629 37.3862ZM22.8644 46.306C24.0481 46.306 25.0071 47.2937 25.0071 48.5137C25.0071 49.7338 24.0481 50.724 22.8644 50.724C21.6807 50.724 20.7217 49.7338 20.7217 48.5137C20.7217 47.2937 21.6807 46.306 22.8644 46.306ZM44.0507 46.306C45.2344 46.306 46.1934 47.2937 46.1934 48.5137C46.1934 49.7338 45.2344 50.724 44.0507 50.724C42.867 50.724 41.9053 49.7338 41.9053 48.5137C41.9053 47.2937 42.867 46.306 44.0507 46.306Z" fill="#996600"/>
<path d="M7.99998 46.5C7.95786 44 7.99999 13 7.99998 10C7.99997 7 11 7 11 7H30.2386C34.1528 7.00004 37.142 7.13374 39.2064 7.40109C42.1018 7.74493 44.5281 8.39909 46.4852 9.36357C48.4423 10.3281 50.0174 11.6794 51.2104 13.4175C52.4034 15.1556 52.9999 17.0655 53 19.1473C52.9999 22.719 51.4048 25.7415 48.2145 28.2149C45.0241 30.6883 39.26 31.925 30.9222 31.925H15.8016C15.8016 31.925 15.8016 44.5 15.8016 47C15.8016 49.5 12.5704 49 10.5 49C10.5 49 8.0421 49 7.99998 46.5ZM15.8016 26.9686H31.0429C36.0831 26.9686 39.6621 26.3002 41.7801 24.9632C43.8981 23.6262 44.957 21.7449 44.9571 19.3192C44.957 17.5621 44.3337 16.058 43.0871 14.807C41.8404 13.556 40.1983 12.7299 38.1608 12.3288C36.8471 12.0805 34.4209 11.9564 30.882 11.9563H15.8016V26.9686Z" fill="#996600"/>
<path d="M9.50002 10.4999C9.37981 13.1399 9.50003 21.9998 9.50002 28.4998C9.50002 34.9998 13.5 22.9998 13.5 22.9998V13.4998C13.5 10.4998 15.5 10.4998 15.5 10.4998H33C41.5 10.4998 45 7.99962 36.5 7.99982C28 8.00003 13 7.99982 13 7.99982C13 7.99982 9.62024 7.85987 9.50002 10.4999Z" fill="url(#paint0_linear_45_99)"/>
<defs>
<linearGradient id="paint0_linear_45_99" x1="13.5" y1="3.5" x2="22" y2="21.5" gradientUnits="userSpaceOnUse">
<stop stop-color="white"/>
<stop offset="1" stop-color="white" stop-opacity="0"/>
</linearGradient>
</defs>
</svg>
