<svg width="70" height="73" viewBox="0 0 70 73" fill="none" xmlns="http://www.w3.org/2000/svg">
<path d="M32.922 40.1714L29.6611 43.4323L32.915 49.9401L36.1166 46.5607L32.922 40.1714Z" fill="#996600"/>
<path d="M34.9969 54.104L38.0456 60.2017L41.2473 56.8221L38.1985 50.7246L34.9969 54.104Z" fill="#996600"/>
<path d="M60.0094 27.7017L56.8477 31.0392L62.9211 33.944L66.083 30.6064L60.0094 27.7017Z" fill="#996600"/>
<path d="M46.8403 26.2534L52.7002 29.056L55.8621 25.7185L50.121 22.9727L46.8403 26.2534Z" fill="#996600"/>
<path d="M42.08 46.6275L45.9796 51.8271L49.0318 48.6053L45.1322 43.4058L42.08 46.6275Z" fill="#996600"/>
<path d="M42.4694 39.855L38.5133 34.5801L35.3883 37.7051L39.4171 43.0767L42.4694 39.855Z" fill="#996600"/>
<path d="M41.1172 31.9764L46.1324 35.9887L49.1519 32.8014L44.2299 28.8638L41.1172 31.9764Z" fill="#996600"/>
<path d="M49.5607 38.7311L54.5811 42.7475L57.6006 39.5602L52.5801 35.5439L49.5607 38.7311Z" fill="#996600"/>
<path d="M45.5 12.5C44.6721 13.2657 42.5 15.5 42.5 15.5L40.7051 13.9737C39.2882 12.5567 37.6061 11.4328 35.7547 10.6659C33.9034 9.89908 31.9192 9.50439 29.9154 9.50439C27.9115 9.50439 25.9273 9.89908 24.076 10.6659C22.2247 11.4328 20.5425 12.5567 19.1256 13.9737C19.0788 14.0203 19.0336 14.0679 18.9876 14.115C17.3912 12.9903 15.5164 12.3258 13.568 12.1939C11.6197 12.062 9.67246 12.4678 7.93898 13.3671C6.20549 14.2663 4.75233 15.6245 3.73808 17.2933C2.72382 18.9621 2.18745 20.8775 2.1875 22.8303V54C2.1875 54 2.18748 55.7812 3.84378 55.7812C3.84378 55.7812 4.4375 55.7812 6 55.7812C7.5625 55.7812 7.93898 54 7.93898 54V22.8303C7.93895 21.6846 8.40758 20.5607 9 19.58C9.59242 18.5993 11 18 12 18C12.5 18 11.8563 17.9318 13 18C13.568 18.0339 15.0563 18.9303 16 19.58C14.4864 22.4636 14.3461 23.8282 14.8341 27.0481C15.3221 30.268 16.8256 33.2479 19.1256 35.5535L20.5 37C20.5 37 16.5 41 19.5 43C22.5 45 20.7809 44 21.5 44.5C22.2191 45 23 44.5 23 44.5C23 44.5 49.3129 17.5002 50.4064 16.5001C51.5 15.5 46.3279 11.7343 45.5 12.5ZM24.5 32.5L23 30.5C21.5 29 20.9916 27.3756 21 24.5C21.0084 21.6244 22.5049 19.5712 24.076 18C26.1093 15.9666 28.5 15.5 29.9154 15.5C32.7909 15.4915 34.1875 16.3531 36.1875 17.3531L38.5 19L24.5 32.5Z" fill="url(#paint0_linear_45_144)"/>
<path d="M3.12502 36.0972C3.50003 28 2.00003 19 6.00003 16C7.61866 14.6122 12.4757 11.5001 13.6111 13.7847C13.5 17.5 6.00003 14 6.56252 28.3125C6.56252 35 6.5 40 6.5 43L6.5 48C5.93748 54.2847 4.50003 53.5 4.00003 53.5C3.125 53.5 2.50005 53.5 3.12502 38.25V36.0972Z" fill="url(#paint1_linear_45_144)"/>
<path d="M24.5 11.5002C21 13.0002 20 14.5002 19.0625 15.5002C17 18.0002 20 19 22.7153 17.344C27 12 35.5 16 37.0347 14.7641C37.6459 14.5943 38.9514 10.6387 29 10.5C29 10.5 26 10.8574 24.5 11.5002Z" fill="url(#paint2_linear_45_144)"/>
<path fill-rule="evenodd" clip-rule="evenodd" d="M65.7733 36.2312L67.5191 34.3545C67.8353 36.1888 68 38.0748 68 39.9994C68 58.2248 53.2254 72.9994 35 72.9994C23.2198 72.9994 12.8812 66.8267 7.04226 57.5394L8.82992 56.6237C14.3314 65.2661 23.9961 70.9994 35 70.9994C52.1208 70.9994 66 57.1202 66 39.9994C66 38.7239 65.923 37.4664 65.7733 36.2312Z" fill="#996600"/>
<defs>
<linearGradient id="paint0_linear_45_144" x1="26.4154" y1="9.5044" x2="42" y2="58.5" gradientUnits="userSpaceOnUse">
<stop stop-color="#996600"/>
<stop offset="1" stop-color="#734D01"/>
</linearGradient>
<linearGradient id="paint1_linear_45_144" x1="-2" y1="19.5" x2="13" y2="26.5" gradientUnits="userSpaceOnUse">
<stop stop-color="white"/>
<stop offset="1" stop-color="white" stop-opacity="0"/>
</linearGradient>
<linearGradient id="paint2_linear_45_144" x1="27.9139" y1="10.5" x2="29" y2="17" gradientUnits="userSpaceOnUse">
<stop stop-color="white"/>
<stop offset="1" stop-color="#C4C4C4" stop-opacity="0"/>
</linearGradient>
</defs>
</svg>
