<svg width="30" height="29" viewBox="0 0 30 29" fill="none" xmlns="http://www.w3.org/2000/svg">
<path d="M29.9998 14.2867H28.6758L28.6581 13.6152L28.6058 12.9546L28.518 12.3022L28.3987 11.6609L28.2457 11.0312L28.0618 10.4131L27.8471 9.80905L27.6016 9.21745L27.3274 8.64041L27.0265 8.07815L26.6962 7.5328L26.3405 7.00506L25.9594 6.49398L25.5536 6.00216L25.1232 5.52935L24.6707 5.07696L24.1957 4.64524L23.6992 4.23605L23.1818 3.84893L22.6462 3.48528L22.0911 3.14722L21.5184 2.83264L20.9288 2.546L20.3229 2.28494L19.7017 2.05112L19.0675 1.84664L18.4185 1.67151L17.7573 1.52572L17.0839 1.4121L16.3989 1.32852L15.7052 1.27875L15.0002 1.26185V0.000943234L15.7715 0.0192546L16.5327 0.0748932L17.2841 0.165746L18.0223 0.291109L18.7483 0.450277L19.4604 0.643017L20.1578 0.868153L20.8391 1.12404L21.5034 1.40998L22.15 1.72598L22.778 2.0699L23.3869 2.44153L23.9751 2.84039L24.5415 3.26413L25.0858 3.71276L25.6069 4.18557L26.1026 4.68186L26.5744 5.20021L27.0201 5.73899L27.4381 6.29983L27.8276 6.87899L28.1887 7.47716L28.5205 8.09365L28.8207 8.72633L29.0894 9.37521L29.3258 10.0394L29.5282 10.7176L29.6953 11.409L29.827 12.1121L29.9224 12.8276L29.9808 13.5526L30 14.2871L29.9998 14.2867V14.2867ZM15 28.5731V27.3122L15.705 27.2953L16.3986 27.2455L17.0837 27.1619L17.7571 27.0483L18.4182 26.9025L19.0672 26.7274L19.7015 26.5229L20.3227 26.2891L20.9286 26.028L21.5182 25.7414L22.0908 25.4268L22.6459 25.0887L23.1816 24.7251L23.699 24.338L24.1954 23.9288L24.6704 23.4971L25.123 23.0447L25.5534 22.5719L25.9591 22.08L26.3402 21.569L26.6959 21.0412L27.0262 20.4959L27.3272 19.9336L27.6013 19.3566L27.8468 18.765L28.0615 18.1609L28.2454 17.5428L28.3985 16.9132L28.5178 16.2718L28.6056 15.6194L28.6578 14.9588L28.6756 14.2874H29.9995L29.9803 15.0219L29.9219 15.7469L29.8265 16.4624L29.6948 17.1655L29.5277 17.8569L29.3253 18.5351L29.0889 19.1993L28.8203 19.8482L28.52 20.4808L28.1882 21.0973L27.8271 21.6955L27.4376 22.2747L27.0196 22.8355L26.5739 23.3743L26.1021 23.8926L25.6064 24.3889L25.0853 24.8617L24.541 25.3104L23.9746 25.7341L23.3864 26.133L22.7776 26.5046L22.1495 26.8485L21.5029 27.1645L20.8386 27.4504L20.1573 27.7063L19.4599 27.9315L18.7478 28.1242L18.0218 28.2834L17.2836 28.4087L16.5322 28.4996L15.7711 28.5552L14.9998 28.5735L15 28.5731ZM0.000246083 14.2867H1.3242L1.34194 14.9581L1.3942 15.6187L1.48196 16.2711L1.60126 16.9125L1.75434 17.5421L1.93823 18.1602L2.15293 18.7643L2.39844 19.3559L2.67255 19.9329L2.97353 20.4952L3.30384 21.0405L3.65954 21.5683L4.04063 22.0793L4.44637 22.5712L4.87675 23.044L5.32933 23.4964L5.80433 23.9281L6.30078 24.3373L6.81818 24.7244L7.35383 25.088L7.90895 25.4261L8.48156 25.7407L9.07119 26.0273L9.67709 26.2884L10.2983 26.5222L10.9325 26.7267L11.5815 26.9018L12.2427 27.0476L12.9161 27.1612L13.6011 27.2448L14.2948 27.2946L14.9998 27.3115V28.5724L14.2285 28.5541L13.4673 28.4984L12.7159 28.4076L11.9777 28.2822L11.2517 28.123L10.5396 27.9303L9.84224 27.7052L9.16092 27.4493L8.4966 27.1633L7.85003 26.8473L7.22195 26.5034L6.61309 26.1318L6.02495 25.7329L5.45849 25.3092L4.91422 24.8606L4.39312 24.3878L3.89741 23.8915L3.42561 23.3731L2.97994 22.8343L2.56188 22.2735L2.17241 21.6943L1.81128 21.0962L1.47949 20.4797L1.17926 19.847L0.910571 19.1981L0.674177 18.534L0.471801 17.8557L0.304674 17.1644L0.173043 16.4613L0.0776474 15.7457L0.019227 15.0208L0 14.2862L0.0002465 14.2867L0.000246083 14.2867ZM15 0.000468492V1.26137L14.295 1.27828L13.6014 1.32805L12.9163 1.41162L12.2429 1.52525L11.5818 1.67103L10.9328 1.84616L10.2985 2.05064L9.67733 2.28447L9.07143 2.54552L8.48181 2.83217L7.90919 3.14675L7.35407 3.48481L6.81843 3.84845L6.30102 4.23557L5.80457 4.64476L5.32957 5.07649L4.877 5.52887L4.44661 6.00168L4.04087 6.49351L3.65978 7.00458L3.30408 7.53233L2.97377 8.07768L2.67279 8.63993L2.39869 9.21698L2.15317 9.80858L1.93847 10.4126L1.75458 11.0307L1.6015 11.6604L1.4822 12.3017L1.39444 12.9541L1.34219 13.6148L1.32444 14.2862H0.000488313L0.0197153 13.5516L0.0781357 12.8267L0.173531 12.1111L0.305162 11.408L0.472289 10.7166L0.674665 10.0384L0.911059 9.37427L1.17974 8.72539L1.47998 8.0927L1.81177 7.47622L2.17289 6.87805L2.56236 6.29889L2.98043 5.73804L3.4261 5.19927L3.8979 4.68091L4.39361 4.18463L4.91471 3.71182L5.45898 3.26319L6.02543 2.83944L6.61358 2.44059L7.22244 2.06896L7.85052 1.72503L8.49709 1.40904L9.1614 1.1231L9.84273 0.86721L10.5401 0.642073L11.2522 0.449334L11.9782 0.290165L12.7164 0.164803L13.4678 0.0739499L14.2289 0.0183114L15.0002 0L15 0.000469524V0.000468492Z" fill="white"/>
<path fill-rule="evenodd" clip-rule="evenodd" d="M21.5515 6.80081L3.89823 13.3528C3.32561 13.5645 3.36012 14.347 3.94975 14.5118L8.43531 15.7734L10.1095 20.8335C10.285 21.3612 10.9878 21.5218 11.395 21.126L13.7143 18.8701L18.2652 22.0519C18.8218 22.4411 19.6153 22.1516 19.7563 21.5072L22.7707 7.7833C22.9177 7.11188 22.2242 6.55174 21.5513 6.80082H21.5515L21.5515 6.80081ZM19.5448 9.61679L11.3452 16.5228C11.2636 16.5918 11.2121 16.6871 11.1991 16.7904L10.8843 19.4627C10.8734 19.55 10.745 19.5618 10.7179 19.4782L9.41932 15.4922C9.36016 15.3095 9.43707 15.1116 9.6079 15.0104L19.2909 9.29141C19.5142 9.15948 19.742 9.45129 19.545 9.61703L19.5448 9.61679L19.5448 9.61679Z" fill="white"/>
</svg>
