<svg width="31" height="34" viewBox="0 0 31 34" fill="none" xmlns="http://www.w3.org/2000/svg">
<g clip-path="url(#clip0_68_109)">
<path fill-rule="evenodd" clip-rule="evenodd" d="M30.6724 19.578C31.6801 11.0926 30.188 5.73563 27.4962 3.31327L27.4977 3.31173C23.1525 -0.825897 8.47986 -1.43839 3.28189 3.49783C0.947721 5.91227 0.12561 9.45605 0.0356365 13.8427C-0.0551124 18.2308 -0.161711 26.4509 7.49825 28.6807H7.50541L7.49825 32.0868C7.49825 32.0868 7.44661 33.4666 8.32777 33.7432C9.33546 34.0702 9.79176 33.4291 12.9268 29.6851C18.1701 30.1391 22.1965 29.0974 22.6546 28.9456C23.7131 28.5908 29.7038 27.798 30.6724 19.5783V19.578L30.6724 19.578ZM13.4439 27.2891C13.4439 27.2891 10.1261 31.426 9.09387 32.5004C8.75593 32.8496 8.38526 32.8168 8.39165 32.1243C8.39165 31.6703 8.41619 26.4708 8.41619 26.4708C1.92216 24.6098 2.30458 17.6099 2.3754 13.9477C2.44545 10.2848 3.11571 7.285 5.09275 5.26425C9.65267 0.988825 22.5163 1.9449 25.7934 5.02498C29.8007 8.57748 28.374 18.612 28.3827 18.9548C27.5588 25.8164 22.7046 26.2513 21.8122 26.548C21.4306 26.6753 17.8901 27.5859 13.4437 27.2891H13.4439L13.4439 27.2891Z" fill="white"/>
<path fill-rule="evenodd" clip-rule="evenodd" d="M15.278 6.06815C14.7355 6.06815 14.7355 6.91275 15.278 6.91991C19.4834 6.95263 22.9467 9.88394 22.984 15.2598C22.984 15.8276 23.815 15.8204 23.8079 15.2535H23.8063C23.7619 9.45984 19.9803 6.10087 15.278 6.06815L15.278 6.06815Z" fill="white"/>
<path fill-rule="evenodd" clip-rule="evenodd" d="M20.8091 14.369C20.7963 14.9288 21.6258 14.9559 21.633 14.3889C21.7023 11.1943 19.7324 8.56284 16.0311 8.28523C15.4887 8.24637 15.4322 9.09787 15.9731 9.13699C19.1835 9.38111 20.8743 11.5714 20.8091 14.369L20.8091 14.369Z" fill="white"/>
<path fill-rule="evenodd" clip-rule="evenodd" d="M19.9223 18.0028C19.2265 17.6004 18.5186 17.8509 18.2259 18.2461L17.6137 19.0391C17.3018 19.4415 16.7205 19.3883 16.7205 19.3883C12.4778 18.2661 11.3431 13.8255 11.3431 13.8255C11.3431 13.8255 11.2907 13.2251 11.6795 12.9022L12.4454 12.2693C12.8278 11.9645 13.0704 11.2329 12.68 10.5133C11.6383 8.63087 10.9392 7.98208 10.5828 7.48335C10.2083 7.01504 9.64518 6.9092 9.05902 7.22568H9.04624C7.82867 7.93812 6.49504 9.272 6.9222 10.6445C7.64998 12.0918 8.98744 16.7052 13.2501 20.1907C15.2542 21.8393 18.424 23.5285 19.7704 23.9188L19.7832 23.938C21.1089 24.3803 22.3988 22.9947 23.0875 21.7406V21.7311C23.393 21.1243 23.291 20.5494 22.8449 20.1741C22.0537 19.4018 20.8599 18.5509 19.9223 18.003V18.0028H19.9223Z" fill="white"/>
<path fill-rule="evenodd" clip-rule="evenodd" d="M16.6108 11.4283C17.9636 11.507 18.6196 12.2133 18.6904 13.6653C18.716 14.2323 19.5388 14.1927 19.5143 13.6254C19.4235 11.7304 18.4358 10.6749 16.6561 10.5763C16.1136 10.5435 16.0635 11.3953 16.6108 11.428V11.4283L16.6108 11.4283Z" fill="white"/>
</g>
<defs>
<clipPath id="clip0_68_109">
<rect width="31" height="33.8182" fill="white"/>
</clipPath>
</defs>
</svg>
