<svg width="30" height="31" viewBox="0 0 30 31" fill="none" xmlns="http://www.w3.org/2000/svg">
<g clip-path="url(#clip0_68_102)">
<path d="M15.0019 27.2815V25.9419L15.2668 25.938L15.531 25.9288L15.792 25.9125L16.0529 25.8894L16.3132 25.86L16.5704 25.8255L16.8267 25.783L17.0815 25.7352L17.3341 25.6812L17.5852 25.6212L17.8346 25.5541L18.0817 25.4819L18.3267 25.4034L18.5699 25.3181L18.8101 25.2281L19.0481 25.1311L19.2852 25.028L19.5185 24.9202L19.7487 24.8063L19.9766 24.6861L20.2023 24.5598L20.4255 24.4281L20.6443 24.2902L20.8614 24.1469L21.0747 23.9974L21.2849 23.8435L21.4921 23.6835L21.6961 23.5179L21.8954 23.3477L22.0917 23.1706L22.2848 22.9881L22.4743 22.8009L23.4091 23.7478L23.1965 23.958L22.9802 24.162L22.7592 24.3605L22.5335 24.5537L22.3048 24.7392L22.073 24.9192L21.8349 25.0931L21.5954 25.2594L21.3522 25.4212L21.1043 25.5759L20.8532 25.7243L20.5999 25.8659L20.3426 26.0013L20.0817 26.1306L19.8192 26.2522L19.5543 26.3676L19.2857 26.4769L19.0146 26.5793L18.7406 26.674L18.4648 26.7633L18.1853 26.8449L17.9051 26.9197L17.6234 26.9875L17.3385 27.0492L17.0514 27.1032L16.7626 27.15L16.473 27.1893L16.1819 27.2216L15.8887 27.2477L15.5937 27.2655L15.2986 27.2763L15.0014 27.2803L15.0019 27.2815ZM15.0019 25.9417V27.2813L14.9681 27.2805L14.9343 27.2783L14.902 27.2736L14.8689 27.2674L14.8374 27.2605L14.8058 27.2514L14.775 27.2406L14.7449 27.229L14.7155 27.2152L14.6872 27.2006L14.6595 27.1843L14.6334 27.1666L14.6073 27.1481L14.5826 27.1281L14.5579 27.1074L14.5355 27.0849L14.513 27.0617L14.4923 27.0371L14.4731 27.0117L14.4546 26.9855L14.4368 26.9586L14.4215 26.9303L14.407 26.9019L14.3939 26.8718L14.3816 26.8417L14.3714 26.8109L14.3623 26.7786L14.3547 26.7462L14.3493 26.7132L14.3446 26.6802L14.3423 26.6463L14.3416 26.6118L14.3423 26.5773L14.3446 26.5435L14.3493 26.5105L14.3547 26.4774L14.3623 26.4451L14.3714 26.4128L14.3816 26.3819L14.3939 26.3518L14.407 26.3218L14.4215 26.2934L14.4368 26.265L14.4546 26.2381L14.4731 26.212L14.4923 26.1866L14.513 26.1619L14.5355 26.1387L14.5579 26.1163L14.5826 26.0956L14.6073 26.0756L14.6334 26.0571L14.6595 26.0393L14.6872 26.023L14.7155 26.0085L14.7449 25.9947L14.775 25.9831L14.8058 25.9722L14.8374 25.9631L14.8689 25.9562L14.902 25.95L14.9343 25.9454L14.9681 25.9431L15.0019 25.9424V25.9417ZM9.70928 26.0233L10.2991 24.8238H10.2983L10.4362 24.8916L10.5755 24.9587L10.7149 25.0226L10.8558 25.0857L10.9951 25.1449L11.136 25.2019L11.28 25.2581L11.4201 25.3112L11.5634 25.362L11.7082 25.4121L11.8523 25.4589L11.9971 25.5036L12.1404 25.546L12.2867 25.5852L12.4344 25.6244L12.5807 25.6607L12.7284 25.6945L12.8762 25.7261L13.0247 25.7562L13.1717 25.783L13.3219 25.8077L13.4736 25.8316L13.6245 25.8524L13.7748 25.8708L13.9257 25.8879L14.0781 25.9017L14.2321 25.914L14.3838 25.9241L14.5377 25.931L14.6916 25.9372L14.8463 25.9402L15.0019 25.9417V27.2813L14.828 27.2798L14.6549 27.2768L14.4824 27.2707L14.31 27.2623L14.1369 27.2507L13.9674 27.2369L13.7965 27.2216L13.6241 27.2031L13.4539 27.1816L13.2844 27.1577L13.1174 27.1323L12.9487 27.1046L12.7785 27.0731L12.6115 27.04L12.4453 27.0038L12.279 26.9653L12.1128 26.9246L11.9495 26.8822L11.7847 26.8368L11.6199 26.7882L11.4566 26.7374L11.2941 26.6843L11.134 26.6296L10.9722 26.5726L10.8104 26.5117L10.6525 26.4493L10.4932 26.3847L10.3338 26.3161L10.1774 26.2468L10.0211 26.1752L9.86468 26.1005L9.71002 26.0235H9.70928V26.0233ZM10.2983 24.8238L9.71002 26.0233L9.67993 26.007L9.65059 25.9893L9.62369 25.9707L9.59682 25.9508L9.57139 25.9301L9.54748 25.9076L9.52428 25.8837L9.50284 25.8598L9.48285 25.8343L9.4636 25.8082L9.44585 25.7813L9.42956 25.7537L9.41503 25.7253L9.40121 25.696L9.38887 25.6666L9.378 25.6358L9.36888 25.6057L9.36125 25.5741L9.35434 25.5426L9.34965 25.511L9.34669 25.4787L9.34448 25.4464V25.414L9.34522 25.3817L9.34817 25.3487L9.35213 25.3164L9.35827 25.284L9.36592 25.2517L9.37505 25.2194L9.38591 25.1879L9.39825 25.1563L9.41278 25.1247L9.42907 25.0939L9.44611 25.0645L9.46459 25.0369L9.48384 25.01L9.50454 24.9846L9.52701 24.9599L9.55018 24.9367L9.57412 24.9143L9.59878 24.8943L9.62417 24.8751L9.65107 24.8566L9.67794 24.8403L9.70632 24.825L9.7347 24.8112L9.76405 24.7989L9.79413 24.788L9.82422 24.7789L9.85507 24.7705L9.88589 24.7643L9.91746 24.7589L9.94905 24.7559L9.98135 24.7537H10.0129L10.0452 24.7545L10.0776 24.7574L10.1091 24.7621L10.1414 24.7683L10.173 24.7759L10.2053 24.7851L10.2369 24.7959L10.2677 24.809L10.2986 24.8235L10.2983 24.8238ZM9.29045 24.3132L10.299 24.8238L9.70928 26.0233L8.70069 25.5127L8.84301 24.2606L9.29045 24.3129V24.3132ZM9.29045 24.3132L8.70069 25.5127L8.67058 25.4964L8.64123 25.4787L8.61436 25.4602L8.58746 25.4402L8.56207 25.4195L8.53813 25.397L8.51495 25.3731L8.49348 25.3492L8.47349 25.3237L8.45427 25.2976L8.4365 25.2707L8.42023 25.2431L8.40567 25.2147L8.39185 25.1854L8.37954 25.1553L8.36868 25.1252L8.35955 25.0944L8.3519 25.0635L8.34573 25.032L8.3403 24.9996L8.33734 24.9673L8.33512 24.935V24.9027L8.3366 24.8704L8.33882 24.8374L8.34351 24.805L8.34968 24.7727L8.35733 24.7404L8.36646 24.7081L8.37729 24.6765L8.38963 24.645L8.40419 24.6134L8.42049 24.5825L8.43749 24.5532L8.456 24.5256L8.47597 24.4987L8.49669 24.4733L8.51816 24.4486L8.54134 24.4254L8.56525 24.404L8.59067 24.3832L8.61607 24.364L8.64297 24.3462L8.66984 24.3292L8.69822 24.3147L8.72657 24.3009L8.75594 24.2885L8.78603 24.2769L8.81611 24.2678L8.84694 24.2602L8.87779 24.2533L8.90935 24.2486L8.94092 24.2446L8.97325 24.2431H9.00481L9.03712 24.2439L9.06945 24.2468L9.10101 24.2515L9.13332 24.2577L9.16491 24.2653L9.19721 24.2745L9.22877 24.2853L9.25962 24.2984L9.29045 24.3129V24.3132ZM4.40359 25.328L8.84327 24.2609L9.14813 25.5652L4.70846 26.6323L3.90927 25.8455L4.40359 25.328ZM4.40359 25.328L4.70846 26.6323L4.67541 26.6392L4.64237 26.6446L4.6093 26.6486L4.57626 26.6501L4.54319 26.6508L4.51088 26.6493L4.47858 26.6463L4.44625 26.6417L4.41469 26.6348L4.38386 26.6271L4.35303 26.618L4.32292 26.6079L4.29358 26.5955L4.2652 26.5817L4.23685 26.5672L4.20995 26.5509L4.18308 26.5331L4.15766 26.5146L4.13226 26.4947L4.10835 26.4732L4.08514 26.4508L4.0637 26.4268L4.04297 26.4022L4.02372 26.3768L4.00524 26.3499L3.98747 26.3222L3.97217 26.2929L3.95764 26.2628L3.94456 26.232L3.93222 26.2004L3.92209 26.1681L3.91371 26.135L3.90682 26.1012L3.90139 26.0675L3.89843 26.0344L3.89621 26.0006V25.9676L3.89769 25.9345L3.90065 25.9022L3.90534 25.8699L3.91149 25.8376L3.91914 25.806L3.92752 25.7752L3.93839 25.7443L3.95073 25.715L3.96378 25.6856L3.97834 25.6572L3.99463 25.6289L4.01164 25.602L4.03015 25.5766L4.05011 25.5512L4.07084 25.5265L4.09328 25.5033L4.11648 25.4809L4.14113 25.4602L4.16655 25.4402L4.19269 25.4217L4.22033 25.4039L4.24868 25.3876L4.27805 25.3731L4.30814 25.3593L4.3397 25.3477L4.37126 25.3368L4.40433 25.3284L4.40359 25.328ZM6.13664 21.5121L5.20278 26.1148L3.90927 25.8452L4.84315 21.2425L6.07818 21.0723L6.13664 21.5118V21.5121ZM6.13664 21.5121L4.84315 21.2425L4.85078 21.2087L4.8599 21.1764L4.87077 21.1441L4.88311 21.1132L4.89693 21.0831L4.91146 21.0538L4.92775 21.0254L4.9455 20.9978L4.96475 20.9717L4.98474 20.9463L5.00544 20.9223L5.0279 20.8991L5.05108 20.8767L5.07573 20.856L5.10115 20.8367L5.12729 20.8182L5.15345 20.8012L5.18106 20.7859L5.20944 20.7714L5.23878 20.7583L5.26887 20.7467L5.29898 20.7366L5.3298 20.7282L5.36137 20.7206L5.39296 20.7151L5.42526 20.7112L5.45757 20.7082L5.4899 20.7075L5.52294 20.7082L5.55598 20.7112L5.58979 20.7151L5.62284 20.7213L5.6559 20.729L5.68821 20.7381L5.71977 20.7489L5.74986 20.7613L5.77997 20.7751L5.80932 20.7904L5.83695 20.8074L5.86383 20.8252L5.88999 20.8444L5.91464 20.8644L5.93856 20.8858L5.96176 20.9083L5.9832 20.9322L6.00319 20.9569L6.02244 20.9823L6.04093 21.0084L6.05796 21.036L6.07326 21.0637L6.08705 21.093L6.10013 21.1224L6.11173 21.1525L6.12183 21.1833L6.13021 21.2141L6.13712 21.2465L6.14255 21.2788L6.14651 21.3111L6.14946 21.3441L6.1502 21.3772L6.14946 21.4102L6.14651 21.444L6.14255 21.4778L6.13638 21.5116L6.13664 21.5121ZM5.58166 20.0861L6.07818 21.0725L4.90159 21.6823L4.40507 20.6959L5.58166 20.0861ZM5.58166 20.0861L4.40507 20.6959L4.39051 20.6651L4.37744 20.6335L4.3666 20.6012L4.35648 20.5696L4.34883 20.5373L4.34266 20.505L4.33797 20.4719L4.33501 20.4396L4.33353 20.4073V20.375L4.33501 20.3427L4.33797 20.3104L4.34266 20.278L4.34883 20.2465L4.35648 20.2156L4.3656 20.1848L4.37573 20.154L4.38804 20.1246L4.40112 20.0953L4.41568 20.0659L4.43195 20.0383L4.44898 20.0114L4.46823 19.9852L4.48819 19.9599L4.50892 19.9352L4.5321 19.9113L4.55604 19.8888L4.58069 19.8674L4.60683 19.8474L4.63446 19.8281L4.66284 19.8104L4.69293 19.7941L4.72375 19.7795L4.75458 19.7665L4.78617 19.7549L4.81773 19.7448L4.8493 19.7371L4.88089 19.7302L4.91319 19.7255L4.9455 19.7226L4.97709 19.7211H5.00939L5.04095 19.7226L5.07255 19.7255L5.10411 19.7302L5.13567 19.7364L5.16652 19.744L5.19661 19.7532L5.2267 19.764L5.25604 19.7763L5.28541 19.7894L5.31303 19.8047L5.34067 19.821L5.36754 19.8387L5.3937 19.8572L5.41835 19.878L5.44303 19.8994L5.46621 19.9219L5.48865 19.9465L5.50938 19.9719L5.52937 19.9988L5.54785 20.0264L5.56562 20.0558L5.58189 20.0859L5.58166 20.0861ZM3.11233 15.2192H4.43345L4.43493 15.3811L4.43789 15.5419L4.44329 15.7005L4.45094 15.8598L4.4618 16.0192L4.47414 16.1778L4.48796 16.3342L4.50571 16.492L4.52496 16.6491L4.5464 16.8055L4.5696 16.9612L4.59574 17.1151L4.62337 17.2697L4.6542 17.4237L4.6865 17.5769L4.72105 17.7293L4.75879 17.8817L4.79726 18.0327L4.83895 18.1829L4.88285 18.3331L4.92897 18.4833L4.97683 18.6328L5.02765 18.7798L5.08068 18.9293L5.13471 19.0763L5.19169 19.2211L5.25087 19.3666L5.31328 19.5122L5.37644 19.6577L5.44252 19.801L5.51111 19.945L5.58115 20.0866L4.40459 20.6964L4.32517 20.5363L4.24893 20.3755L4.17494 20.2137L4.10266 20.0511L4.0341 19.8886L3.96699 19.7245L3.90239 19.5583L3.84071 19.3928L3.78151 19.228L3.72452 19.0593L3.67052 18.8916L3.61823 18.7228L3.56963 18.5541L3.52177 18.3839L3.47713 18.2115L3.43644 18.0406L3.39722 17.8696L3.3602 17.6965L3.32642 17.524L3.29412 17.3492L3.26474 17.1735L3.23861 16.9997L3.21393 16.8233L3.19323 16.6477L3.17398 16.4713L3.15697 16.2935L3.14315 16.1149L3.13229 15.937L3.12316 15.7592L3.11625 15.5791L3.1133 15.3998L3.11182 15.2198L3.11233 15.2192ZM4.43345 15.2192H3.11233L3.11307 15.1847L3.11528 15.1509L3.11998 15.1179L3.12538 15.0848L3.13303 15.0525L3.14216 15.0202L3.15228 14.9894L3.16462 14.9593L3.17767 14.9292L3.19223 14.9008L3.20753 14.8724L3.22528 14.8456L3.24379 14.8194L3.26304 14.794L3.28374 14.7693L3.3062 14.7462L3.32864 14.7237L3.35329 14.703L3.37797 14.683L3.40411 14.6645L3.43027 14.6467L3.45788 14.6305L3.48626 14.6159L3.5156 14.6021L3.54569 14.5905L3.57654 14.5797L3.6081 14.5705L3.63967 14.5636L3.67274 14.5575L3.70504 14.5528L3.73885 14.5505L3.77263 14.5498L3.80642 14.5505L3.84022 14.5528L3.87253 14.5575L3.90557 14.5636L3.93716 14.5705L3.96873 14.5797L3.99955 14.5905L4.02966 14.6021L4.05901 14.6159L4.08736 14.6305L4.115 14.6467L4.14113 14.6645L4.16729 14.683L4.19195 14.703L4.21663 14.7237L4.23907 14.7462L4.2615 14.7693L4.28223 14.794L4.30148 14.8194L4.31997 14.8456L4.33774 14.8724L4.35303 14.9008L4.36757 14.9292L4.38065 14.9593L4.39299 14.9894L4.40311 15.0202L4.41224 15.0525L4.41986 15.0848L4.42529 15.1179L4.42998 15.1509L4.4322 15.1847L4.43294 15.2192H4.43345ZM6.59494 6.69116L7.52979 7.6381L7.34431 7.83124L7.16573 8.02611L6.99082 8.22638L6.82137 8.42964L6.65883 8.63511L6.5017 8.84452L6.34925 9.05937L6.2015 9.27569L6.06066 9.49521L5.92599 9.71772L5.79675 9.94341L5.67194 10.1721L5.55328 10.4039L5.44082 10.6373L5.3345 10.8736L5.23213 11.1146L5.13667 11.3555L5.04812 11.5997L4.96352 11.8462L4.88655 12.0948L4.81503 12.3449L4.74966 12.5975L4.69046 12.853L4.63645 13.1103L4.58957 13.3676L4.54887 13.6278L4.51435 13.8888L4.48597 14.1522L4.46354 14.4179L4.44724 14.6843L4.43715 14.9514L4.43419 15.2193H3.11307L3.11602 14.9173L3.12762 14.6179L3.14537 14.3192L3.17079 14.0227L3.20235 13.727L3.24157 13.4319L3.28843 13.1394L3.34146 12.8484L3.40141 12.5605L3.46851 12.2741L3.54176 11.9892L3.62266 11.7065L3.71047 11.4256L3.80445 11.1484L3.90534 10.8736L4.01314 10.6003L4.12635 10.3316L4.24646 10.0645L4.37425 9.80035L4.50818 9.53937L4.64681 9.28311L4.79308 9.0283L4.94626 8.77817L5.10559 8.52953L5.27037 8.28706L5.4413 8.04757L5.6184 7.81053L5.80241 7.57867L5.99185 7.35073L6.18671 7.12603L6.38849 6.9065L6.59568 6.69167L6.59494 6.69116ZM7.52954 7.63836L6.59468 6.69142L6.61936 6.66748L6.64476 6.64504L6.67092 6.62505L6.69853 6.60582L6.72617 6.58805L6.75452 6.57179L6.7829 6.55723L6.81298 6.54415L6.84307 6.53257L6.87392 6.52345L6.90475 6.51506L6.93557 6.50815L6.96716 6.50272L6.99873 6.49877L7.03029 6.49655L7.06188 6.49581L7.09345 6.49655L7.12501 6.49877L7.1566 6.50272L7.18816 6.50815L7.21899 6.51506L7.24984 6.52345L7.28067 6.53257L7.31075 6.54415L7.34084 6.55723L7.36922 6.57179L7.39757 6.58805L7.42521 6.60582L7.45284 6.62505L7.47898 6.64504L7.50437 6.66748L7.52905 6.69142L7.55223 6.71607L7.57469 6.74223L7.59465 6.7691L7.6139 6.796L7.63091 6.82436L7.6472 6.85273L7.66176 6.88282L7.67408 6.9129L7.68568 6.94302L7.6958 6.97384L7.70419 7.00541L7.7111 7.037L7.71576 7.06856L7.71971 7.10086L7.72193 7.13245L7.72267 7.16476L7.72193 7.19706L7.71971 7.22865L7.71576 7.26096L7.7111 7.29252L7.70419 7.32411L7.6958 7.35568L7.68568 7.3865L7.67408 7.41661L7.66176 7.4467L7.6472 7.47678L7.63091 7.50516L7.6139 7.53351L7.59465 7.56041L7.57469 7.58729L7.55223 7.61345L7.52905 7.6381L7.52954 7.63836ZM15.0019 3.15799V4.4976L14.7402 4.50155L14.4785 4.51068L14.2198 4.52771L13.9595 4.55089L13.7008 4.58023L13.4445 4.61649L13.1882 4.65818L12.9327 4.70677L12.6794 4.76154L12.4292 4.82245L12.1791 4.88956L11.9305 4.96355L11.6848 5.042L11.4416 5.12734L11.1991 5.21884L10.9596 5.31578L10.7226 5.41963L10.487 5.52817L10.2552 5.64285L10.0258 5.76299L9.79933 5.88927L9.57683 6.02099L9.35582 6.15887L9.13877 6.30119L8.92465 6.44968L8.71451 6.60361L8.5073 6.76296L8.30481 6.92698L8.10451 7.09717L7.9089 7.27281L7.71724 7.45287L7.53005 7.63836L6.59519 6.69142L6.80681 6.48275L7.02167 6.2795L7.24194 6.08241L7.46664 5.89075L7.69529 5.70526L7.92863 5.52595L8.16493 5.35352L8.40519 5.18654L8.65013 5.02571L8.89729 4.87105L9.14912 4.72255L9.40467 4.58097L9.66193 4.44556L9.92291 4.31706L10.1863 4.1947L10.4527 4.07854L10.7231 3.96926L10.9949 3.86689L11.2689 3.77069L11.5469 3.68141L11.8249 3.59977L12.1059 3.52353L12.39 3.45497L12.6742 3.39404L12.9605 3.33927L13.2477 3.29144L13.538 3.25072L13.829 3.21842L14.1201 3.19228L14.4141 3.17377L14.7081 3.16291L15.0022 3.15896L15.0019 3.15799H15.0019ZM15.0019 4.4976V3.15799L15.0357 3.15873L15.0695 3.16095L15.1018 3.16564L15.1349 3.17181L15.1664 3.17869L15.198 3.18782L15.2289 3.19868L15.2589 3.21028L15.2883 3.2241L15.3167 3.23863L15.3443 3.25493L15.3704 3.27267L15.3966 3.29118L15.4213 3.31117L15.4459 3.33188L15.4684 3.35434L15.4908 3.37751L15.5115 3.40217L15.5308 3.42759L15.5493 3.45372L15.567 3.48062L15.5823 3.50897L15.5969 3.53735L15.61 3.56744L15.6223 3.59755L15.6324 3.62837L15.6415 3.66068L15.6492 3.69301L15.6546 3.72605L15.6593 3.75909L15.6615 3.7929L15.6622 3.82742L15.6615 3.86195L15.6593 3.89576L15.6546 3.9288L15.6492 3.96187L15.6415 3.99417L15.6324 4.02648L15.6223 4.05733L15.61 4.08741L15.5969 4.1175L15.5823 4.14588L15.567 4.17423L15.5493 4.20113L15.5308 4.22726L15.5115 4.25268L15.4908 4.27734L15.4684 4.30054L15.4459 4.32297L15.4213 4.3437L15.3966 4.36367L15.3704 4.38218L15.3443 4.39992L15.3167 4.41621L15.2883 4.43077L15.2589 4.44457L15.2289 4.45617L15.198 4.46703L15.1664 4.47616L15.1349 4.48307L15.1018 4.48921L15.0695 4.4939L15.0357 4.49612L15.0019 4.49686V4.4976ZM23.4084 6.69045L22.4753 7.63909L22.4745 7.63836L22.2851 7.45113L22.092 7.26861L21.8956 7.09151L21.6963 6.92132L21.4923 6.7558L21.2851 6.59573L21.0742 6.44107L20.8616 6.29158L20.6453 6.14926L20.4258 6.01137L20.2026 5.87966L19.9768 5.75338L19.7489 5.63324L19.518 5.51929L19.2847 5.41002L19.0491 5.30765L18.8111 5.21145L18.5701 5.12142L18.3269 5.03608L18.082 4.95763L17.8348 4.88537L17.5855 4.81827L17.3344 4.75833L17.0818 4.70432L16.827 4.65647L16.5707 4.61404L16.3134 4.57949L16.0532 4.55015L15.7922 4.52697L15.5305 4.51068L15.2671 4.50058L15.0022 4.49762V3.15799L15.2994 3.16095L15.5951 3.17255L15.8892 3.19029L16.1824 3.21645L16.4735 3.24876L16.7631 3.28797L17.0519 3.33486L17.339 3.38886L17.6239 3.45054L17.9056 3.51836L18.1858 3.59311L18.4653 3.67475L18.7411 3.76404L19.0151 3.85876L19.2854 3.96113L19.5541 4.06967L19.8205 4.18583L20.0829 4.30745L20.3431 4.43669L20.6004 4.5721L20.8537 4.71368L21.1048 4.86217L21.352 5.01683L21.5962 5.17767L21.8364 5.34538L22.0735 5.51855L22.3053 5.69861L22.534 5.8841L22.7597 6.07723L22.9807 6.2758L23.197 6.4798L23.4096 6.68994L23.4089 6.6892L23.4084 6.69045ZM22.4743 7.63836L23.4091 6.69142L23.4323 6.7161L23.4548 6.74223L23.4748 6.76913L23.494 6.79674L23.511 6.82438L23.5273 6.85373L23.5411 6.88307L23.5542 6.91318L23.5658 6.94401L23.5749 6.97484L23.5833 7.0064L23.5902 7.03799L23.5956 7.06955L23.5996 7.10112L23.6011 7.13345L23.6018 7.16575L23.6011 7.19806L23.5988 7.22965L23.5949 7.26195L23.5902 7.29352L23.5833 7.32511L23.5749 7.35667L23.5648 7.3875L23.5532 7.41761L23.5409 7.44769L23.5263 7.47778L23.51 7.50616L23.493 7.53451L23.4738 7.56141L23.4538 7.58828L23.4313 7.61444L23.4081 7.63909L23.3835 7.66304L23.3581 7.68547L23.3319 7.70546L23.3043 7.72469L23.2767 7.74246L23.2483 7.75872L23.22 7.77328L23.1899 7.78636L23.1598 7.79796L23.1289 7.80707L23.0981 7.81545L23.0673 7.82236L23.0357 7.82779L23.0041 7.83175L22.9726 7.83396L22.941 7.8347L22.9094 7.83396L22.8778 7.83175L22.8463 7.82779L22.8147 7.82236L22.7839 7.81545L22.753 7.80707L22.7222 7.79697L22.6921 7.78537L22.6628 7.77229L22.6334 7.75776L22.605 7.74146L22.5774 7.72446L22.5505 7.70521L22.5244 7.68448L22.499 7.66204L22.4743 7.63813V7.63836ZM26.8915 15.2193H25.5704L25.5674 14.9514L25.5573 14.6843L25.541 14.4179L25.5186 14.1522L25.4902 13.8888L25.4557 13.6278L25.415 13.3676L25.3681 13.1103L25.3141 12.853L25.2549 12.5975L25.1896 12.3449L25.118 12.0948L25.0403 11.8454L24.9572 11.5997L24.8679 11.3556L24.7724 11.1138L24.6716 10.8743L24.5645 10.638L24.4513 10.4032L24.3334 10.1723L24.2086 9.94441L24.0783 9.71797L23.9437 9.49549L23.8021 9.2752L23.6558 9.05889L23.5034 8.84554L23.3462 8.63611L23.183 8.42966L23.0135 8.22641L22.8386 8.02611L22.66 7.83126L22.4753 7.63886L23.4084 6.69019L23.6163 6.90579L23.8181 7.12532L24.013 7.35002L24.2024 7.57793L24.3857 7.8088L24.5643 8.04584L24.7352 8.28683L24.9 8.5293L25.0586 8.77721L25.2117 9.02733L25.3573 9.28137L25.4974 9.53866L25.6306 9.80035L25.7576 10.0628L25.8785 10.3299L25.9932 10.6003L26.0995 10.8728L26.2011 11.1476L26.2951 11.4256L26.3822 11.7058L26.4631 11.9885L26.5363 12.2734L26.6034 12.5598L26.6634 12.8476L26.7164 13.1387L26.7632 13.4312L26.8025 13.7262L26.8341 14.022L26.8594 14.3185L26.8772 14.6172L26.8888 14.9166L26.8918 15.2185L26.8915 15.2193ZM25.5704 15.2193H26.8915L26.8908 15.2538L26.8886 15.2876L26.8839 15.3206L26.8784 15.3537L26.8708 15.386L26.8617 15.4183L26.8516 15.4492L26.8392 15.4793L26.8261 15.5093L26.8116 15.5377L26.7963 15.5661L26.7785 15.593L26.76 15.6191L26.7408 15.6445L26.7201 15.6692L26.6976 15.6924L26.6752 15.7148L26.6505 15.7355L26.6259 15.7555L26.5997 15.774L26.5736 15.7918L26.5459 15.8081L26.5176 15.8226L26.4882 15.8364L26.4581 15.848L26.4273 15.8589L26.3957 15.868L26.3642 15.8749L26.3311 15.8811L26.2988 15.8857L26.265 15.888L26.2312 15.8887L26.1974 15.888L26.1636 15.8857L26.1313 15.8811L26.0982 15.8749L26.0667 15.868L26.0351 15.8589L26.0043 15.848L25.9742 15.8364L25.9448 15.8226L25.9165 15.8081L25.8888 15.7918L25.8627 15.774L25.8366 15.7555L25.8119 15.7355L25.7872 15.7148L25.7648 15.6924L25.7423 15.6692L25.7216 15.6445L25.7024 15.6191L25.6839 15.593L25.6661 15.5661L25.6508 15.5377L25.6363 15.5093L25.6232 15.4793L25.6109 15.4492L25.6007 15.4183L25.5916 15.386L25.584 15.3537L25.5785 15.3206L25.5738 15.2876L25.5716 15.2538L25.5709 15.2193H25.5704ZM23.4091 23.7481L22.4743 22.8012L22.6568 22.6103L22.8354 22.4161L23.0078 22.2176L23.1756 22.0151L23.3374 21.8096L23.4945 21.6002L23.6462 21.3861L23.7932 21.169L23.934 20.9487L24.0687 20.7255L24.199 20.4991L24.323 20.2689L24.4424 20.0356L24.5549 19.8008L24.6627 19.562L24.765 19.321L24.8598 19.0793L24.9498 18.8336L25.0344 18.5857L25.1121 18.3356L25.1844 18.0845L25.2505 17.8312L25.3104 17.5764L25.3644 17.3191L25.4123 17.0596L25.4547 16.8001L25.4892 16.5399L25.5176 16.2765L25.5415 16.014L25.5568 15.7506L25.566 15.4849L25.5699 15.2193H26.891L26.8871 15.5187L26.8762 15.8152L26.8577 16.1139L26.8323 16.4104L26.7993 16.7044L26.76 16.9984L26.7132 17.2917L26.6592 17.5806L26.5992 17.8702L26.5314 18.1573L26.4574 18.4429L26.3758 18.7263L26.2872 19.0073L26.1932 19.2845L26.0923 19.561L25.9838 19.835L25.8691 20.1054L25.749 20.3733L25.6212 20.6374L25.488 20.8984L25.3487 21.1564L25.2031 21.412L25.0499 21.6645L24.8906 21.9124L24.7266 22.1557L24.5564 22.3959L24.3793 22.633L24.196 22.8648L24.0081 23.092L23.8139 23.3152L23.6136 23.534L23.4082 23.7481H23.4091ZM22.4743 22.8012L23.4091 23.7481L23.3845 23.772L23.3591 23.7945L23.3329 23.8145L23.3053 23.8337L23.2777 23.8515L23.2493 23.8677L23.2209 23.8823L23.1908 23.8954L23.1608 23.907L23.1299 23.9161L23.0991 23.9245L23.0683 23.9314L23.0367 23.9368L23.0051 23.9407L22.9735 23.943L22.942 23.9437L22.9104 23.943L22.8788 23.9407L22.8472 23.9368L22.8157 23.9314L22.7848 23.9245L22.754 23.9161L22.7232 23.907L22.6931 23.8954L22.663 23.8823L22.6346 23.8677L22.6063 23.8515L22.5786 23.8337L22.551 23.8145L22.5249 23.7945L22.4995 23.772L22.4748 23.7481L22.4516 23.7234L22.4292 23.6973L22.4092 23.6704L22.3899 23.6435L22.3729 23.6152L22.3566 23.5868L22.3421 23.5567L22.3297 23.5266L22.3182 23.4965L22.308 23.4657L22.2997 23.4341L22.2928 23.4025L22.2881 23.371L22.2841 23.3386L22.2819 23.3071L22.2811 23.2748L22.2819 23.2424L22.2841 23.2109L22.2881 23.1786L22.2928 23.147L22.2997 23.1154L22.308 23.0839L22.3182 23.053L22.3297 23.0229L22.3421 22.9928L22.3566 22.9627L22.3729 22.9344L22.3899 22.906L22.4092 22.8791L22.4292 22.8522L22.4516 22.8261L22.4748 22.8014L22.4743 22.8012Z" fill="white"/>
<path d="M1.32112 15.2612L0 15.2659L0.0162922 14.5099L0.0685855 13.7623L0.156395 13.0247L0.278727 12.2971L0.434383 11.5818L0.623822 10.878L0.844825 10.1889L1.09665 9.51449L1.37834 8.85467L1.69013 8.21088L2.02977 7.58484L2.39779 6.97657L2.7927 6.38755L3.21301 5.8185L3.65874 5.27017L4.12913 4.74354L4.62269 4.23912L5.13845 3.75938L5.67742 3.30279L6.23562 2.87312L6.81454 2.46882L7.41269 2.09071L8.03008 1.74192L8.66375 1.4225L9.31518 1.13217L9.98265 0.872693L10.6649 0.645494L11.361 0.45065L12.0702 0.288824L12.7924 0.16254L13.5255 0.0717725L14.2691 0.0170061L14.3323 1.35516L13.6532 1.40524L12.985 1.48836L12.3274 1.60378L11.6814 1.75005L11.047 1.92791L10.4249 2.1351L9.81739 2.3714L9.22441 2.63557L8.64626 2.92738L8.08411 3.24532L7.53823 3.58942L7.01012 3.95817L6.49956 4.35087L6.00819 4.76748L5.53707 5.20554L5.08667 5.66534L4.65772 6.14582L4.25049 6.64629L3.86692 7.16601L3.50729 7.70276L3.17158 8.25874L2.86129 8.82927L2.57713 9.41607L2.31985 10.0174L2.08972 10.6334L1.8887 11.2608L1.71627 11.9014L1.57469 12.5536L1.46296 13.2166L1.38277 13.8895L1.33494 14.571L1.32039 15.261L1.32112 15.2612ZM0 15.2659L1.32112 15.2612L1.32039 15.2958L1.31817 15.3295L1.31348 15.3626L1.30804 15.3957L1.3004 15.428L1.29201 15.4603L1.28191 15.4911L1.26957 15.5219L1.25649 15.5513L1.24193 15.5806L1.22666 15.6083L1.20963 15.6359L1.19114 15.662L1.17115 15.6874L1.15117 15.7121L1.12873 15.7353L1.10629 15.7578L1.08235 15.7792L1.05696 15.7992L1.03154 15.8177L1.00466 15.8354L0.977024 15.8517L0.948672 15.8663L0.9193 15.8801L0.889214 15.8917L0.859129 15.9026L0.827564 15.9117L0.795974 15.9193L0.762931 15.9255L0.730601 15.9294L0.696818 15.9324L0.663035 15.9331L0.629227 15.9324L0.595444 15.9302L0.562401 15.9255L0.530071 15.92L0.498507 15.9124L0.466942 15.9033L0.436091 15.8932L0.406006 15.8808L0.376659 15.8677L0.348282 15.8532L0.320669 15.8369L0.29377 15.8199L0.267636 15.8014L0.242956 15.7814L0.218301 15.7607L0.195838 15.7383L0.173401 15.7151L0.152673 15.6904L0.132709 15.6657L0.114199 15.6396L0.0971925 15.612L0.0809003 15.5844L0.0663418 15.556L0.0525482 15.5259L0.0409473 15.4958L0.0300858 15.4642L0.0216975 15.4327L0.0140485 15.4003L0.0079039 15.3673L0.00395195 15.3342L0.000994362 15.3004L0.000254965 15.2659H0ZM2.86794 21.9606L1.57443 21.6895L1.6329 22.1298L1.5367 21.9356L1.44346 21.7393L1.35343 21.5422L1.26562 21.3444L1.18028 21.1441L1.09788 20.9416L1.01846 20.7391L0.941508 20.5351L0.867517 20.3296L0.795974 20.1217L0.728153 19.913L0.662041 19.7029L0.599626 19.4912L0.540423 19.2796L0.484203 19.0662L0.430176 18.8514L0.379362 18.6351L0.331505 18.4172L0.286861 18.1977L0.246168 17.9789L0.207694 17.7579L0.173146 17.5354L0.140842 17.3129L0.112465 17.089L0.0870704 16.8658L0.064608 16.6393L0.0453837 16.4121L0.0300858 16.1842L0.0170061 15.9563L0.0086178 15.7262L0.00247316 15.496L0.000229468 15.2659L1.32135 15.2612L1.32357 15.4729L1.32826 15.683L1.33665 15.8917L1.34825 16.1011L1.36207 16.309L1.37982 16.5145L1.40055 16.721L1.42446 16.9274L1.44988 17.1314L1.47923 17.3339L1.51079 17.5364L1.54631 17.7375L1.58407 17.9377L1.62402 18.137L1.66719 18.3349L1.71331 18.5312L1.76265 18.7276L1.8142 18.9224L1.86894 19.1173L1.92519 19.3089L1.98513 19.5006L2.0468 19.6908L2.11215 19.8787L2.18 20.0674L2.2493 20.2529L2.32257 20.4384L2.3973 20.6224L2.47499 20.8042L2.55515 20.9867L2.63756 21.1653L2.72289 21.3432L2.80996 21.5203L2.86843 21.9606H2.86794ZM1.63315 22.13L2.80971 21.5203L2.82427 21.5511L2.83735 21.5827L2.84821 21.615L2.85831 21.6465L2.86595 21.6789L2.87212 21.7112L2.87682 21.7442L2.87977 21.7766L2.88125 21.8089V21.8412L2.87977 21.8735L2.87682 21.9058L2.87212 21.9381L2.86595 21.9697L2.85831 22.0005L2.84992 22.0313L2.83908 22.0622L2.82674 22.0915L2.81366 22.1209L2.7991 22.1502L2.78284 22.1779L2.7658 22.2047L2.74658 22.2309L2.72659 22.2563L2.70586 22.281L2.68269 22.3049L2.65877 22.3273L2.63409 22.3488L2.60796 22.3688L2.58032 22.388L2.55197 22.4058L2.52185 22.422L2.49103 22.4366L2.4602 22.4497L2.42861 22.4613L2.39705 22.4714L2.36548 22.479L2.33392 22.4859L2.30159 22.4906L2.26929 22.4936L2.23772 22.4951H2.20539L2.17383 22.4936L2.14226 22.4906L2.11067 22.4859L2.07911 22.4798L2.04828 22.4721L2.01817 22.463L1.98809 22.4522L1.95874 22.4398L1.92939 22.4267L1.90176 22.4114L1.87414 22.3952L1.84724 22.3774L1.82111 22.3589L1.79643 22.3382L1.77177 22.3167L1.74857 22.2943L1.72614 22.2696L1.70541 22.2442L1.68544 22.2173L1.66693 22.1897L1.64916 22.1604L1.6329 22.1303L1.63315 22.13ZM0.0522932 29.1875L1.57443 21.6897L2.86794 21.9608L1.34578 29.4586V29.4593L0.0522932 29.1875ZM0.0522932 29.1875L1.34578 29.4586L1.33813 29.4924L1.329 29.5247L1.31817 29.557L1.30583 29.5878L1.29201 29.6179L1.27745 29.6473L1.26118 29.6756L1.24341 29.7033L1.22419 29.7294L1.2042 29.7548L1.18347 29.7787L1.16103 29.8019L1.13786 29.8244L1.11318 29.8444L1.08778 29.8643L1.06236 29.8828L1.03549 29.8999L1.00785 29.9152L0.979497 29.9297L0.950126 29.9428L0.92004 29.9544L0.889954 29.9645L0.859129 29.9729L0.827539 29.9798L0.795974 29.986L0.76367 29.9899L0.73134 29.9921L0.699036 29.9929L0.665993 29.9921L0.632924 29.9899L0.599141 29.9852L0.566072 29.979L0.533029 29.9714L0.500725 29.9623L0.469135 29.9507L0.439049 29.9383L0.408963 29.9245L0.379617 29.9092L0.351979 29.8929L0.325105 29.8752L0.298946 29.8559L0.274291 29.8352L0.25035 29.8138L0.227173 29.7913L0.205705 29.7674L0.185742 29.7427L0.166492 29.7173L0.147981 29.6912L0.130975 29.6636L0.115677 29.6359L0.101858 29.6076L0.0887787 29.5775L0.0772033 29.5474L0.0670812 29.5165L0.0586928 29.4857L0.0517833 29.4534L0.0463781 29.4211L0.0424261 29.3888L0.0394685 29.3557L0.0387291 29.3227L0.0394685 29.2896L0.0424261 29.2558L0.0463781 29.222L0.0525227 29.1882L0.0522932 29.1875ZM1.22197 29.336L1.52683 30.6403L1.45136 30.6556L1.36898 30.668L1.2851 30.6734H1.20741L1.12896 30.668L1.05818 30.6588L0.978758 30.6443L0.901784 30.6236L0.837916 30.6028L0.760942 30.572L0.693861 30.5397L0.635397 30.5074L0.566072 30.4635L0.509113 30.4218L0.452868 30.3764L0.397362 30.3249L0.34433 30.2693L0.294994 30.2102L0.25578 30.1579L0.214094 30.0962L0.173401 30.0254L0.141837 29.9608L0.111725 29.8922L0.0848522 29.8145L0.0641236 29.743L0.0478569 29.6682L0.0355166 29.5881L0.0293464 29.5148L0.0263888 29.4354L0.0303408 29.3422L0.0394685 29.2645L0.0525227 29.1868L1.34603 29.4593L1.34677 29.4571V29.4549L1.34751 29.4356V29.4287V29.428L1.34603 29.4189L1.3453 29.4134L1.34308 29.408L1.33912 29.3964L1.33691 29.391L1.33617 29.3895L1.32926 29.3772L1.3263 29.3725L1.32852 29.3755L1.32235 29.3686L1.31692 29.3624L1.31075 29.357L1.30853 29.3547L1.30557 29.3533L1.29474 29.3464H1.29621L1.29078 29.3449L1.27696 29.3387L1.27918 29.3394L1.26832 29.3372L1.25822 29.335H1.25675L1.2491 29.3343H1.24367L1.23207 29.335L1.22368 29.3365H1.2222L1.22197 29.336ZM1.52683 30.6403L1.22197 29.336L1.25501 29.3291L1.28806 29.3237L1.32112 29.3197L1.35417 29.3182L1.38721 29.3175L1.41954 29.319L1.45184 29.3219L1.48415 29.3266L1.51574 29.3335L1.54656 29.3412L1.57739 29.3503L1.6075 29.3604L1.63685 29.3727L1.6652 29.3866L1.69358 29.4011L1.72121 29.4174L1.74735 29.4352L1.77274 29.4536L1.79816 29.4736L1.82208 29.4951L1.84528 29.5175L1.86672 29.5415L1.88745 29.5661L1.9067 29.5915L1.92519 29.6184L1.94296 29.646L1.95826 29.6754L1.97279 29.7055L1.98587 29.7363L1.99821 29.7679L2.00831 29.8002L2.01669 29.8333L2.0236 29.8671L2.02903 29.9008L2.03199 29.9339L2.03421 29.9677V30.0007L2.03273 30.0338L2.02977 30.0661L2.02508 30.0984L2.01891 30.1307L2.01129 30.1623L2.0029 30.1931L1.99204 30.224L1.9797 30.2533L1.96664 30.2827L1.95209 30.311L1.93579 30.3387L1.91879 30.3663L1.90028 30.3917L1.88031 30.4171L1.85958 30.4418L1.83712 30.465L1.81395 30.4874L1.78929 30.5081L1.76387 30.5281L1.73774 30.5466L1.7101 30.5644L1.68175 30.5806L1.65237 30.5952L1.62229 30.609L1.59072 30.6206L1.55913 30.6314L1.52609 30.6398L1.52683 30.6403ZM8.76907 28.9001L1.52683 30.6403L1.22197 29.336L8.46419 27.5958L8.91165 27.6481L8.7693 28.9001H8.76907ZM8.76907 28.9001L8.46419 27.5958L8.49726 27.5889L8.5303 27.5834L8.56334 27.5795L8.59641 27.578L8.62945 27.5773L8.66176 27.5788L8.69409 27.5817L8.72639 27.5864L8.75796 27.5933L8.78881 27.601L8.81963 27.6101L8.84972 27.6202L8.87906 27.6325L8.90744 27.6463L8.93582 27.6609L8.96343 27.6772L8.98959 27.6949L9.01499 27.7135L9.04041 27.7334L9.06432 27.7549L9.0875 27.7773L9.10897 27.8013L9.12969 27.8259L9.14892 27.8513L9.16743 27.8782L9.18518 27.9059L9.20047 27.9352L9.21503 27.9653L9.22811 27.9961L9.24043 28.0277L9.25055 28.06L9.25894 28.0931L9.26585 28.1269L9.27128 28.1606L9.27423 28.1937L9.27645 28.2275V28.2605L9.27497 28.2936L9.27202 28.3259L9.26733 28.3582L9.26116 28.3905L9.25351 28.4221L9.24512 28.4529L9.23428 28.4838L9.22194 28.5131L9.20886 28.5425L9.1943 28.5709L9.17804 28.5985L9.16101 28.6261L9.14252 28.6515L9.12253 28.6769L9.1018 28.7016L9.07936 28.7248L9.05619 28.7472L9.03151 28.7679L9.00611 28.7879L8.97995 28.8064L8.95234 28.8242L8.92396 28.8405L8.89462 28.855L8.86453 28.8688L8.83294 28.8804L8.80138 28.8913L8.76833 28.8997L8.76907 28.9001ZM14.7884 29.095L14.7684 30.4346L14.5521 30.4299L14.3357 30.4216L14.1216 30.4107L13.9068 30.3969L13.6927 30.3791L13.4818 30.3591L13.2702 30.336L13.06 30.3098L12.8498 30.2805L12.6404 30.2489L12.4325 30.2144L12.2246 30.1759L12.0191 30.1352L11.8151 30.092L11.6111 30.0459L11.4079 29.9966L11.2068 29.945L11.0051 29.8902L10.8058 29.8333L10.6072 29.7723L10.4101 29.7099L10.2138 29.6446L10.0189 29.576L9.82651 29.5059L9.63238 29.4319L9.44147 29.3557L9.25203 29.278L9.06407 29.1964L8.87611 29.114L8.68891 29.0269L8.50414 28.9384L8.32161 28.8476L8.91139 27.6481L9.07837 27.7312L9.24611 27.8121L9.41482 27.8898L9.58578 27.966L9.75818 28.04L9.93207 28.1116L10.106 28.1816L10.2799 28.2477L10.457 28.3116L10.6348 28.374L10.8127 28.4332L10.9927 28.4909L11.1745 28.5457L11.3556 28.598L11.5388 28.6481L11.7228 28.6949L11.9076 28.7396L12.0931 28.7812L12.2818 28.8212L12.469 28.8589L12.657 28.8927L12.8464 28.9243L13.0373 28.9544L13.2275 28.9806L13.4206 29.0037L13.6138 29.0252L13.8079 29.0437L14.002 29.06L14.1969 29.0723L14.3939 29.0832L14.5903 29.0901L14.7881 29.0948L14.7884 29.095ZM14.7684 30.4349L14.7884 29.0952L14.8222 29.0967L14.8559 29.0997L14.8882 29.1044L14.9206 29.1105L14.9529 29.1189L14.9837 29.128L15.0146 29.1389L15.0446 29.1513L15.073 29.165L15.1014 29.1803L15.129 29.1974L15.1551 29.2151L15.1806 29.2344L15.2052 29.2543L15.2291 29.2758L15.2523 29.2982L15.273 29.3222L15.2938 29.3468L15.313 29.3723L15.3308 29.3991L15.3478 29.426L15.3631 29.4544L15.3776 29.4838L15.39 29.5138L15.4016 29.5439L15.4117 29.5755L15.4201 29.6071L15.427 29.6401L15.4324 29.6724L15.4363 29.7062L15.4386 29.74V29.7746L15.4371 29.8091L15.4341 29.8429L15.4294 29.8759L15.4233 29.909L15.4156 29.9413L15.4065 29.9729L15.3949 30.0037L15.3826 30.0338L15.3695 30.0639L15.3542 30.0922L15.3379 30.1199L15.3202 30.1468L15.3017 30.1729L15.2817 30.1976L15.2602 30.2215L15.2378 30.2447L15.2146 30.2662L15.1899 30.2869L15.1653 30.3069L15.1391 30.3246L15.1115 30.3424L15.0839 30.3577L15.0555 30.3722L15.0261 30.3853L14.9953 30.3969L14.9645 30.407L14.9337 30.4154L14.9013 30.4223L14.869 30.4277L14.836 30.4317L14.8022 30.4339H14.7684V30.4349ZM28.6762 15.6623L29.9958 15.704L29.9534 16.4748L29.8725 17.2348L29.7563 17.9831L29.6039 18.7199L29.4159 19.4421L29.1949 20.1505L28.9423 20.8427L28.6567 21.5188L28.3409 22.1764L27.9951 22.8177L27.6202 23.4383L27.2184 24.0389L26.788 24.6186L26.3336 25.1768L25.8524 25.7111L25.348 26.2224L24.8206 26.709L24.2708 27.171L23.6995 27.6054L23.1083 28.0127L22.497 28.3923L21.8673 28.7418L21.2205 29.0622L20.5568 29.351L19.8777 29.6083L19.1841 29.8315L18.4772 30.0225L17.7564 30.1781L17.0234 30.2982L16.2811 30.3814L15.5288 30.4282L14.7681 30.4351L14.7881 29.0955L15.4827 29.0886L16.1687 29.0462L16.8462 28.9707L17.513 28.8614L18.1691 28.7199L18.8144 28.5459L19.4466 28.3412L20.0657 28.1071L20.6707 27.8447L21.2605 27.5521L21.835 27.2335L22.3924 26.8876L22.9314 26.5157L23.4534 26.1183L23.9553 25.698L24.4365 25.253L24.8978 24.7863L25.3359 24.2982L25.7518 23.7893L26.1437 23.2605L26.5102 22.7121L26.8528 22.1456L27.1678 21.5627L27.4557 20.9621L27.7152 20.3462L27.9461 19.7154L28.1471 19.0702L28.318 18.4126L28.4566 17.7419L28.5637 17.0596L28.637 16.366L28.6762 15.663V15.6623ZM29.9958 15.704L28.6762 15.6623L28.6777 15.6278L28.6816 15.594L28.687 15.5609L28.6939 15.5279L28.7016 15.4963L28.7117 15.4647L28.7233 15.4339L28.7363 15.4038L28.7502 15.3744L28.7655 15.3461L28.7825 15.3185L28.8002 15.2923L28.8195 15.2662L28.8402 15.2415L28.8617 15.2183L28.8841 15.1951L28.908 15.1737L28.9327 15.1537L28.9581 15.1344L28.9842 15.1167L29.0119 15.0996L29.0395 15.0851L29.0688 15.0713L29.0982 15.0582L29.129 15.0474L29.1599 15.0373L29.1915 15.0296L29.2238 15.0234L29.2561 15.018L29.2891 15.015L29.3229 15.0136H29.3567L29.3905 15.015L29.4235 15.019L29.4566 15.0244L29.4889 15.0313L29.5205 15.0397L29.5513 15.0498L29.5822 15.0614L29.6115 15.0745L29.6409 15.0883L29.6685 15.1046L29.6954 15.1216L29.7215 15.1394L29.7469 15.1594L29.7716 15.1801L29.7948 15.2015L29.8172 15.2247L29.8379 15.2486L29.8579 15.2733L29.8764 15.2995L29.8942 15.3263L29.9105 15.354L29.9258 15.3823L29.9396 15.4117L29.9519 15.4418L29.9627 15.4726L29.9719 15.5042L29.9795 15.5365L29.9864 15.5688L29.9911 15.6018L29.9941 15.6357L29.9956 15.6694V15.704H29.9958ZM14.3328 1.3559L14.2696 0.0177455L15.0873 0L15.8941 0.0261339L16.6911 0.0947194L17.475 0.204737L18.2473 0.356415L19.0033 0.546593L19.744 0.775245L20.4685 1.04166L21.1744 1.34356L21.8619 1.68001L22.5286 2.05025L23.1754 2.45452L23.7989 2.8889L24.3995 3.35485L24.9762 3.84989L25.5268 4.37356L26.0512 4.92411L26.5477 5.50081L27.0159 6.10217L27.4539 6.72821L27.8612 7.37717L28.2361 8.04783L28.5787 8.7385L28.8876 9.44912L29.1601 10.179L29.3982 10.9252L29.5975 11.6881L29.7583 12.4658L29.8799 13.2573L29.96 14.062L30 14.8782L29.9953 15.7042L28.6757 15.6626L28.6786 14.9073L28.6431 14.1619L28.5691 13.428L28.4584 12.7058L28.3113 11.9974L28.1303 11.302L27.914 10.6223L27.6646 9.95701L27.3837 9.30952L27.0719 8.67879L26.7293 8.0683L26.3573 7.47633L25.9577 6.90579L25.5312 6.35673L25.0776 5.83084L24.5996 5.32815L24.0969 4.85085L23.571 4.39898L23.0227 3.97472L22.4544 3.57733L21.8646 3.21006L21.2563 2.87213L20.6303 2.56505L19.9858 2.28928L19.326 2.04754L18.6516 1.83888L17.9617 1.66571L17.2587 1.52782L16.5441 1.42693L15.8164 1.36455L15.0789 1.33986L14.332 1.35616L14.3328 1.3559H14.3328ZM14.2696 0.0177455L14.3328 1.3559L14.299 1.35664L14.2652 1.3559L14.2321 1.35294L14.1998 1.34899L14.1675 1.34282L14.1352 1.33517L14.1044 1.32678L14.0735 1.31595L14.0434 1.30361L14.0151 1.29053L13.9867 1.27597L13.9591 1.2597L13.9322 1.24193L13.906 1.22345L13.8814 1.20346L13.8575 1.18273L13.8343 1.16029L13.8128 1.13712L13.7921 1.11244L13.7721 1.08704L13.7536 1.06088L13.7366 1.03401L13.7203 1.00563L13.7057 0.977279L13.6927 0.947168L13.6811 0.916343L13.6702 0.885518L13.6618 0.853214L13.6542 0.820884L13.6488 0.787101L13.6441 0.754032L13.6419 0.71951L13.6411 0.684988L13.6419 0.65118L13.6448 0.617397L13.6488 0.584328L13.6549 0.552024L13.6626 0.51972L13.671 0.48813L13.6818 0.457305L13.6934 0.426479L13.7065 0.397133L13.721 0.368755L13.7373 0.340403L13.7543 0.313504L13.7729 0.287371L13.7921 0.261951L13.8128 0.237296L13.8352 0.214094L13.8584 0.191657L13.8824 0.170928L13.907 0.150965L13.9332 0.132454L13.9601 0.114683L13.9877 0.0984163L14.0161 0.0838579L14.0454 0.0700388L14.0755 0.0584634L14.1063 0.0476019L14.1379 0.0384742L14.1702 0.0308252L14.2033 0.0253945L14.2363 0.0207286L14.2701 0.0184849L14.2696 0.0177455Z" fill="white"/>
<path fill-rule="evenodd" clip-rule="evenodd" d="M21.9613 18.3734L19.1835 17.5641C18.8177 17.4578 18.425 17.5626 18.1586 17.8381L17.4795 18.5396C17.1931 18.8361 16.758 18.9309 16.3791 18.7752C15.0649 18.2363 12.3006 15.7422 11.5946 14.4959C11.3914 14.1355 11.4245 13.6858 11.6748 13.3578L12.2678 12.5793C12.5004 12.2744 12.5495 11.8647 12.3956 11.5122L11.2269 8.83055C10.9474 8.18848 10.1381 8.00127 9.61002 8.45488C8.83476 9.12013 7.91445 10.1312 7.80296 11.2513C7.60587 13.2256 8.44057 15.7146 11.5966 18.703C15.243 22.1562 18.1635 22.612 20.0645 22.1446C21.1432 21.8797 22.0048 20.8173 22.5484 19.9478C22.9196 19.3541 22.6268 18.5673 21.9616 18.3734H21.9613V18.3734Z" fill="white"/>
</g>
<defs>
<clipPath id="clip0_68_102">
<rect width="30" height="30.75" fill="white"/>
</clipPath>
</defs>
</svg>
